# Blender 4.3.2
# www.blender.org
mtllib left_knuckle.mtl
o left_knuckle
v -0.004450 -0.000014 -0.004040
v -0.004600 -0.000013 -0.004000
v -0.004450 0.000688 -0.003981
v -0.004600 0.000681 -0.003942
v -0.004450 0.001369 -0.003801
v -0.004600 0.001355 -0.003763
v -0.004450 0.002008 -0.003506
v -0.004600 0.001988 -0.003471
v -0.004450 0.002587 -0.003104
v -0.004600 0.002561 -0.003073
v -0.004450 0.003086 -0.002607
v -0.004600 0.003056 -0.002581
v -0.004450 0.003492 -0.002032
v -0.004600 0.003457 -0.002012
v -0.004450 0.003792 -0.001395
v -0.004600 0.003754 -0.001381
v -0.004450 0.003976 -0.000715
v -0.004600 0.003937 -0.000708
v -0.004450 0.004040 -0.000014
v -0.004600 0.004000 -0.000013
v -0.004450 0.003981 0.000688
v -0.004600 0.003942 0.000681
v -0.004450 0.003801 0.001369
v -0.004600 0.003763 0.001355
v -0.004450 0.003506 0.002008
v -0.004600 0.003471 0.001988
v -0.004450 0.003104 0.002587
v -0.004600 0.003073 0.002561
v -0.004450 0.002607 0.003086
v -0.004600 0.002581 0.003056
v -0.004450 0.002032 0.003492
v -0.004600 0.002012 0.003457
v -0.004450 0.001395 0.003792
v -0.004600 0.001381 0.003754
v -0.004450 0.000715 0.003976
v -0.004600 0.000708 0.003937
v -0.004450 0.000014 0.004040
v -0.004600 0.000013 0.004000
v -0.004340 -0.000014 -0.004150
v -0.004340 0.000707 -0.004089
v -0.004340 0.001406 -0.003904
v -0.004340 0.002063 -0.003601
v -0.004340 0.002657 -0.003188
v -0.004340 0.003170 -0.002678
v -0.004340 0.003587 -0.002087
v -0.004340 0.003895 -0.001432
v -0.004340 0.004084 -0.000734
v -0.004340 0.004150 -0.000014
v -0.004340 0.004089 0.000707
v -0.004340 0.003904 0.001406
v -0.004340 0.003601 0.002063
v -0.004340 0.003188 0.002657
v -0.004340 0.002678 0.003170
v -0.004340 0.002087 0.003587
v -0.004340 0.001432 0.003895
v -0.004340 0.000734 0.004084
v -0.004340 0.000014 0.004150
v -0.004300 -0.000014 -0.004300
v -0.004300 0.000732 -0.004237
v -0.004300 0.001457 -0.004046
v -0.004300 0.002137 -0.003731
v -0.004300 0.002753 -0.003303
v -0.004300 0.003285 -0.002775
v -0.004300 0.003717 -0.002162
v -0.004300 0.004036 -0.001484
v -0.004300 0.004232 -0.000761
v -0.004300 0.004300 -0.000014
v -0.004300 0.004237 0.000732
v -0.004300 0.004046 0.001457
v -0.004300 0.003731 0.002137
v -0.004300 0.003303 0.002753
v -0.004300 0.002775 0.003285
v -0.004300 0.002162 0.003717
v -0.004300 0.001484 0.004036
v -0.004300 0.000761 0.004232
v -0.004300 0.000014 0.004300
v 0.004740 -0.000014 -0.004150
v 0.004700 -0.000014 -0.004300
v 0.004740 0.000707 -0.004089
v 0.004700 0.000732 -0.004237
v 0.004740 0.001406 -0.003904
v 0.004700 0.001457 -0.004046
v 0.004740 0.002063 -0.003601
v 0.004700 0.002137 -0.003731
v 0.004740 0.002657 -0.003188
v 0.004700 0.002753 -0.003303
v 0.004740 0.003170 -0.002678
v 0.004700 0.003285 -0.002775
v 0.004740 0.003587 -0.002087
v 0.004700 0.003717 -0.002162
v 0.004740 0.003895 -0.001432
v 0.004700 0.004036 -0.001484
v 0.004740 0.004084 -0.000734
v 0.004700 0.004232 -0.000761
v 0.004740 0.004150 -0.000014
v 0.004700 0.004300 -0.000014
v 0.004740 0.004089 0.000707
v 0.004700 0.004237 0.000732
v 0.004740 0.003904 0.001406
v 0.004700 0.004046 0.001457
v 0.004740 0.003601 0.002063
v 0.004700 0.003731 0.002137
v 0.004740 0.003188 0.002657
v 0.004700 0.003303 0.002753
v 0.004740 0.002678 0.003170
v 0.004700 0.002775 0.003285
v 0.004740 0.002087 0.003587
v 0.004700 0.002162 0.003717
v 0.004740 0.001432 0.003895
v 0.004700 0.001484 0.004036
v 0.004740 0.000734 0.004084
v 0.004700 0.000761 0.004232
v 0.004740 0.000014 0.004150
v 0.004700 0.000014 0.004300
v 0.004850 -0.000014 -0.004040
v 0.004850 0.000688 -0.003981
v 0.004850 0.001369 -0.003801
v 0.004850 0.002008 -0.003506
v 0.004850 0.002587 -0.003104
v 0.004850 0.003086 -0.002607
v 0.004850 0.003492 -0.002032
v 0.004850 0.003792 -0.001395
v 0.004850 0.003976 -0.000715
v 0.004850 0.004040 -0.000014
v 0.004850 0.003981 0.000688
v 0.004850 0.003801 0.001369
v 0.004850 0.003506 0.002008
v 0.004850 0.003104 0.002587
v 0.004850 0.002607 0.003086
v 0.004850 0.002032 0.003492
v 0.004850 0.001395 0.003792
v 0.004850 0.000715 0.003976
v 0.004850 0.000014 0.004040
v 0.005000 -0.000013 -0.004000
v 0.005000 0.000681 -0.003942
v 0.005000 0.001355 -0.003763
v 0.005000 0.001988 -0.003471
v 0.005000 0.002561 -0.003073
v 0.005000 0.003056 -0.002581
v 0.005000 0.003457 -0.002012
v 0.005000 0.003754 -0.001381
v 0.005000 0.003937 -0.000708
v 0.005000 0.004000 -0.000013
v 0.005000 0.003942 0.000681
v 0.005000 0.003763 0.001355
v 0.005000 0.003471 0.001988
v 0.005000 0.003073 0.002561
v 0.005000 0.002581 0.003056
v 0.005000 0.002012 0.003457
v 0.005000 0.001381 0.003754
v 0.005000 0.000708 0.003937
v 0.005000 0.000013 0.004000
v -0.008050 -0.000013 -0.003750
v -0.007800 -0.000013 -0.004000
v -0.007800 -0.001381 -0.003754
v -0.008050 -0.001294 -0.003519
v -0.007800 -0.002581 -0.003056
v -0.008050 -0.002420 -0.002865
v -0.007800 -0.003471 -0.001988
v -0.008050 -0.003254 -0.001864
v -0.007800 -0.003942 -0.000681
v -0.008050 -0.003695 -0.000639
v -0.007800 -0.003937 0.000708
v -0.008050 -0.003691 0.000664
v -0.007800 -0.003457 0.002012
v -0.008050 -0.003241 0.001886
v -0.007800 -0.002561 0.003073
v -0.008050 -0.002401 0.002881
v -0.007800 -0.001355 0.003763
v -0.008050 -0.001271 0.003528
v -0.007800 0.000013 0.004000
v -0.008050 0.000013 0.003750
v 0.008450 0.000013 0.003750
v 0.008200 0.000013 0.004000
v 0.008200 -0.001355 0.003763
v 0.008450 -0.001271 0.003528
v 0.008200 -0.002561 0.003073
v 0.008450 -0.002401 0.002881
v 0.008200 -0.003457 0.002012
v 0.008450 -0.003241 0.001886
v 0.008200 -0.003937 0.000708
v 0.008450 -0.003691 0.000664
v 0.008200 -0.003942 -0.000681
v 0.008450 -0.003695 -0.000639
v 0.008200 -0.003471 -0.001988
v 0.008450 -0.003254 -0.001864
v 0.008200 -0.002581 -0.003056
v 0.008450 -0.002420 -0.002865
v 0.008200 -0.001381 -0.003754
v 0.008450 -0.001294 -0.003519
v 0.008200 -0.000013 -0.004000
v 0.008450 -0.000013 -0.003750
v -0.008050 0.003691 -0.000664
v -0.008050 0.003241 -0.001886
v -0.008050 0.002401 -0.002881
v -0.008050 0.002420 0.002865
v -0.008050 0.003254 0.001864
v -0.008050 0.003695 0.000639
v -0.008050 0.001294 0.003519
v -0.008050 0.001271 -0.003528
v -0.004600 -0.000708 -0.003937
v -0.004600 -0.001381 -0.003754
v -0.004600 -0.002012 -0.003457
v -0.004600 -0.002581 -0.003056
v -0.004600 -0.003073 -0.002561
v -0.004600 -0.003471 -0.001988
v -0.004600 -0.003763 -0.001355
v -0.004600 -0.003942 -0.000681
v -0.004600 -0.004000 0.000013
v -0.004600 -0.003937 0.000708
v -0.004600 -0.003754 0.001381
v -0.004600 -0.003457 0.002012
v -0.004600 -0.003056 0.002581
v -0.004600 -0.002561 0.003073
v -0.004600 -0.001988 0.003471
v -0.004600 -0.000681 0.003942
v -0.004600 -0.001355 0.003763
v 0.005000 -0.000708 -0.003937
v 0.005000 -0.001381 -0.003754
v 0.005000 -0.002012 -0.003457
v 0.005000 -0.002581 -0.003056
v 0.005000 -0.003073 -0.002561
v 0.005000 -0.003471 -0.001988
v 0.005000 -0.003763 -0.001355
v 0.005000 -0.003942 -0.000681
v 0.005000 -0.004000 0.000013
v 0.005000 -0.003937 0.000708
v 0.005000 -0.003754 0.001381
v 0.005000 -0.003457 0.002012
v 0.005000 -0.003056 0.002581
v 0.005000 -0.002561 0.003073
v 0.005000 -0.001988 0.003471
v 0.005000 -0.001355 0.003763
v 0.005000 -0.000681 0.003942
v 0.008450 0.001271 -0.003528
v 0.008450 0.002401 -0.002881
v 0.008450 0.003241 -0.001886
v 0.008450 0.002420 0.002865
v 0.008450 0.001294 0.003519
v 0.008450 0.003691 -0.000664
v 0.008450 0.003695 0.000639
v 0.008450 0.003254 0.001864
v -0.003800 0.001516 0.025528
v -0.004300 0.001517 0.026028
v -0.003800 0.002472 0.025334
v -0.004300 0.002665 0.025796
v -0.003800 0.003281 0.024790
v -0.004300 0.003636 0.025142
v -0.003800 0.003820 0.023977
v -0.004300 0.004283 0.024167
v -0.003800 0.004007 0.023019
v -0.004300 0.004507 0.023018
v -0.003800 0.003814 0.022063
v -0.004300 0.004275 0.021871
v -0.003800 0.003269 0.021254
v -0.004300 0.003621 0.020899
v -0.003800 0.002456 0.020715
v -0.004300 0.002646 0.020252
v -0.003800 0.001499 0.020528
v -0.004300 0.001497 0.020028
v 0.004200 0.001516 0.025528
v 0.004200 0.002472 0.025334
v 0.004200 0.003281 0.024790
v 0.004200 0.003820 0.023977
v 0.004200 0.004007 0.023019
v 0.004200 0.003814 0.022063
v 0.004200 0.003269 0.021254
v 0.004200 0.002456 0.020715
v 0.004200 0.001499 0.020528
v 0.004700 0.001497 0.020028
v 0.004700 0.002646 0.020252
v 0.004700 0.003621 0.020899
v 0.004700 0.004275 0.021871
v 0.004700 0.004507 0.023018
v 0.004700 0.004283 0.024167
v 0.004700 0.003636 0.025142
v 0.004700 0.002665 0.025796
v 0.004700 0.001517 0.026028
v -0.003800 -0.003752 0.035026
v -0.004300 -0.003750 0.035526
v -0.003800 -0.002555 0.034811
v -0.004300 -0.002383 0.035280
v -0.003800 -0.001505 0.034200
v -0.004300 -0.001182 0.034582
v -0.003800 -0.000727 0.033266
v -0.004300 -0.000293 0.033514
v -0.003800 -0.000315 0.032122
v -0.004300 0.000178 0.032207
v -0.003800 -0.000319 0.030907
v -0.004300 0.000173 0.030818
v -0.003800 -0.000738 0.029766
v -0.004300 -0.000306 0.029514
v -0.003800 -0.001523 0.028837
v -0.004300 -0.001203 0.028453
v -0.003800 -0.002577 0.028233
v -0.004300 -0.002408 0.027763
v -0.003800 -0.003775 0.028026
v -0.004300 -0.003777 0.027526
v 0.004200 -0.003752 0.035026
v 0.004200 -0.002555 0.034811
v 0.004200 -0.001505 0.034200
v 0.004200 -0.000727 0.033266
v 0.004200 -0.000315 0.032122
v 0.004200 -0.000319 0.030907
v 0.004200 -0.000738 0.029766
v 0.004200 -0.001523 0.028837
v 0.004200 -0.002577 0.028233
v 0.004200 -0.003775 0.028026
v 0.004700 -0.003777 0.027526
v 0.004700 -0.002408 0.027763
v 0.004700 -0.001203 0.028453
v 0.004700 -0.000306 0.029514
v 0.004700 0.000173 0.030818
v 0.004700 0.000178 0.032207
v 0.004700 -0.000293 0.033514
v 0.004700 -0.001182 0.034582
v 0.004700 -0.002383 0.035280
v 0.004700 -0.003750 0.035526
v -0.004300 0.005343 0.005404
v 0.004700 0.005343 0.005404
v 0.004700 0.006461 0.004002
v -0.004300 0.006461 0.004002
v 0.004700 0.007219 0.002377
v -0.004300 0.007219 0.002377
v 0.004700 0.007575 0.000619
v -0.004300 0.007575 0.000619
v 0.004700 0.007509 -0.001173
v -0.004300 0.007509 -0.001173
v 0.004700 0.007025 -0.002900
v -0.004300 0.007025 -0.002900
v 0.004700 0.006150 -0.004466
v -0.004300 0.006150 -0.004466
v 0.004700 0.004932 -0.005782
v -0.004300 0.004932 -0.005782
v 0.004700 0.003440 -0.006777
v -0.004300 0.003440 -0.006777
v 0.004700 0.001756 -0.007394
v -0.004300 0.001756 -0.007394
v 0.004700 -0.000026 -0.007600
v -0.004300 -0.000026 -0.007600
v -0.004300 0.004416 0.007301
v 0.004700 0.004416 0.007301
v -0.004300 0.004719 0.006274
v 0.004700 0.004719 0.006274
v -0.004300 0.003624 0.013936
v 0.004700 0.003624 0.013936
v -0.004300 0.004123 0.016067
v 0.004700 0.004123 0.016067
v -0.004300 0.003686 0.015045
v 0.004700 0.003686 0.015045
v -0.004300 0.010065 0.025149
v 0.004700 0.010065 0.025149
v -0.004300 0.008918 0.026997
v 0.004700 0.008918 0.026997
v 0.004700 0.009455 0.026939
v -0.004300 0.009455 0.026939
v 0.004700 0.009912 0.026652
v -0.004300 0.009912 0.026652
v 0.004700 0.010196 0.026193
v -0.004300 0.010196 0.026193
v 0.004700 0.010251 0.025656
v -0.004300 0.010251 0.025656
v -0.004300 0.006083 0.026659
v 0.004700 0.006083 0.026659
v -0.004300 0.002526 0.029457
v 0.004700 0.002526 0.029457
v -0.004300 0.002867 0.028356
v 0.004700 0.002867 0.028356
v -0.004300 0.003575 0.027447
v 0.004700 0.003575 0.027447
v -0.004300 0.004560 0.026848
v 0.004700 0.004560 0.026848
v -0.004300 0.005693 0.026636
v 0.004700 0.005693 0.026636
v -0.004300 0.002194 0.032237
v 0.004700 0.002194 0.032237
v -0.004300 -0.008361 0.027670
v 0.004700 -0.008361 0.027670
v 0.004700 -0.009262 0.029125
v -0.004300 -0.009262 0.029125
v 0.004700 -0.009716 0.030775
v -0.004300 -0.009716 0.030775
v 0.004700 -0.009686 0.032486
v -0.004300 -0.009686 0.032486
v 0.004700 -0.009174 0.034119
v -0.004300 -0.009174 0.034119
v 0.004700 -0.008222 0.035541
v -0.004300 -0.008222 0.035541
v 0.004700 -0.006907 0.036637
v -0.004300 -0.006907 0.036637
v 0.004700 -0.005336 0.037316
v -0.004300 -0.005336 0.037316
v 0.004700 -0.003638 0.037525
v -0.004300 -0.003638 0.037525
v 0.004700 -0.001949 0.037245
v -0.004300 -0.001949 0.037245
v 0.004700 -0.000409 0.036501
v -0.004300 -0.000409 0.036501
v 0.004700 0.000859 0.035351
v -0.004300 0.000859 0.035351
v 0.004700 0.001751 0.033890
v -0.004300 0.001751 0.033890
v -0.004300 -0.007635 0.025993
v 0.004700 -0.007635 0.025993
v -0.004300 -0.007876 0.026885
v 0.004700 -0.007876 0.026885
v -0.004300 -0.005366 0.006986
v 0.004700 -0.005366 0.006986
v -0.004300 -0.006012 0.004649
v 0.004700 -0.006012 0.004649
v -0.004300 -0.005459 0.005754
v 0.004700 -0.005459 0.005754
v 0.004700 -0.000607 0.025156
v 0.004700 0.000368 0.025803
v 0.004700 -0.001261 0.024185
v 0.004700 -0.001493 0.023038
v 0.004700 -0.001268 0.021889
v 0.004700 -0.000621 0.020914
v 0.004700 0.000350 0.020260
v 0.004700 -0.005119 0.035289
v 0.004700 -0.006324 0.034599
v 0.004700 -0.007221 0.033538
v 0.004700 -0.007700 0.032234
v 0.004700 -0.007705 0.030845
v 0.004700 -0.007234 0.029538
v 0.004700 -0.006345 0.028471
v 0.004700 -0.005144 0.027772
v 0.004700 -0.004036 0.001484
v 0.004700 -0.003717 0.002162
v 0.004700 -0.003285 0.002775
v 0.004700 -0.002753 0.003303
v 0.004700 -0.002137 0.003731
v 0.004700 -0.001457 0.004046
v 0.004700 -0.000732 0.004237
v 0.004700 -0.001885 -0.007362
v 0.004700 -0.006364 -0.004154
v 0.004700 -0.003731 -0.002137
v 0.004700 -0.007188 -0.002469
v 0.004700 -0.004046 -0.001457
v 0.004700 -0.007573 -0.000635
v 0.004700 -0.000761 -0.004232
v 0.004700 -0.001484 -0.004036
v 0.004700 -0.003630 -0.006677
v 0.004700 -0.002162 -0.003717
v 0.004700 -0.005154 -0.005585
v 0.004700 -0.002775 -0.003285
v 0.004700 -0.003303 -0.002753
v 0.004700 -0.006967 0.003036
v 0.004700 -0.004232 0.000761
v 0.004700 -0.007498 0.001238
v 0.004700 -0.004300 0.000014
v 0.004700 -0.004237 -0.000732
v -0.004300 -0.005144 0.027772
v -0.004300 0.000368 0.025803
v -0.004300 -0.000607 0.025156
v -0.004300 -0.001261 0.024185
v -0.004300 -0.001493 0.023038
v -0.004300 -0.000621 0.020914
v -0.004300 0.000350 0.020260
v -0.004300 -0.000732 0.004237
v -0.004300 -0.001457 0.004046
v -0.004300 -0.001268 0.021889
v -0.004300 -0.002137 0.003731
v -0.004300 -0.002753 0.003303
v -0.004300 -0.003285 0.002775
v -0.004300 -0.006967 0.003036
v -0.004300 -0.006324 0.034599
v -0.004300 -0.005119 0.035289
v -0.004300 -0.006345 0.028471
v -0.004300 -0.007234 0.029538
v -0.004300 -0.007705 0.030845
v -0.004300 -0.007700 0.032234
v -0.004300 -0.007221 0.033538
v -0.004300 -0.003717 0.002162
v -0.004300 -0.004036 0.001484
v -0.004300 -0.007498 0.001238
v -0.004300 -0.004232 0.000761
v -0.004300 -0.007573 -0.000635
v -0.004300 -0.004300 0.000014
v -0.004300 -0.004237 -0.000732
v -0.004300 -0.007188 -0.002469
v -0.004300 -0.004046 -0.001457
v -0.004300 -0.006364 -0.004154
v -0.004300 -0.001885 -0.007362
v -0.004300 -0.000761 -0.004232
v -0.004300 -0.003731 -0.002137
v -0.004300 -0.003303 -0.002753
v -0.004300 -0.005154 -0.005585
v -0.004300 -0.002775 -0.003285
v -0.004300 -0.003630 -0.006677
v -0.004300 -0.002162 -0.003717
v -0.004300 -0.001484 -0.004036
v 0.004200 -0.004949 0.034819
v 0.004200 -0.006004 0.034215
v 0.004200 -0.006789 0.033286
v 0.004200 -0.007208 0.032146
v 0.004200 -0.007212 0.030930
v 0.004200 -0.006800 0.029786
v 0.004200 -0.006022 0.028853
v 0.004200 -0.004972 0.028241
v -0.003800 -0.004972 0.028241
v -0.003800 -0.006022 0.028853
v -0.003800 -0.006800 0.029786
v -0.003800 -0.007212 0.030930
v -0.003800 -0.007208 0.032146
v -0.003800 -0.006789 0.033286
v -0.003800 -0.006004 0.034215
v -0.003800 -0.004949 0.034819
v 0.004200 0.000558 0.025341
v 0.004200 -0.000255 0.024802
v 0.004200 -0.000799 0.023992
v 0.004200 -0.000993 0.023036
v 0.004200 -0.000806 0.022079
v 0.004200 -0.000266 0.021266
v 0.004200 0.000543 0.020721
v -0.003800 0.000543 0.020721
v -0.003800 -0.000266 0.021266
v -0.003800 -0.000806 0.022079
v -0.003800 -0.000993 0.023036
v -0.003800 -0.000799 0.023992
v -0.003800 -0.000255 0.024802
v -0.003800 0.000558 0.025341
v 0.008200 0.001381 0.003754
v 0.008200 0.002581 0.003056
v 0.008200 0.003471 0.001988
v 0.008200 0.003942 0.000681
v 0.008200 0.003937 -0.000708
v 0.008200 0.003457 -0.002012
v 0.008200 0.002561 -0.003073
v 0.008200 0.001355 -0.003763
v -0.007800 0.001381 0.003754
v -0.007800 0.002581 0.003056
v -0.007800 0.003471 0.001988
v -0.007800 0.003942 0.000681
v -0.007800 0.003937 -0.000708
v -0.007800 0.003457 -0.002012
v -0.007800 0.002561 -0.003073
v -0.007800 0.001355 -0.003763
v 0.004740 -0.000707 0.004089
v 0.004740 -0.001406 0.003904
v 0.004740 -0.002063 0.003601
v 0.004740 -0.002657 0.003188
v 0.004740 -0.003170 0.002678
v 0.004740 -0.003587 0.002087
v 0.004740 -0.003895 0.001432
v 0.004740 -0.004084 0.000734
v 0.004740 -0.004150 0.000014
v 0.004740 -0.004089 -0.000707
v 0.004740 -0.003904 -0.001406
v 0.004740 -0.003601 -0.002063
v 0.004740 -0.003188 -0.002657
v 0.004740 -0.002678 -0.003170
v 0.004740 -0.002087 -0.003587
v 0.004740 -0.001432 -0.003895
v 0.004740 -0.000734 -0.004084
v 0.004850 -0.000688 0.003981
v 0.004850 -0.001369 0.003801
v 0.004850 -0.002008 0.003506
v 0.004850 -0.002587 0.003104
v 0.004850 -0.003086 0.002607
v 0.004850 -0.003492 0.002032
v 0.004850 -0.003792 0.001395
v 0.004850 -0.003976 0.000715
v 0.004850 -0.004040 0.000014
v 0.004850 -0.003981 -0.000688
v 0.004850 -0.003801 -0.001369
v 0.004850 -0.003506 -0.002008
v 0.004850 -0.003104 -0.002587
v 0.004850 -0.002607 -0.003086
v 0.004850 -0.002032 -0.003492
v 0.004850 -0.001395 -0.003792
v 0.004850 -0.000715 -0.003976
v -0.004450 -0.000688 0.003981
v -0.004450 -0.001369 0.003801
v -0.004450 -0.002008 0.003506
v -0.004450 -0.002587 0.003104
v -0.004450 -0.003086 0.002607
v -0.004450 -0.003492 0.002032
v -0.004450 -0.003792 0.001395
v -0.004450 -0.003976 0.000715
v -0.004450 -0.004040 0.000014
v -0.004450 -0.003981 -0.000688
v -0.004450 -0.003801 -0.001369
v -0.004450 -0.003506 -0.002008
v -0.004450 -0.003104 -0.002587
v -0.004450 -0.002607 -0.003086
v -0.004450 -0.002032 -0.003492
v -0.004450 -0.001395 -0.003792
v -0.004450 -0.000715 -0.003976
v -0.004340 -0.000707 0.004089
v -0.004340 -0.001406 0.003904
v -0.004340 -0.002063 0.003601
v -0.004340 -0.002657 0.003188
v -0.004340 -0.003170 0.002678
v -0.004340 -0.003587 0.002087
v -0.004340 -0.003895 0.001432
v -0.004340 -0.004084 0.000734
v -0.004340 -0.004150 0.000014
v -0.004340 -0.004089 -0.000707
v -0.004340 -0.003904 -0.001406
v -0.004340 -0.003601 -0.002063
v -0.004340 -0.003188 -0.002657
v -0.004340 -0.002678 -0.003170
v -0.004340 -0.002087 -0.003587
v -0.004340 -0.001432 -0.003895
v -0.004340 -0.000734 -0.004084
vn -0.5064 -0.0029 -0.8623
vn -0.1314 -0.0034 -0.9913
vn -0.5062 0.1469 -0.8498
vn -0.1326 0.1688 -0.9767
vn -0.5064 0.2922 -0.8113
vn -0.1314 0.3359 -0.9327
vn -0.5063 0.4287 -0.7483
vn -0.1327 0.4927 -0.8600
vn -0.5064 0.5521 -0.6624
vn -0.1316 0.6347 -0.7615
vn -0.5063 0.6587 -0.5565
vn -0.1327 0.7571 -0.6397
vn -0.5064 0.7453 -0.4336
vn -0.1315 0.8568 -0.4985
vn -0.5063 0.8093 -0.2977
vn -0.1328 0.9302 -0.3421
vn -0.5064 0.8487 -0.1526
vn -0.1315 0.9757 -0.1754
vn -0.5064 0.8623 -0.0029
vn -0.1327 0.9912 -0.0034
vn -0.5062 0.8498 0.1469
vn -0.1314 0.9768 0.1689
vn -0.5064 0.8113 0.2922
vn -0.1327 0.9325 0.3359
vn -0.5064 0.7482 0.4287
vn -0.1315 0.8602 0.4928
vn -0.5063 0.6625 0.5521
vn -0.1328 0.7614 0.6345
vn -0.5063 0.5565 0.6587
vn -0.1314 0.6397 0.7573
vn -0.5064 0.4336 0.7453
vn -0.1327 0.4985 0.8567
vn -0.5063 0.2977 0.8093
vn -0.1315 0.3422 0.9304
vn -0.5064 0.1526 0.8487
vn -0.1328 0.1754 0.9755
vn -0.5064 0.0029 0.8623
vn -0.1314 0.0034 0.9913
vn -0.7070 -0.0024 -0.7072
vn -0.7071 0.1204 -0.6968
vn -0.7073 0.2396 -0.6651
vn -0.7072 0.3515 -0.6135
vn -0.7071 0.4527 -0.5432
vn -0.7071 0.5401 -0.4563
vn -0.7073 0.6110 -0.3555
vn -0.7071 0.6636 -0.2441
vn -0.7071 0.6959 -0.1251
vn -0.7069 0.7073 -0.0024
vn -0.7071 0.6968 0.1204
vn -0.7073 0.6651 0.2396
vn -0.7072 0.6135 0.3515
vn -0.7071 0.5432 0.4527
vn -0.7071 0.4563 0.5401
vn -0.7073 0.3555 0.6110
vn -0.7071 0.2441 0.6636
vn -0.7071 0.1251 0.6959
vn -0.7073 0.0023 0.7069
vn -0.9924 -0.0004 -0.1234
vn -0.9659 -0.0009 -0.2588
vn -0.9924 0.0210 -0.1215
vn -0.9659 0.0441 -0.2552
vn -0.9924 0.0418 -0.1161
vn -0.9659 0.0877 -0.2435
vn -0.9924 0.0613 -0.1070
vn -0.9659 0.1286 -0.2245
vn -0.9924 0.0789 -0.0947
vn -0.9660 0.1656 -0.1987
vn -0.9924 0.0942 -0.0796
vn -0.9659 0.1976 -0.1670
vn -0.9924 0.1066 -0.0620
vn -0.9659 0.2236 -0.1301
vn -0.9924 0.1157 -0.0426
vn -0.9660 0.2428 -0.0893
vn -0.9924 0.1214 -0.0218
vn -0.9660 0.2546 -0.0458
vn -0.9924 0.1234 -0.0004
vn -0.9659 0.2588 -0.0009
vn -0.9924 0.1215 0.0210
vn -0.9660 0.2549 0.0441
vn -0.9924 0.1161 0.0418
vn -0.9659 0.2435 0.0877
vn -0.9924 0.1070 0.0613
vn -0.9659 0.2245 0.1286
vn -0.9924 0.0947 0.0789
vn -0.9660 0.1987 0.1656
vn -0.9924 0.0796 0.0942
vn -0.9659 0.1670 0.1976
vn -0.9924 0.0620 0.1066
vn -0.9659 0.1301 0.2236
vn -0.9924 0.0426 0.1157
vn -0.9660 0.0893 0.2428
vn -0.9924 0.0218 0.1214
vn -0.9660 0.0458 0.2546
vn -0.9924 0.0004 0.1234
vn -0.9659 0.0009 0.2588
vn 0.9658 -0.0009 -0.2591
vn 0.9923 -0.0004 -0.1235
vn 0.9659 0.0441 -0.2553
vn 0.9924 0.0210 -0.1214
vn 0.9658 0.0878 -0.2438
vn 0.9923 0.0419 -0.1162
vn 0.9659 0.1286 -0.2245
vn 0.9923 0.0614 -0.1072
vn 0.9659 0.1658 -0.1990
vn 0.9923 0.0791 -0.0949
vn 0.9659 0.1979 -0.1672
vn 0.9923 0.0944 -0.0797
vn 0.9658 0.2240 -0.1303
vn 0.9923 0.1068 -0.0621
vn 0.9659 0.2431 -0.0894
vn 0.9923 0.1159 -0.0426
vn 0.9659 0.2550 -0.0458
vn 0.9923 0.1216 -0.0219
vn 0.9658 0.2591 -0.0009
vn 0.9923 0.1235 -0.0004
vn 0.9659 0.2553 0.0441
vn 0.9923 0.1217 0.0210
vn 0.9658 0.2438 0.0878
vn 0.9923 0.1162 0.0419
vn 0.9659 0.2245 0.1286
vn 0.9924 0.1069 0.0612
vn 0.9659 0.1990 0.1658
vn 0.9923 0.0949 0.0791
vn 0.9659 0.1672 0.1979
vn 0.9923 0.0797 0.0944
vn 0.9659 0.1301 0.2237
vn 0.9923 0.0621 0.1068
vn 0.9659 0.0894 0.2431
vn 0.9924 0.0425 0.1156
vn 0.9659 0.0458 0.2550
vn 0.9923 0.0219 0.1215
vn 0.9658 0.0009 0.2591
vn 0.9923 0.0004 0.1235
vn 0.5064 -0.0029 -0.8623
vn 0.7070 -0.0024 -0.7072
vn 0.5062 0.1469 -0.8498
vn 0.7071 0.1205 -0.6968
vn 0.5064 0.2922 -0.8113
vn 0.7073 0.2395 -0.6651
vn 0.5063 0.4287 -0.7482
vn 0.7072 0.3515 -0.6135
vn 0.5064 0.5520 -0.6624
vn 0.7071 0.4527 -0.5432
vn 0.5063 0.6588 -0.5565
vn 0.7071 0.5401 -0.4563
vn 0.5064 0.7453 -0.4337
vn 0.7073 0.6110 -0.3555
vn 0.5063 0.8093 -0.2977
vn 0.7071 0.6637 -0.2441
vn 0.5064 0.8487 -0.1526
vn 0.7071 0.6959 -0.1251
vn 0.5064 0.8623 -0.0029
vn 0.7073 0.7069 -0.0024
vn 0.5062 0.8498 0.1469
vn 0.7071 0.6968 0.1205
vn 0.5064 0.8113 0.2922
vn 0.7073 0.6651 0.2395
vn 0.5064 0.7482 0.4286
vn 0.7072 0.6135 0.3515
vn 0.5063 0.6625 0.5521
vn 0.7071 0.5432 0.4527
vn 0.5063 0.5565 0.6588
vn 0.7071 0.4563 0.5401
vn 0.5064 0.4337 0.7453
vn 0.7073 0.3555 0.6110
vn 0.5063 0.2977 0.8093
vn 0.7071 0.2441 0.6637
vn 0.5064 0.1526 0.8487
vn 0.7071 0.1251 0.6959
vn 0.5064 0.0029 0.8623
vn 0.7073 0.0024 0.7069
vn 0.1314 -0.0033 -0.9913
vn 0.1326 0.1688 -0.9767
vn 0.1314 0.3359 -0.9327
vn 0.1327 0.4927 -0.8600
vn 0.1316 0.6346 -0.7615
vn 0.1327 0.7571 -0.6396
vn 0.1315 0.8568 -0.4985
vn 0.1328 0.9302 -0.3421
vn 0.1315 0.9757 -0.1754
vn 0.1327 0.9912 -0.0033
vn 0.1314 0.9768 0.1689
vn 0.1327 0.9325 0.3359
vn 0.1315 0.8602 0.4927
vn 0.1328 0.7614 0.6345
vn 0.1314 0.6397 0.7573
vn 0.1327 0.4985 0.8567
vn 0.1315 0.3422 0.9304
vn 0.1328 0.1754 0.9755
vn 0.1314 0.0033 0.9913
vn -0.7071 -0.0024 -0.7071
vn -0.7072 -0.2441 -0.6636
vn -0.7071 -0.4563 -0.5401
vn -0.7071 -0.6136 -0.3515
vn -0.7071 -0.6968 -0.1204
vn -0.7071 -0.6959 0.1251
vn -0.7071 -0.6112 0.3556
vn -0.7072 -0.4526 0.5432
vn -0.7072 -0.4527 0.5431
vn -0.7071 -0.2396 0.6653
vn -0.7071 0.0024 0.7071
vn 0.7071 0.0024 0.7071
vn 0.7071 -0.2396 0.6653
vn 0.7072 -0.4527 0.5431
vn 0.7071 -0.6112 0.3556
vn 0.7071 -0.6959 0.1251
vn 0.7071 -0.6967 -0.1204
vn 0.7071 -0.6968 -0.1204
vn 0.7071 -0.6136 -0.3515
vn 0.7071 -0.4563 -0.5401
vn 0.7072 -0.2440 -0.6636
vn 0.7071 -0.0024 -0.7071
vn -1.0000 -0.0000 -0.0000
vn -0.1328 -0.1754 -0.9755
vn -0.0166 -0.0034 -0.9999
vn -0.0166 -0.3451 -0.9384
vn -0.1315 -0.3422 -0.9304
vn -0.1327 -0.4985 -0.8567
vn -0.0166 -0.6453 -0.7638
vn -0.1314 -0.6397 -0.7573
vn -0.1328 -0.7614 -0.6345
vn -0.0166 -0.8676 -0.4970
vn -0.1314 -0.8602 -0.4928
vn -0.1327 -0.9325 -0.3359
vn -0.0166 -0.9853 -0.1703
vn -0.1314 -0.9768 -0.1689
vn -0.1327 -0.9912 0.0034
vn -0.0166 -0.9841 0.1769
vn -0.1315 -0.9757 0.1754
vn -0.1328 -0.9302 0.3421
vn -0.0166 -0.8642 0.5028
vn -0.1315 -0.8568 0.4985
vn -0.1327 -0.7571 0.6396
vn -0.0166 -0.6401 0.7681
vn -0.1315 -0.6346 0.7615
vn -0.1328 -0.4927 0.8600
vn -0.0166 -0.3388 0.9407
vn -0.0166 0.0034 0.9999
vn -0.1326 -0.1688 0.9767
vn -0.1314 -0.3359 0.9327
vn 0.0166 -0.0034 -0.9999
vn 0.1328 -0.1754 -0.9755
vn 0.0166 -0.3451 -0.9384
vn 0.1315 -0.3422 -0.9304
vn 0.1327 -0.4985 -0.8567
vn 0.0166 -0.6453 -0.7638
vn 0.1314 -0.6397 -0.7573
vn 0.1328 -0.7614 -0.6345
vn 0.0166 -0.8676 -0.4970
vn 0.1314 -0.8602 -0.4928
vn 0.1327 -0.9325 -0.3359
vn 0.0166 -0.9853 -0.1703
vn 0.1318 -0.9768 -0.1688
vn 0.1327 -0.9912 0.0033
vn 0.0166 -0.9841 0.1769
vn 0.1315 -0.9757 0.1754
vn 0.1328 -0.9302 0.3421
vn 0.0166 -0.8642 0.5028
vn 0.1315 -0.8568 0.4985
vn 0.1327 -0.7571 0.6396
vn 0.0166 -0.6401 0.7681
vn 0.1315 -0.6346 0.7615
vn 0.1328 -0.4927 0.8600
vn 0.0166 -0.3388 0.9407
vn 0.1314 -0.3359 0.9327
vn 0.1326 -0.1688 0.9767
vn 0.0166 0.0034 0.9999
vn 1.0000 -0.0000 -0.0000
vn -0.7071 -0.2728 -0.6524
vn -0.7071 -0.5017 -0.4983
vn -0.7071 -0.6542 -0.2684
vn -0.7071 -0.7071 0.0024
vn -0.7071 -0.6524 0.2728
vn -0.7071 -0.4983 0.5017
vn -0.7071 -0.2684 0.6542
vn -0.0000 -0.0034 -1.0000
vn -0.0000 -0.3858 -0.9226
vn -0.0000 -0.7095 -0.7047
vn -0.0000 -0.9252 -0.3796
vn -0.0000 -1.0000 0.0034
vn -0.0000 -0.9226 0.3858
vn -0.0000 -0.7047 0.7095
vn -0.0000 -0.3796 0.9252
vn -0.0000 0.0034 1.0000
vn 0.7071 -0.2684 0.6542
vn 0.7071 -0.4983 0.5017
vn 0.7071 -0.6523 0.2728
vn 0.7072 -0.6523 0.2728
vn 0.7072 -0.7071 0.0024
vn 0.7071 -0.7071 0.0024
vn 0.7071 -0.6542 -0.2684
vn 0.7071 -0.5017 -0.4983
vn 0.7072 -0.2728 -0.6523
vn 0.7071 -0.2728 -0.6523
vn -0.7071 -0.2441 -0.6637
vn -0.7071 -0.4564 -0.5402
vn -0.7071 -0.6968 -0.1205
vn -0.7071 -0.6960 0.1251
vn -0.7071 -0.4527 0.5432
vn -0.0000 -0.3452 -0.9385
vn -0.0000 -0.6454 -0.7639
vn -0.0000 -0.8677 -0.4971
vn -0.0000 -0.9854 -0.1703
vn -0.0000 -0.9842 0.1770
vn -0.0000 -0.8643 0.5029
vn -0.0000 -0.6402 0.7682
vn -0.0000 -0.3389 0.9408
vn 0.7072 -0.2396 0.6652
vn 0.7071 -0.4527 0.5432
vn 0.7071 -0.6135 -0.3515
vn 0.7071 -0.2441 -0.6636
vn -0.0000 0.7973 0.6035
vn -0.0000 0.8501 0.5266
vn -0.0000 0.9498 0.3127
vn -0.0000 0.9967 0.0814
vn -0.0000 0.9880 -0.1544
vn -0.0000 0.9243 -0.3816
vn -0.0000 0.8092 -0.5876
vn -0.0000 0.6490 -0.7608
vn -0.0000 0.4526 -0.8917
vn -0.0000 0.2311 -0.9729
vn -0.0000 -0.0060 -1.0000
vn -0.0000 0.9795 0.2015
vn -0.0000 0.8983 0.4394
vn -0.0000 0.9995 0.0316
vn -0.0000 0.9995 0.0315
vn -0.0000 0.8814 -0.4724
vn -0.0000 0.9736 -0.2282
vn -0.0000 0.8934 -0.4492
vn -0.0000 -0.0054 1.0000
vn -0.0000 0.3288 0.9444
vn -0.0000 0.7095 0.7047
vn -0.0000 0.9466 0.3224
vn -0.0000 0.9921 -0.1252
vn -0.0000 -0.0881 0.9961
vn -0.0000 0.9782 0.2078
vn -0.0000 0.8865 0.4626
vn -0.0000 0.6651 0.7467
vn -0.0000 0.3574 0.9339
vn -0.0000 0.0633 0.9980
vn -0.0000 0.9819 0.1892
vn -0.0000 -0.8504 -0.5261
vn -0.0000 -0.9164 -0.4002
vn -0.0000 -0.9921 -0.1252
vn -0.0000 -0.9871 0.1600
vn -0.0000 -0.9018 0.4322
vn -0.0000 -0.7431 0.6692
vn -0.0000 -0.5239 0.8518
vn -0.0000 -0.2622 0.9650
vn -0.0000 0.0209 0.9998
vn -0.0000 0.3024 0.9532
vn -0.0000 0.3023 0.9532
vn -0.0000 0.5592 0.8291
vn -0.0000 0.7705 0.6375
vn -0.0000 0.9191 0.3940
vn -0.0000 -0.9818 -0.1901
vn -0.0000 -0.9178 -0.3971
vn -0.0000 -0.9998 -0.0217
vn -0.0000 -0.8779 0.4788
vn -0.0000 -0.9638 0.2665
vn -0.0000 -0.9639 0.2664
vn 0.9923 -0.1159 0.0426
vn 0.9923 -0.1068 0.0621
vn 0.9924 -0.0941 0.0795
vn 0.9923 -0.0791 0.0949
vn 0.9923 -0.0614 0.1072
vn 0.9923 -0.0419 0.1162
vn 0.9924 -0.0210 0.1214
vn 0.9923 -0.1072 -0.0614
vn 0.9924 -0.1159 -0.0417
vn 0.9923 -0.0219 -0.1215
vn 0.9923 -0.0426 -0.1159
vn 0.9923 -0.0621 -0.1068
vn 0.9923 -0.0797 -0.0944
vn 0.9923 -0.0949 -0.0791
vn 0.9923 -0.1216 0.0219
vn 0.9923 -0.1235 0.0004
vn 0.9923 -0.1217 -0.0210
vn -0.9924 -0.0210 0.1215
vn -0.9924 -0.0418 0.1161
vn -0.9924 -0.0613 0.1070
vn -0.9924 -0.0789 0.0947
vn -0.9924 -0.0942 0.0796
vn -0.9924 -0.1066 0.0620
vn -0.9924 -0.1157 0.0426
vn -0.9924 -0.1214 0.0218
vn -0.9924 -0.1234 0.0004
vn -0.9924 -0.1215 -0.0210
vn -0.9924 -0.1161 -0.0418
vn -0.9924 -0.0218 -0.1214
vn -0.9924 -0.1070 -0.0613
vn -0.9924 -0.0947 -0.0789
vn -0.9924 -0.0796 -0.0942
vn -0.9924 -0.0620 -0.1066
vn -0.9924 -0.0426 -0.1157
vn -0.0000 -0.2480 -0.9687
vn -0.0000 -0.4776 -0.8786
vn -0.0000 -0.6782 -0.7349
vn -0.0000 -0.8374 -0.5465
vn -0.0000 -0.8374 -0.5466
vn -0.0000 -0.9457 -0.3249
vn -0.0000 -0.9965 -0.0835
vn -0.0000 -0.9866 0.1630
vn -0.0000 -0.9866 0.1629
vn -0.0000 -0.9167 0.3995
vn 0.7071 0.2396 -0.6653
vn 0.7071 0.6112 -0.3556
vn 0.7071 0.6968 0.1204
vn 0.7071 0.6136 0.3515
vn 0.7071 0.2441 0.6636
vn -0.0000 0.3452 0.9385
vn -0.0000 0.6454 0.7639
vn -0.0000 0.8677 0.4971
vn -0.0000 0.9854 0.1703
vn -0.0000 0.9842 -0.1770
vn -0.0000 0.8643 -0.5029
vn -0.0000 0.6402 -0.7682
vn -0.0000 0.3389 -0.9408
vn -0.7071 0.2441 0.6637
vn -0.7071 0.4564 0.5402
vn -0.7071 0.4563 0.5402
vn -0.7071 0.6136 0.3515
vn -0.7071 0.6968 0.1205
vn -0.7071 0.6960 -0.1251
vn -0.7071 0.6112 -0.3556
vn -0.7071 0.2396 -0.6653
vn 0.7071 0.2684 -0.6542
vn 0.7071 0.4983 -0.5017
vn 0.7071 0.6524 -0.2728
vn 0.7071 0.7071 -0.0024
vn 0.7071 0.6542 0.2684
vn 0.7071 0.5017 0.4983
vn 0.7071 0.2728 0.6524
vn 0.7071 0.2728 0.6523
vn -0.0000 0.3858 0.9226
vn -0.0000 0.9252 0.3796
vn -0.0000 1.0000 -0.0034
vn -0.0000 0.9226 -0.3858
vn -0.0000 0.7047 -0.7095
vn -0.0000 0.3796 -0.9252
vn -0.7071 0.2728 0.6524
vn -0.7071 0.5017 0.4983
vn -0.7071 0.6542 0.2684
vn -0.7071 0.7071 -0.0024
vn -0.7071 0.6524 -0.2728
vn -0.7071 0.4983 -0.5017
vn -0.7071 0.2684 -0.6542
vn 0.0166 0.3451 0.9384
vn 0.0166 0.6453 0.7638
vn 0.0166 0.8676 0.4970
vn 0.0166 0.9852 0.1703
vn 0.0166 0.9841 -0.1769
vn 0.0166 0.8642 -0.5028
vn 0.0166 0.6401 -0.7681
vn 0.0166 0.3388 -0.9407
vn -0.0166 0.3451 0.9384
vn -0.0166 0.6453 0.7638
vn -0.0166 0.8676 0.4970
vn -0.0166 0.9852 0.1703
vn -0.0166 0.9841 -0.1769
vn -0.0166 0.8642 -0.5028
vn -0.0166 0.6401 -0.7681
vn -0.0166 0.3388 -0.9407
vn 0.7071 0.6967 0.1204
vn 0.7071 0.6135 0.3515
vn 0.7072 0.2440 0.6636
vn -0.7072 0.2441 0.6636
vn -0.7071 0.6135 0.3515
vn -0.7071 0.6967 0.1204
vn 0.9659 -0.0441 0.2553
vn 0.9658 -0.0878 0.2438
vn 0.9659 -0.1286 0.2246
vn 0.9659 -0.1658 0.1990
vn 0.9659 -0.1979 0.1672
vn 0.9658 -0.2240 0.1303
vn 0.9659 -0.2431 0.0894
vn 0.9659 -0.2550 0.0458
vn 0.9658 -0.2591 0.0009
vn 0.9659 -0.2553 -0.0441
vn 0.9658 -0.2438 -0.0878
vn 0.9658 -0.2248 -0.1288
vn 0.9659 -0.1990 -0.1658
vn 0.9659 -0.1672 -0.1979
vn 0.9658 -0.1303 -0.2240
vn 0.9660 -0.0893 -0.2428
vn 0.9659 -0.0458 -0.2550
vn 0.5062 -0.1469 0.8498
vn 0.7071 -0.1205 0.6968
vn 0.5064 -0.2922 0.8113
vn 0.7073 -0.2395 0.6651
vn 0.5064 -0.4286 0.7482
vn 0.7072 -0.3515 0.6135
vn 0.5063 -0.5521 0.6625
vn 0.5063 -0.6588 0.5565
vn 0.7071 -0.5401 0.4563
vn 0.5064 -0.7453 0.4337
vn 0.7073 -0.6110 0.3555
vn 0.5063 -0.8093 0.2977
vn 0.7071 -0.6637 0.2441
vn 0.5064 -0.8487 0.1526
vn 0.5064 -0.8623 0.0029
vn 0.7070 -0.7072 0.0024
vn 0.5062 -0.8498 -0.1469
vn 0.7071 -0.6968 -0.1205
vn 0.5064 -0.8113 -0.2922
vn 0.7073 -0.6651 -0.2395
vn 0.5063 -0.7483 -0.4287
vn 0.7072 -0.6135 -0.3515
vn 0.5063 -0.6625 -0.5521
vn 0.7071 -0.5432 -0.4527
vn 0.5063 -0.5565 -0.6588
vn 0.5064 -0.4337 -0.7453
vn 0.7071 -0.3556 -0.6112
vn 0.5063 -0.2977 -0.8093
vn 0.7071 -0.2441 -0.6637
vn 0.5064 -0.1526 -0.8487
vn 0.7071 -0.1251 -0.6959
vn -0.5062 -0.1469 0.8498
vn -0.5064 -0.2922 0.8113
vn -0.5064 -0.4287 0.7482
vn -0.5063 -0.5521 0.6625
vn -0.5063 -0.6587 0.5565
vn -0.5064 -0.7453 0.4336
vn -0.5063 -0.8093 0.2977
vn -0.5064 -0.8487 0.1526
vn -0.5064 -0.8623 0.0029
vn -0.5062 -0.8498 -0.1469
vn -0.5064 -0.8113 -0.2922
vn -0.5063 -0.7483 -0.4287
vn -0.5063 -0.6625 -0.5521
vn -0.5063 -0.5565 -0.6587
vn -0.5064 -0.4336 -0.7453
vn -0.5063 -0.2977 -0.8093
vn -0.5064 -0.1526 -0.8487
vn -0.7071 -0.1204 0.6968
vn -0.7073 -0.2396 0.6651
vn -0.7072 -0.3515 0.6135
vn -0.7071 -0.5401 0.4563
vn -0.7073 -0.6110 0.3555
vn -0.7071 -0.6636 0.2441
vn -0.7070 -0.7072 0.0024
vn -0.7073 -0.6651 -0.2396
vn -0.7072 -0.6135 -0.3515
vn -0.7071 -0.5432 -0.4527
vn -0.7073 -0.3555 -0.6110
vn -0.7071 -0.2441 -0.6636
vn -0.7071 -0.1251 -0.6959
vn -0.9660 -0.0441 0.2549
vn -0.9659 -0.0877 0.2435
vn -0.9659 -0.1286 0.2245
vn -0.9660 -0.1656 0.1987
vn -0.9659 -0.1976 0.1670
vn -0.9659 -0.2236 0.1301
vn -0.9659 -0.2431 0.0894
vn -0.9660 -0.2546 0.0458
vn -0.9659 -0.2588 0.0009
vn -0.9660 -0.2549 -0.0441
vn -0.9659 -0.2435 -0.0877
vn -0.9659 -0.2245 -0.1286
vn -0.9660 -0.1987 -0.1656
vn -0.9659 -0.1670 -0.1976
vn -0.9659 -0.1301 -0.2236
vn -0.9660 -0.0893 -0.2428
vn -0.9660 -0.0458 -0.2546
s 1
usemtl grey.006
f 1//1 2//2 3//3
f 3//3 2//2 4//4
f 3//3 4//4 5//5
f 5//5 4//4 6//6
f 5//5 6//6 7//7
f 7//7 6//6 8//8
f 7//7 8//8 9//9
f 9//9 8//8 10//10
f 9//9 10//10 11//11
f 11//11 10//10 12//12
f 11//11 12//12 13//13
f 13//13 12//12 14//14
f 13//13 14//14 15//15
f 15//15 14//14 16//16
f 15//15 16//16 17//17
f 17//17 16//16 18//18
f 17//17 18//18 19//19
f 19//19 18//18 20//20
f 19//19 20//20 21//21
f 21//21 20//20 22//22
f 21//21 22//22 23//23
f 23//23 22//22 24//24
f 23//23 24//24 25//25
f 25//25 24//24 26//26
f 25//25 26//26 27//27
f 27//27 26//26 28//28
f 27//27 28//28 29//29
f 29//29 28//28 30//30
f 29//29 30//30 31//31
f 31//31 30//30 32//32
f 31//31 32//32 33//33
f 33//33 32//32 34//34
f 33//33 34//34 35//35
f 35//35 34//34 36//36
f 35//35 36//36 37//37
f 37//37 36//36 38//38
f 39//39 1//1 40//40
f 40//40 1//1 3//3
f 40//40 3//3 41//41
f 41//41 3//3 5//5
f 41//41 5//5 42//42
f 42//42 5//5 7//7
f 42//42 7//7 43//43
f 43//43 7//7 9//9
f 43//43 9//9 44//44
f 44//44 9//9 11//11
f 44//44 11//11 45//45
f 45//45 11//11 13//13
f 45//45 13//13 46//46
f 46//46 13//13 15//15
f 46//46 15//15 47//47
f 47//47 15//15 17//17
f 47//47 17//17 48//48
f 48//48 17//17 19//19
f 48//48 19//19 49//49
f 49//49 19//19 21//21
f 49//49 21//21 50//50
f 50//50 21//21 23//23
f 50//50 23//23 51//51
f 51//51 23//23 25//25
f 51//51 25//25 52//52
f 52//52 25//25 27//27
f 52//52 27//27 53//53
f 53//53 27//27 29//29
f 53//53 29//29 54//54
f 54//54 29//29 31//31
f 54//54 31//31 55//55
f 55//55 31//31 33//33
f 55//55 33//33 56//56
f 56//56 33//33 35//35
f 56//56 35//35 57//57
f 57//57 35//35 37//37
f 58//58 39//59 59//60
f 59//60 39//59 40//61
f 59//60 40//61 60//62
f 60//62 40//61 41//63
f 60//62 41//63 61//64
f 61//64 41//63 42//65
f 61//64 42//65 62//66
f 62//66 42//65 43//67
f 62//66 43//67 63//68
f 63//68 43//67 44//69
f 63//68 44//69 64//70
f 64//70 44//69 45//71
f 64//70 45//71 65//72
f 65//72 45//71 46//73
f 65//72 46//73 66//74
f 66//74 46//73 47//75
f 66//74 47//75 67//76
f 67//76 47//75 48//77
f 67//76 48//77 68//78
f 68//78 48//77 49//79
f 68//78 49//79 69//80
f 69//80 49//79 50//81
f 69//80 50//81 70//82
f 70//82 50//81 51//83
f 70//82 51//83 71//84
f 71//84 51//83 52//85
f 71//84 52//85 72//86
f 72//86 52//85 53//87
f 72//86 53//87 73//88
f 73//88 53//87 54//89
f 73//88 54//89 74//90
f 74//90 54//89 55//91
f 74//90 55//91 75//92
f 75//92 55//91 56//93
f 75//92 56//93 76//94
f 76//94 56//93 57//95
f 77//96 78//97 79//98
f 79//98 78//97 80//99
f 79//98 80//99 81//100
f 81//100 80//99 82//101
f 81//100 82//101 83//102
f 83//102 82//101 84//103
f 83//102 84//103 85//104
f 85//104 84//103 86//105
f 85//104 86//105 87//106
f 87//106 86//105 88//107
f 87//106 88//107 89//108
f 89//108 88//107 90//109
f 89//108 90//109 91//110
f 91//110 90//109 92//111
f 91//110 92//111 93//112
f 93//112 92//111 94//113
f 93//112 94//113 95//114
f 95//114 94//113 96//115
f 95//114 96//115 97//116
f 97//116 96//115 98//117
f 97//116 98//117 99//118
f 99//118 98//117 100//119
f 99//118 100//119 101//120
f 101//120 100//119 102//121
f 101//120 102//121 103//122
f 103//122 102//121 104//123
f 103//122 104//123 105//124
f 105//124 104//123 106//125
f 105//124 106//125 107//126
f 107//126 106//125 108//127
f 107//126 108//127 109//128
f 109//128 108//127 110//129
f 109//128 110//129 111//130
f 111//130 110//129 112//131
f 111//130 112//131 113//132
f 113//132 112//131 114//133
f 115//134 77//135 116//136
f 116//136 77//135 79//137
f 116//136 79//137 117//138
f 117//138 79//137 81//139
f 117//138 81//139 118//140
f 118//140 81//139 83//141
f 118//140 83//141 119//142
f 119//142 83//141 85//143
f 119//142 85//143 120//144
f 120//144 85//143 87//145
f 120//144 87//145 121//146
f 121//146 87//145 89//147
f 121//146 89//147 122//148
f 122//148 89//147 91//149
f 122//148 91//149 123//150
f 123//150 91//149 93//151
f 123//150 93//151 124//152
f 124//152 93//151 95//153
f 124//152 95//153 125//154
f 125//154 95//153 97//155
f 125//154 97//155 126//156
f 126//156 97//155 99//157
f 126//156 99//157 127//158
f 127//158 99//157 101//159
f 127//158 101//159 128//160
f 128//160 101//159 103//161
f 128//160 103//161 129//162
f 129//162 103//161 105//163
f 129//162 105//163 130//164
f 130//164 105//163 107//165
f 130//164 107//165 131//166
f 131//166 107//165 109//167
f 131//166 109//167 132//168
f 132//168 109//167 111//169
f 132//168 111//169 133//170
f 133//170 111//169 113//171
f 134//172 115//134 135//173
f 135//173 115//134 116//136
f 135//173 116//136 136//174
f 136//174 116//136 117//138
f 136//174 117//138 137//175
f 137//175 117//138 118//140
f 137//175 118//140 138//176
f 138//176 118//140 119//142
f 138//176 119//142 139//177
f 139//177 119//142 120//144
f 139//177 120//144 140//178
f 140//178 120//144 121//146
f 140//178 121//146 141//179
f 141//179 121//146 122//148
f 141//179 122//148 142//180
f 142//180 122//148 123//150
f 142//180 123//150 143//181
f 143//181 123//150 124//152
f 143//181 124//152 144//182
f 144//182 124//152 125//154
f 144//182 125//154 145//183
f 145//183 125//154 126//156
f 145//183 126//156 146//184
f 146//184 126//156 127//158
f 146//184 127//158 147//185
f 147//185 127//158 128//160
f 147//185 128//160 148//186
f 148//186 128//160 129//162
f 148//186 129//162 149//187
f 149//187 129//162 130//164
f 149//187 130//164 150//188
f 150//188 130//164 131//166
f 150//188 131//166 151//189
f 151//189 131//166 132//168
f 151//189 132//168 152//190
f 152//190 132//168 133//170
f 153//191 154//191 155//192
f 153//191 155//192 156//192
f 156//192 155//192 157//193
f 156//192 157//193 158//193
f 158//193 157//193 159//194
f 158//193 159//194 160//194
f 160//194 159//194 161//195
f 160//194 161//195 162//195
f 162//195 161//195 163//196
f 162//195 163//196 164//196
f 164//196 163//196 165//197
f 164//196 165//197 166//197
f 166//197 165//197 167//198
f 166//197 167//198 168//199
f 168//199 167//198 169//200
f 168//199 169//200 170//200
f 170//200 169//200 171//201
f 170//200 171//201 172//201
f 173//202 174//202 175//203
f 173//202 175//203 176//203
f 176//203 175//203 177//204
f 176//203 177//204 178//204
f 178//204 177//204 179//205
f 178//204 179//205 180//205
f 180//205 179//205 181//206
f 180//205 181//206 182//206
f 182//206 181//206 183//207
f 182//206 183//207 184//208
f 184//208 183//207 185//209
f 184//208 185//209 186//209
f 186//209 185//209 187//210
f 186//209 187//210 188//210
f 188//210 187//210 189//211
f 188//210 189//211 190//211
f 190//211 189//211 191//212
f 190//211 191//212 192//212
s 0
f 164//213 166//213 168//213
f 193//213 194//213 195//213
f 196//213 197//213 198//213
f 195//213 168//213 170//213
f 198//213 193//213 196//213
f 196//213 193//213 195//213
f 196//213 195//213 199//213
f 199//213 195//213 170//213
f 199//213 170//213 172//213
f 195//213 200//213 168//213
f 168//213 200//213 153//213
f 168//213 153//213 156//213
f 162//213 164//213 160//213
f 160//213 164//213 168//213
f 160//213 168//213 158//213
f 158//213 168//213 156//213
s 1
f 2//2 201//214 154//215
f 154//215 201//214 155//216
f 201//214 202//217 155//216
f 155//216 202//217 203//218
f 155//216 203//218 157//219
f 203//218 204//220 157//219
f 157//219 204//220 205//221
f 157//219 205//221 159//222
f 205//221 206//223 159//222
f 159//222 206//223 207//224
f 159//222 207//224 161//225
f 207//224 208//226 161//225
f 161//225 208//226 209//227
f 161//225 209//227 163//228
f 209//227 210//229 163//228
f 163//228 210//229 211//230
f 163//228 211//230 165//231
f 211//230 212//232 165//231
f 165//231 212//232 213//233
f 165//231 213//233 167//234
f 213//233 214//235 167//234
f 167//234 214//235 215//236
f 167//234 215//236 169//237
f 38//38 171//238 216//239
f 216//239 171//238 169//237
f 216//239 169//237 217//240
f 217//240 169//237 215//236
f 134//172 191//241 218//242
f 218//242 191//241 189//243
f 218//242 189//243 219//244
f 219//244 189//243 220//245
f 220//245 189//243 187//246
f 220//245 187//246 221//247
f 221//247 187//246 222//248
f 222//248 187//246 185//249
f 222//248 185//249 223//250
f 223//250 185//249 224//251
f 224//251 185//249 183//252
f 224//251 183//252 225//253
f 225//253 183//252 226//254
f 226//254 183//252 181//255
f 226//254 181//255 227//256
f 227//256 181//255 228//257
f 228//257 181//255 179//258
f 228//257 179//258 229//259
f 229//259 179//258 230//260
f 230//260 179//258 177//261
f 230//260 177//261 231//262
f 231//262 177//261 232//263
f 232//263 177//261 175//264
f 232//263 175//264 233//265
f 233//265 175//264 234//266
f 234//266 175//264 174//267
f 234//266 174//267 152//190
s 0
f 192//268 180//268 182//268
f 235//268 236//268 237//268
f 173//268 176//268 192//268
f 192//268 176//268 178//268
f 192//268 178//268 180//268
f 235//268 238//268 192//268
f 192//268 238//268 239//268
f 192//268 239//268 173//268
f 237//268 240//268 241//268
f 188//268 190//268 186//268
f 186//268 190//268 192//268
f 186//268 192//268 184//268
f 184//268 192//268 182//268
f 235//268 237//268 238//268
f 238//268 237//268 241//268
f 238//268 241//268 242//268
s 1
f 243//191 244//191 245//269
f 245//269 244//191 246//269
f 245//269 246//269 247//270
f 247//270 246//269 248//270
f 247//270 248//270 249//271
f 249//271 248//270 250//271
f 249//271 250//271 251//272
f 251//272 250//271 252//272
f 251//272 252//272 253//273
f 253//273 252//272 254//273
f 253//273 254//273 255//274
f 255//274 254//273 256//274
f 255//274 256//274 257//275
f 257//275 256//274 258//275
f 257//275 258//275 259//201
f 259//201 258//275 260//201
f 261//276 243//276 262//277
f 262//277 243//276 245//277
f 262//277 245//277 263//278
f 263//278 245//277 247//278
f 263//278 247//278 264//279
f 264//279 247//278 249//279
f 264//279 249//279 265//280
f 265//280 249//279 251//280
f 265//280 251//280 266//281
f 266//281 251//280 253//281
f 266//281 253//281 267//282
f 267//282 253//281 255//282
f 267//282 255//282 268//283
f 268//283 255//282 257//283
f 268//283 257//283 269//284
f 269//284 257//283 259//284
f 269//202 270//202 268//285
f 268//285 270//202 271//285
f 268//285 271//285 267//286
f 267//286 271//285 272//286
f 267//286 272//286 266//287
f 266//287 272//286 273//288
f 266//287 273//288 265//289
f 265//289 273//288 274//290
f 265//289 274//290 264//291
f 264//291 274//290 275//291
f 264//291 275//291 263//292
f 263//292 275//291 276//292
f 263//292 276//292 262//293
f 262//293 276//292 277//294
f 262//293 277//294 261//212
f 261//212 277//294 278//212
f 279//191 280//191 281//295
f 281//295 280//191 282//295
f 281//295 282//295 283//296
f 283//296 282//295 284//296
f 283//296 284//296 285//194
f 285//194 284//296 286//194
f 285//194 286//194 287//195
f 287//195 286//194 288//297
f 287//195 288//297 289//298
f 289//298 288//297 290//298
f 289//298 290//298 291//197
f 291//197 290//298 292//197
f 291//197 292//197 293//299
f 293//299 292//197 294//299
f 293//299 294//299 295//200
f 295//200 294//299 296//200
f 295//200 296//200 297//201
f 297//201 296//200 298//201
f 299//276 279//276 300//300
f 300//300 279//276 281//300
f 300//300 281//300 301//301
f 301//301 281//300 283//301
f 301//301 283//301 302//302
f 302//302 283//301 285//302
f 302//302 285//302 303//303
f 303//303 285//302 287//303
f 303//303 287//303 304//304
f 304//304 287//303 289//304
f 304//304 289//304 305//305
f 305//305 289//304 291//305
f 305//305 291//305 306//306
f 306//306 291//305 293//306
f 306//306 293//306 307//307
f 307//307 293//306 295//307
f 307//307 295//307 308//284
f 308//284 295//307 297//284
f 308//202 309//202 307//308
f 307//308 309//202 310//308
f 307//308 310//308 306//309
f 306//309 310//308 311//309
f 306//309 311//309 305//205
f 305//205 311//309 312//205
f 305//205 312//205 304//206
f 304//206 312//205 313//206
f 304//206 313//206 303//207
f 303//207 313//206 314//207
f 303//207 314//207 302//310
f 302//310 314//207 315//310
f 302//310 315//310 301//210
f 301//210 315//310 316//210
f 301//210 316//210 300//311
f 300//311 316//210 317//311
f 300//311 317//311 299//212
f 299//212 317//311 318//212
f 319//312 320//312 321//313
f 319//312 321//313 322//313
f 322//313 321//313 323//314
f 322//313 323//314 324//314
f 324//314 323//314 325//315
f 324//314 325//315 326//315
f 326//315 325//315 327//316
f 326//315 327//316 328//316
f 328//316 327//316 329//317
f 328//316 329//317 330//317
f 330//317 329//317 331//318
f 330//317 331//318 332//318
f 332//318 331//318 333//319
f 332//318 333//319 334//319
f 334//319 333//319 335//320
f 334//319 335//320 336//320
f 336//320 335//320 337//321
f 336//320 337//321 338//321
f 338//321 337//321 339//322
f 338//321 339//322 340//322
f 341//323 342//323 343//324
f 343//324 342//323 344//324
f 343//324 344//324 319//312
f 319//312 344//324 320//312
f 341//323 345//325 342//323
f 342//323 345//326 346//326
f 347//327 348//327 349//328
f 349//328 348//327 350//328
f 349//328 350//328 345//326
f 345//326 350//328 346//326
f 347//327 351//329 348//327
f 348//327 351//329 352//329
f 353//330 354//330 355//331
f 353//330 355//331 356//331
f 356//331 355//331 357//332
f 356//331 357//332 358//332
f 358//332 357//332 359//333
f 358//332 359//333 360//333
f 360//333 359//333 361//334
f 360//333 361//334 362//334
f 362//334 361//334 352//329
f 362//334 352//329 351//329
f 353//330 363//335 354//330
f 354//330 363//335 364//335
f 365//336 366//336 367//337
f 367//337 366//336 368//337
f 367//337 368//337 369//338
f 369//338 368//337 370//338
f 369//338 370//338 371//339
f 371//339 370//338 372//339
f 371//339 372//339 373//340
f 373//340 372//339 374//340
f 365//336 375//341 366//336
f 366//336 375//341 376//341
f 377//342 378//342 379//343
f 377//342 379//343 380//343
f 380//343 379//343 381//344
f 380//343 381//344 382//344
f 382//344 381//344 383//345
f 382//344 383//345 384//345
f 384//345 383//345 385//346
f 384//345 385//346 386//346
f 386//346 385//346 387//347
f 386//346 387//347 388//347
f 388//347 387//347 389//348
f 388//347 389//348 390//348
f 390//348 389//348 391//349
f 390//348 391//349 392//349
f 392//349 391//349 393//350
f 392//349 393//350 394//350
f 394//350 393//350 395//351
f 394//350 395//351 396//352
f 396//352 395//351 397//353
f 396//352 397//353 398//353
f 398//353 397//353 399//354
f 398//353 399//354 400//354
f 400//354 399//354 401//355
f 400//354 401//355 402//355
f 402//355 401//355 376//341
f 402//355 376//341 375//341
f 403//356 404//356 405//357
f 405//357 404//356 406//357
f 405//357 406//357 377//342
f 377//342 406//357 378//342
f 403//356 407//358 404//356
f 404//356 407//358 408//358
f 409//359 410//359 411//360
f 411//360 410//359 412//360
f 411//361 412//361 407//358
f 407//358 412//361 408//358
s 0
f 413//268 414//268 313//268
f 313//268 414//268 314//268
f 415//268 406//268 416//268
f 416//268 406//268 404//268
f 416//268 404//268 417//268
f 417//268 404//268 408//268
f 417//268 408//268 418//268
f 418//268 408//268 419//268
f 368//268 278//268 370//268
f 370//268 278//268 277//268
f 370//268 277//268 372//268
f 372//268 277//268 276//268
f 313//268 312//268 413//268
f 413//268 312//268 311//268
f 413//268 311//268 415//268
f 368//268 366//268 278//268
f 278//268 366//268 376//268
f 278//268 376//268 401//268
f 275//268 357//268 355//268
f 270//268 342//268 271//268
f 271//268 342//268 346//268
f 271//268 346//268 272//268
f 420//268 389//268 421//268
f 421//268 389//268 387//268
f 421//268 387//268 422//268
f 422//268 387//268 385//268
f 422//268 385//268 423//268
f 423//268 385//268 383//268
f 423//268 383//268 424//268
f 424//268 383//268 381//268
f 424//268 381//268 425//268
f 425//268 381//268 379//268
f 425//268 379//268 426//268
f 426//268 379//268 378//268
f 426//268 378//268 406//268
f 355//268 354//268 275//268
f 275//268 354//268 364//268
f 275//268 364//268 276//268
f 276//268 364//268 374//268
f 276//268 374//268 372//268
f 352//268 361//268 275//268
f 275//268 361//268 359//268
f 275//268 359//268 357//268
f 311//268 310//268 415//268
f 415//268 310//268 309//268
f 415//268 309//268 406//268
f 406//268 309//268 427//268
f 406//268 427//268 426//268
f 414//268 278//268 314//268
f 314//268 278//268 401//268
f 314//268 401//268 315//268
f 315//268 401//268 399//268
f 315//268 399//268 316//268
f 316//268 399//268 397//268
f 316//268 397//268 317//268
f 317//268 397//268 395//268
f 317//268 395//268 318//268
f 318//268 395//268 393//268
f 318//268 393//268 420//268
f 420//268 393//268 391//268
f 420//268 391//268 389//268
f 275//268 274//268 352//268
f 352//268 274//268 273//268
f 352//268 273//268 348//268
f 348//268 273//268 272//268
f 348//268 272//268 350//268
f 350//268 272//268 346//268
f 408//268 412//268 419//268
s 1
f 419//268 412//268 428//362
f 419//268 428//362 270//268
f 270//268 428//362 429//363
f 270//268 429//363 430//364
f 112//131 110//129 344//268
f 112//131 344//268 114//133
f 430//364 431//365 270//268
f 270//268 431//365 432//366
f 270//268 432//366 342//268
f 342//268 432//366 433//367
f 342//268 433//367 344//268
f 344//268 433//367 434//368
f 344//268 434//368 114//133
f 337//268 80//99 339//268
f 339//268 80//99 78//97
f 339//268 78//97 435//268
f 436//268 437//369 438//268
f 438//268 437//369 439//370
f 438//268 439//370 440//268
f 110//129 108//127 344//268
f 344//268 108//127 106//125
f 344//268 106//125 320//268
f 320//268 106//125 104//123
f 320//268 104//123 321//268
f 321//268 104//123 102//121
f 321//268 102//121 323//268
f 323//268 102//121 100//119
f 323//268 100//119 325//268
f 100//119 98//117 325//268
f 325//268 98//117 96//115
f 325//268 96//115 327//268
f 327//268 96//115 94//113
f 327//268 94//113 329//268
f 329//268 94//113 92//111
f 329//268 92//111 331//268
f 78//97 441//371 435//268
f 435//268 441//371 442//372
f 435//268 442//372 443//268
f 443//268 442//372 444//373
f 443//268 444//373 445//268
f 445//268 444//373 446//374
f 445//268 446//374 436//268
f 436//268 446//374 447//375
f 436//268 447//375 437//369
f 412//268 410//268 428//362
f 428//362 410//268 448//268
f 428//362 448//268 449//376
f 449//376 448//268 450//268
f 449//376 450//268 451//377
f 451//377 450//268 440//268
f 451//377 440//268 452//378
f 452//378 440//268 439//370
f 92//111 90//109 331//268
f 331//268 90//109 88//107
f 331//268 88//107 333//268
f 333//268 88//107 86//105
f 333//268 86//105 335//268
f 335//268 86//105 84//103
f 335//268 84//103 337//268
f 337//268 84//103 82//101
f 337//268 82//101 80//99
s 0
f 347//213 258//213 256//213
f 250//213 248//213 373//213
f 347//213 256//213 351//213
f 292//213 290//213 244//213
f 358//213 360//213 250//213
f 250//213 360//213 362//213
f 250//213 362//213 252//213
f 252//213 362//213 351//213
f 252//213 351//213 254//213
f 254//213 351//213 256//213
f 356//213 358//213 353//213
f 353//213 358//213 250//213
f 353//213 250//213 363//213
f 363//213 250//213 373//213
f 453//213 454//213 455//213
f 405//213 456//213 403//213
f 403//213 456//213 457//213
f 403//213 457//213 407//213
f 345//213 458//213 349//213
f 349//213 458//213 459//213
f 349//213 459//213 347//213
f 347//213 459//213 260//213
f 347//213 260//213 258//213
f 453//213 298//213 454//213
f 454//213 298//213 296//213
f 454//213 296//213 244//213
f 244//213 296//213 294//213
f 244//213 294//213 292//213
s 1
f 458//213 460//379 461//380
f 343//213 319//213 67//76
f 67//76 319//213 322//213
s 0
f 457//213 462//213 407//213
f 407//213 462//213 458//213
f 407//213 458//213 411//213
s 1
f 411//213 458//213 461//380
s 0
f 284//213 400//213 286//213
f 286//213 400//213 402//213
f 286//213 402//213 288//213
f 288//213 402//213 375//213
f 288//213 375//213 290//213
f 290//213 375//213 365//213
f 290//213 365//213 244//213
f 244//213 365//213 367//213
f 244//213 367//213 246//213
f 246//213 367//213 369//213
f 246//213 369//213 248//213
f 248//213 369//213 371//213
f 248//213 371//213 373//213
s 1
f 67//76 68//78 343//213
f 343//213 68//78 69//80
f 343//213 69//80 70//82
f 70//82 71//84 343//213
f 343//213 71//84 72//86
f 343//213 72//86 341//213
f 341//213 72//86 73//88
f 341//213 73//88 345//213
f 461//380 463//381 411//213
f 411//213 463//381 464//382
f 411//213 464//382 409//213
f 409//213 464//382 465//383
f 409//213 465//383 466//213
s 0
f 467//213 390//213 468//213
f 468//213 390//213 392//213
f 468//213 392//213 280//213
f 280//213 392//213 394//213
f 280//213 394//213 282//213
f 282//213 394//213 396//213
f 282//213 396//213 284//213
f 284//213 396//213 398//213
f 284//213 398//213 400//213
f 455//213 456//213 453//213
f 453//213 456//213 405//213
f 453//213 405//213 469//213
f 469//213 405//213 377//213
f 469//213 377//213 470//213
f 470//213 377//213 380//213
f 470//213 380//213 471//213
f 471//213 380//213 382//213
f 471//213 382//213 472//213
f 472//213 382//213 384//213
f 472//213 384//213 473//213
f 473//213 384//213 386//213
f 473//213 386//213 467//213
f 467//213 386//213 388//213
f 467//213 388//213 390//213
s 1
f 73//88 74//90 345//213
f 345//213 74//90 75//92
f 345//213 75//92 458//213
f 458//213 75//92 76//94
f 458//213 76//94 460//379
f 465//383 474//384 466//213
f 466//213 474//384 475//385
f 466//213 475//385 476//213
f 476//213 475//385 477//386
f 476//213 477//386 478//213
f 477//386 479//387 478//213
f 478//213 479//387 480//388
f 478//213 480//388 481//213
f 481//213 480//388 482//389
f 481//213 482//389 483//213
f 484//213 485//390 340//213
f 340//213 485//390 58//58
f 340//213 58//58 338//213
f 322//213 324//213 67//76
f 67//76 324//213 326//213
f 67//76 326//213 66//74
f 66//74 326//213 328//213
f 66//74 328//213 65//72
f 65//72 328//213 330//213
f 65//72 330//213 64//70
f 64//70 330//213 332//213
f 482//389 486//391 483//213
f 483//213 486//391 487//392
f 483//213 487//392 488//213
f 488//213 487//392 489//393
f 488//213 489//393 490//213
f 490//213 489//393 491//394
f 490//213 491//394 484//213
f 484//213 491//394 492//395
f 484//213 492//395 485//390
f 58//58 59//60 338//213
f 338//213 59//60 60//62
f 338//213 60//62 336//213
f 336//213 60//62 61//64
f 336//213 61//64 334//213
f 334//213 61//64 62//66
f 334//213 62//66 332//213
f 332//213 62//66 63//68
f 332//213 63//68 64//70
f 373//340 374//340 363//335
f 363//335 374//340 364//335
f 340//322 339//322 435//396
f 340//322 435//396 484//396
f 484//396 435//396 443//397
f 484//396 443//397 490//397
f 490//397 443//397 445//398
f 490//397 445//398 488//398
f 488//398 445//398 436//399
f 488//398 436//399 483//400
f 483//400 436//399 438//401
f 483//400 438//401 481//401
f 481//401 438//401 440//402
f 481//401 440//402 478//402
f 478//402 440//402 450//403
f 478//402 450//403 476//404
f 476//404 450//403 448//405
f 476//404 448//405 466//405
f 466//405 448//405 410//359
f 466//405 410//359 409//359
f 299//212 318//212 493//406
f 493//406 318//212 420//406
f 493//406 420//406 494//143
f 494//143 420//406 421//143
f 494//143 421//143 495//407
f 495//407 421//143 422//407
f 495//407 422//407 496//151
f 496//151 422//407 423//151
f 496//151 423//151 497//155
f 497//155 423//151 424//408
f 497//155 424//408 498//409
f 498//409 424//408 425//409
f 498//409 425//409 499//163
f 499//163 425//409 426//163
f 499//163 426//163 500//410
f 500//410 426//163 427//410
f 500//410 427//410 308//202
f 308//202 427//410 309//202
f 308//284 297//284 500//411
f 500//411 297//284 501//411
f 500//411 501//411 499//412
f 499//412 501//411 502//412
f 499//412 502//412 498//413
f 498//413 502//412 503//413
f 498//413 503//413 497//414
f 497//414 503//413 504//414
f 497//414 504//414 496//415
f 496//415 504//414 505//415
f 496//415 505//415 495//416
f 495//416 505//415 506//416
f 495//416 506//416 494//417
f 494//417 506//416 507//417
f 494//417 507//417 493//418
f 493//418 507//417 508//418
f 493//418 508//418 299//276
f 299//276 508//418 279//276
f 297//201 298//201 501//419
f 501//419 298//201 453//419
f 501//419 453//419 502//420
f 502//420 453//419 469//421
f 502//420 469//421 503//422
f 503//422 469//421 470//422
f 503//422 470//422 504//423
f 504//423 470//422 471//423
f 504//423 471//423 505//424
f 505//424 471//423 472//424
f 505//424 472//424 506//425
f 506//425 472//424 473//425
f 506//425 473//425 507//43
f 507//43 473//425 467//43
f 507//43 467//43 508//426
f 508//426 467//43 468//426
f 508//426 468//426 279//191
f 279//191 468//426 280//191
f 261//212 278//212 509//427
f 509//427 278//212 414//427
f 509//427 414//427 510//428
f 510//428 414//427 413//428
f 510//428 413//428 511//429
f 511//429 413//428 415//429
f 511//429 415//429 512//430
f 512//430 415//429 416//430
f 512//430 416//430 513//431
f 513//431 416//430 417//431
f 513//431 417//431 514//432
f 514//432 417//431 418//432
f 514//432 418//432 515//433
f 515//433 418//432 419//434
f 515//433 419//433 269//202
f 269//202 419//433 270//202
f 269//284 259//284 515//435
f 515//435 259//284 516//435
f 515//435 516//435 514//332
f 514//332 516//435 517//332
f 514//332 517//332 513//436
f 513//436 517//332 518//436
f 513//436 518//436 512//437
f 512//437 518//436 519//437
f 512//437 519//437 511//438
f 511//438 519//437 520//438
f 511//438 520//438 510//439
f 510//439 520//438 521//439
f 510//439 521//439 509//440
f 509//440 521//439 522//440
f 509//440 522//440 261//276
f 261//276 522//440 243//276
f 259//201 260//201 516//441
f 516//441 260//201 459//441
f 516//441 459//441 517//442
f 517//442 459//441 458//442
f 517//442 458//442 518//443
f 518//443 458//442 462//443
f 518//443 462//443 519//444
f 519//444 462//443 457//444
f 519//444 457//444 520//445
f 520//445 457//444 456//445
f 520//445 456//445 521//446
f 521//446 456//445 455//446
f 521//446 455//446 522//447
f 522//447 455//446 454//447
f 522//447 454//447 243//191
f 243//191 454//447 244//191
f 152//190 174//267 151//189
f 151//189 174//267 523//448
f 151//189 523//448 150//188
f 150//188 523//448 149//187
f 149//187 523//448 524//449
f 149//187 524//449 148//186
f 148//186 524//449 147//185
f 147//185 524//449 525//450
f 147//185 525//450 146//184
f 146//184 525//450 145//183
f 145//183 525//450 526//451
f 145//183 526//451 144//182
f 144//182 526//451 143//181
f 143//181 526//451 527//452
f 143//181 527//452 142//180
f 142//180 527//452 141//179
f 141//179 527//452 528//453
f 141//179 528//453 140//178
f 140//178 528//453 139//177
f 139//177 528//453 529//454
f 139//177 529//454 138//176
f 138//176 529//454 137//175
f 137//175 529//454 530//455
f 137//175 530//455 136//174
f 136//174 530//455 135//173
f 135//173 530//455 191//241
f 135//173 191//241 134//172
f 38//38 36//36 171//238
f 171//238 36//36 531//456
f 36//36 34//34 531//456
f 531//456 34//34 32//32
f 531//456 32//32 532//457
f 32//32 30//30 532//457
f 532//457 30//30 28//28
f 532//457 28//28 533//458
f 28//28 26//26 533//458
f 533//458 26//26 24//24
f 533//458 24//24 534//459
f 24//24 22//22 534//459
f 534//459 22//22 20//20
f 534//459 20//20 535//460
f 20//20 18//18 535//460
f 535//460 18//18 16//16
f 535//460 16//16 536//461
f 16//16 14//14 536//461
f 536//461 14//14 12//12
f 536//461 12//12 537//462
f 12//12 10//10 537//462
f 537//462 10//10 8//8
f 537//462 8//8 538//463
f 2//2 154//215 4//4
f 4//4 154//215 538//463
f 4//4 538//463 6//6
f 6//6 538//463 8//8
f 192//212 191//212 530//406
f 192//212 530//406 235//406
f 235//406 530//406 529//143
f 235//406 529//143 236//143
f 236//143 529//143 528//407
f 236//143 528//407 237//407
f 237//407 528//407 527//151
f 237//407 527//151 240//151
f 240//151 527//151 526//464
f 240//151 526//464 241//464
f 241//464 526//464 525//465
f 241//464 525//465 242//465
f 242//465 525//465 524//163
f 242//465 524//163 238//163
f 238//163 524//163 523//466
f 238//163 523//466 239//466
f 239//466 523//466 174//202
f 239//466 174//202 173//202
f 172//201 171//201 531//467
f 172//201 531//467 199//467
f 199//467 531//467 532//53
f 199//467 532//53 196//53
f 196//53 532//53 533//468
f 196//53 533//468 197//468
f 197//468 533//468 534//469
f 197//468 534//469 198//469
f 198//469 534//469 535//47
f 198//469 535//47 193//47
f 193//47 535//47 536//425
f 193//47 536//425 194//425
f 194//425 536//425 537//43
f 194//425 537//43 195//43
f 195//43 537//43 538//426
f 195//43 538//426 200//426
f 200//426 538//426 154//191
f 200//426 154//191 153//191
f 113//132 114//133 539//470
f 539//470 114//133 434//368
f 539//470 434//368 540//471
f 540//471 434//368 433//367
f 540//471 433//367 541//472
f 541//472 433//367 432//366
f 541//472 432//366 542//473
f 542//473 432//366 431//365
f 542//473 431//365 543//474
f 543//474 431//365 430//364
f 543//474 430//364 544//475
f 544//475 430//364 429//363
f 544//475 429//363 545//476
f 545//476 429//363 428//362
f 545//476 428//362 546//477
f 546//477 428//362 449//376
f 546//477 449//376 547//478
f 547//478 449//376 451//377
f 547//478 451//377 548//479
f 548//479 451//377 452//378
f 548//479 452//378 549//480
f 549//480 452//378 439//370
f 549//480 439//370 550//481
f 550//481 439//370 437//369
f 550//481 437//369 551//482
f 551//482 437//369 447//375
f 551//482 447//375 552//483
f 552//483 447//375 446//374
f 552//483 446//374 553//484
f 553//484 446//374 444//373
f 553//484 444//373 554//485
f 554//485 444//373 442//372
f 554//485 442//372 555//486
f 555//486 442//372 441//371
f 555//486 441//371 77//96
f 77//96 441//371 78//97
f 133//170 113//171 556//487
f 556//487 113//171 539//488
f 556//487 539//488 557//489
f 557//489 539//488 540//490
f 557//489 540//490 558//491
f 558//491 540//490 541//492
f 558//491 541//492 559//493
f 559//493 541//492 542//309
f 559//493 542//309 560//494
f 560//494 542//309 543//495
f 560//494 543//495 561//496
f 561//496 543//495 544//497
f 561//496 544//497 562//498
f 562//498 544//497 545//499
f 562//498 545//499 563//500
f 563//500 545//499 546//206
f 563//500 546//206 564//501
f 564//501 546//206 547//502
f 564//501 547//502 565//503
f 565//503 547//502 548//504
f 565//503 548//504 566//505
f 566//505 548//504 549//506
f 566//505 549//506 567//507
f 567//507 549//506 550//508
f 567//507 550//508 568//509
f 568//509 550//508 551//510
f 568//509 551//510 569//511
f 569//511 551//510 552//210
f 569//511 552//210 570//512
f 570//512 552//210 553//513
f 570//512 553//513 571//514
f 571//514 553//513 554//515
f 571//514 554//515 572//516
f 572//516 554//515 555//517
f 572//516 555//517 115//134
f 115//134 555//517 77//135
f 152//190 133//170 234//266
f 234//266 133//170 556//487
f 234//266 556//487 233//265
f 233//265 556//487 557//489
f 233//265 557//489 232//263
f 232//263 557//489 558//491
f 232//263 558//491 231//262
f 231//262 558//491 559//493
f 231//262 559//493 230//260
f 230//260 559//493 560//494
f 230//260 560//494 229//259
f 229//259 560//494 561//496
f 229//259 561//496 228//257
f 228//257 561//496 562//498
f 228//257 562//498 227//256
f 227//256 562//498 563//500
f 227//256 563//500 226//254
f 226//254 563//500 564//501
f 226//254 564//501 225//253
f 225//253 564//501 565//503
f 225//253 565//503 224//251
f 224//251 565//503 566//505
f 224//251 566//505 223//250
f 223//250 566//505 567//507
f 223//250 567//507 222//248
f 222//248 567//507 568//509
f 222//248 568//509 221//247
f 221//247 568//509 569//511
f 221//247 569//511 220//245
f 220//245 569//511 570//512
f 220//245 570//512 219//244
f 219//244 570//512 571//514
f 219//244 571//514 218//242
f 218//242 571//514 572//516
f 218//242 572//516 134//172
f 134//172 572//516 115//134
f 37//37 38//38 573//518
f 573//518 38//38 216//239
f 573//518 216//239 574//519
f 574//519 216//239 217//240
f 574//519 217//240 575//520
f 575//520 217//240 215//236
f 575//520 215//236 576//521
f 576//521 215//236 214//235
f 576//521 214//235 577//522
f 577//522 214//235 213//233
f 577//522 213//233 578//523
f 578//523 213//233 212//232
f 578//523 212//232 579//524
f 579//524 212//232 211//230
f 579//524 211//230 580//525
f 580//525 211//230 210//229
f 580//525 210//229 581//526
f 581//526 210//229 209//227
f 581//526 209//227 582//527
f 582//527 209//227 208//226
f 582//527 208//226 583//528
f 583//528 208//226 207//224
f 583//528 207//224 584//529
f 584//529 207//224 206//223
f 584//529 206//223 585//530
f 585//530 206//223 205//221
f 585//530 205//221 586//531
f 586//531 205//221 204//220
f 586//531 204//220 587//532
f 587//532 204//220 203//218
f 587//532 203//218 588//533
f 588//533 203//218 202//217
f 588//533 202//217 589//534
f 589//534 202//217 201//214
f 589//534 201//214 1//1
f 1//1 201//214 2//2
f 57//57 37//37 590//535
f 590//535 37//37 573//518
f 590//535 573//518 591//536
f 591//536 573//518 574//519
f 591//536 574//519 592//537
f 592//537 574//519 575//520
f 592//537 575//520 593//299
f 593//299 575//520 576//521
f 593//299 576//521 594//538
f 594//538 576//521 577//522
f 594//538 577//522 595//539
f 595//539 577//522 578//523
f 595//539 578//523 596//540
f 596//540 578//523 579//524
f 596//540 579//524 597//196
f 597//196 579//524 580//525
f 597//196 580//525 598//541
f 598//541 580//525 581//526
f 598//541 581//526 599//195
f 599//195 581//526 582//527
f 599//195 582//527 600//542
f 600//542 582//527 583//528
f 600//542 583//528 601//543
f 601//543 583//528 584//529
f 601//543 584//529 602//544
f 602//544 584//529 585//530
f 602//544 585//530 603//193
f 603//193 585//530 586//531
f 603//193 586//531 604//545
f 604//545 586//531 587//532
f 604//545 587//532 605//546
f 605//546 587//532 588//533
f 605//546 588//533 606//547
f 606//547 588//533 589//534
f 606//547 589//534 39//39
f 39//39 589//534 1//1
f 76//94 57//95 460//379
f 460//379 57//95 590//548
f 460//379 590//548 461//380
f 461//380 590//548 591//549
f 461//380 591//549 463//381
f 463//381 591//549 592//550
f 463//381 592//550 464//382
f 464//382 592//550 593//551
f 464//382 593//551 465//383
f 465//383 593//551 594//552
f 465//383 594//552 474//384
f 474//384 594//552 595//553
f 474//384 595//553 475//385
f 475//385 595//553 596//554
f 475//385 596//554 477//386
f 477//386 596//554 597//555
f 477//386 597//555 479//387
f 479//387 597//555 598//556
f 479//387 598//556 480//388
f 480//388 598//556 599//557
f 480//388 599//557 482//389
f 482//389 599//557 600//558
f 482//389 600//558 486//391
f 486//391 600//558 601//559
f 486//391 601//559 487//392
f 487//392 601//559 602//560
f 487//392 602//560 489//393
f 489//393 602//560 603//561
f 489//393 603//561 491//394
f 491//394 603//561 604//562
f 491//394 604//562 492//395
f 492//395 604//562 605//563
f 492//395 605//563 485//390
f 485//390 605//563 606//564
f 485//390 606//564 58//58
f 58//58 606//564 39//59
