# Blender 4.3.2
# www.blender.org
mtllib right_knuckle.mtl
o right_knuckle
v 0.004850 -0.000014 0.004040
v 0.005000 -0.000013 0.004000
v 0.004850 0.000688 0.003981
v 0.005000 0.000681 0.003942
v 0.004850 0.001369 0.003801
v 0.005000 0.001355 0.003763
v 0.004850 0.002008 0.003506
v 0.005000 0.001988 0.003471
v 0.004850 0.002587 0.003104
v 0.005000 0.002561 0.003073
v 0.004850 0.003086 0.002607
v 0.005000 0.003056 0.002581
v 0.004850 0.003492 0.002032
v 0.005000 0.003457 0.002012
v 0.004850 0.003792 0.001395
v 0.005000 0.003754 0.001381
v 0.004850 0.003976 0.000715
v 0.005000 0.003937 0.000708
v 0.004850 0.004040 0.000014
v 0.005000 0.004000 0.000013
v 0.004850 0.003981 -0.000688
v 0.005000 0.003942 -0.000681
v 0.004850 0.003801 -0.001369
v 0.005000 0.003763 -0.001355
v 0.004850 0.003506 -0.002008
v 0.005000 0.003471 -0.001988
v 0.004850 0.003104 -0.002587
v 0.005000 0.003073 -0.002561
v 0.004850 0.002607 -0.003086
v 0.005000 0.002581 -0.003056
v 0.004850 0.002032 -0.003492
v 0.005000 0.002012 -0.003457
v 0.004850 0.001395 -0.003792
v 0.005000 0.001381 -0.003754
v 0.004850 0.000715 -0.003976
v 0.005000 0.000708 -0.003937
v 0.004850 0.000014 -0.004040
v 0.005000 0.000013 -0.004000
v 0.004740 -0.000014 0.004150
v 0.004740 0.000707 0.004089
v 0.004740 0.001406 0.003904
v 0.004740 0.002063 0.003601
v 0.004740 0.002657 0.003188
v 0.004740 0.003170 0.002678
v 0.004740 0.003587 0.002087
v 0.004740 0.003895 0.001432
v 0.004740 0.004084 0.000734
v 0.004740 0.004150 0.000014
v 0.004740 0.004089 -0.000707
v 0.004740 0.003904 -0.001406
v 0.004740 0.003601 -0.002063
v 0.004740 0.003188 -0.002657
v 0.004740 0.002678 -0.003170
v 0.004740 0.002087 -0.003587
v 0.004740 0.001432 -0.003895
v 0.004740 0.000734 -0.004084
v 0.004740 0.000014 -0.004150
v 0.004700 -0.000014 0.004300
v 0.004700 0.000732 0.004237
v 0.004700 0.001457 0.004046
v 0.004700 0.002137 0.003731
v 0.004700 0.002753 0.003303
v 0.004700 0.003285 0.002775
v 0.004700 0.003717 0.002162
v 0.004700 0.004036 0.001484
v 0.004700 0.004232 0.000761
v 0.004700 0.004300 0.000014
v 0.004700 0.004237 -0.000732
v 0.004700 0.004046 -0.001457
v 0.004700 0.003731 -0.002137
v 0.004700 0.003303 -0.002753
v 0.004700 0.002775 -0.003285
v 0.004700 0.002162 -0.003717
v 0.004700 0.001484 -0.004036
v 0.004700 0.000761 -0.004232
v 0.004700 0.000014 -0.004300
v -0.004340 -0.000014 0.004150
v -0.004300 -0.000014 0.004300
v -0.004340 0.000707 0.004089
v -0.004300 0.000732 0.004237
v -0.004340 0.001406 0.003904
v -0.004300 0.001457 0.004046
v -0.004340 0.002063 0.003601
v -0.004300 0.002137 0.003731
v -0.004340 0.002657 0.003188
v -0.004300 0.002753 0.003303
v -0.004340 0.003170 0.002678
v -0.004300 0.003285 0.002775
v -0.004340 0.003587 0.002087
v -0.004300 0.003717 0.002162
v -0.004340 0.003895 0.001432
v -0.004300 0.004036 0.001484
v -0.004340 0.004084 0.000734
v -0.004300 0.004232 0.000761
v -0.004340 0.004150 0.000014
v -0.004300 0.004300 0.000014
v -0.004340 0.004089 -0.000707
v -0.004300 0.004237 -0.000732
v -0.004340 0.003904 -0.001406
v -0.004300 0.004046 -0.001457
v -0.004340 0.003601 -0.002063
v -0.004300 0.003731 -0.002137
v -0.004340 0.003188 -0.002657
v -0.004300 0.003303 -0.002753
v -0.004340 0.002678 -0.003170
v -0.004300 0.002775 -0.003285
v -0.004340 0.002087 -0.003587
v -0.004300 0.002162 -0.003717
v -0.004340 0.001432 -0.003895
v -0.004300 0.001484 -0.004036
v -0.004340 0.000734 -0.004084
v -0.004300 0.000761 -0.004232
v -0.004340 0.000014 -0.004150
v -0.004300 0.000014 -0.004300
v -0.004450 -0.000014 0.004040
v -0.004450 0.000688 0.003981
v -0.004450 0.001369 0.003801
v -0.004450 0.002008 0.003506
v -0.004450 0.002587 0.003104
v -0.004450 0.003086 0.002607
v -0.004450 0.003492 0.002032
v -0.004450 0.003792 0.001395
v -0.004450 0.003976 0.000715
v -0.004450 0.004040 0.000014
v -0.004450 0.003981 -0.000688
v -0.004450 0.003801 -0.001369
v -0.004450 0.003506 -0.002008
v -0.004450 0.003104 -0.002587
v -0.004450 0.002607 -0.003086
v -0.004450 0.002032 -0.003492
v -0.004450 0.001395 -0.003792
v -0.004450 0.000715 -0.003976
v -0.004450 0.000014 -0.004040
v -0.004600 -0.000013 0.004000
v -0.004600 0.000681 0.003942
v -0.004600 0.001355 0.003763
v -0.004600 0.001988 0.003471
v -0.004600 0.002561 0.003073
v -0.004600 0.003056 0.002581
v -0.004600 0.003457 0.002012
v -0.004600 0.003754 0.001381
v -0.004600 0.003937 0.000708
v -0.004600 0.004000 0.000013
v -0.004600 0.003942 -0.000681
v -0.004600 0.003763 -0.001355
v -0.004600 0.003471 -0.001988
v -0.004600 0.003073 -0.002561
v -0.004600 0.002581 -0.003056
v -0.004600 0.002012 -0.003457
v -0.004600 0.001381 -0.003754
v -0.004600 0.000708 -0.003937
v -0.004600 0.000013 -0.004000
v 0.008450 -0.000013 0.003750
v 0.008200 -0.000013 0.004000
v 0.008200 -0.001381 0.003754
v 0.008450 -0.001294 0.003519
v 0.008200 -0.002581 0.003056
v 0.008450 -0.002420 0.002865
v 0.008200 -0.003471 0.001988
v 0.008450 -0.003254 0.001864
v 0.008200 -0.003942 0.000681
v 0.008450 -0.003695 0.000639
v 0.008200 -0.003937 -0.000708
v 0.008450 -0.003691 -0.000664
v 0.008200 -0.003457 -0.002012
v 0.008450 -0.003241 -0.001886
v 0.008200 -0.002561 -0.003073
v 0.008450 -0.002401 -0.002881
v 0.008200 -0.001355 -0.003763
v 0.008450 -0.001271 -0.003528
v 0.008200 0.000013 -0.004000
v 0.008450 0.000013 -0.003750
v -0.008050 0.000013 -0.003750
v -0.007800 0.000013 -0.004000
v -0.007800 -0.001355 -0.003763
v -0.008050 -0.001271 -0.003528
v -0.007800 -0.002561 -0.003073
v -0.008050 -0.002401 -0.002881
v -0.007800 -0.003457 -0.002012
v -0.008050 -0.003241 -0.001886
v -0.007800 -0.003937 -0.000708
v -0.008050 -0.003691 -0.000664
v -0.007800 -0.003942 0.000681
v -0.008050 -0.003695 0.000639
v -0.007800 -0.003471 0.001988
v -0.008050 -0.003254 0.001864
v -0.007800 -0.002581 0.003056
v -0.008050 -0.002420 0.002865
v -0.007800 -0.001381 0.003754
v -0.008050 -0.001294 0.003519
v -0.007800 -0.000013 0.004000
v -0.008050 -0.000013 0.003750
v 0.008450 0.003691 0.000664
v 0.008450 0.003241 0.001886
v 0.008450 0.002401 0.002881
v 0.008450 0.002420 -0.002865
v 0.008450 0.003254 -0.001864
v 0.008450 0.003695 -0.000639
v 0.008450 0.001294 -0.003519
v 0.008450 0.001271 0.003528
v 0.005000 -0.000708 0.003937
v 0.005000 -0.001381 0.003754
v 0.005000 -0.002012 0.003457
v 0.005000 -0.002581 0.003056
v 0.005000 -0.003073 0.002561
v 0.005000 -0.003471 0.001988
v 0.005000 -0.003763 0.001355
v 0.005000 -0.003942 0.000681
v 0.005000 -0.004000 -0.000013
v 0.005000 -0.003937 -0.000708
v 0.005000 -0.003754 -0.001381
v 0.005000 -0.003457 -0.002012
v 0.005000 -0.003056 -0.002581
v 0.005000 -0.002561 -0.003073
v 0.005000 -0.001988 -0.003471
v 0.005000 -0.000681 -0.003942
v 0.005000 -0.001355 -0.003763
v -0.004600 -0.000708 0.003937
v -0.004600 -0.001381 0.003754
v -0.004600 -0.002012 0.003457
v -0.004600 -0.002581 0.003056
v -0.004600 -0.003073 0.002561
v -0.004600 -0.003471 0.001988
v -0.004600 -0.003763 0.001355
v -0.004600 -0.003942 0.000681
v -0.004600 -0.004000 -0.000013
v -0.004600 -0.003937 -0.000708
v -0.004600 -0.003754 -0.001381
v -0.004600 -0.003457 -0.002012
v -0.004600 -0.003056 -0.002581
v -0.004600 -0.002561 -0.003073
v -0.004600 -0.001988 -0.003471
v -0.004600 -0.001355 -0.003763
v -0.004600 -0.000681 -0.003942
v -0.008050 0.001271 0.003528
v -0.008050 0.002401 0.002881
v -0.008050 0.003241 0.001886
v -0.008050 0.002420 -0.002865
v -0.008050 0.001294 -0.003519
v -0.008050 0.003691 0.000664
v -0.008050 0.003695 -0.000639
v -0.008050 0.003254 -0.001864
v 0.004200 0.001516 -0.025528
v 0.004700 0.001517 -0.026028
v 0.004200 0.002472 -0.025334
v 0.004700 0.002665 -0.025796
v 0.004200 0.003281 -0.024790
v 0.004700 0.003636 -0.025142
v 0.004200 0.003820 -0.023977
v 0.004700 0.004283 -0.024167
v 0.004200 0.004007 -0.023019
v 0.004700 0.004507 -0.023018
v 0.004200 0.003814 -0.022063
v 0.004700 0.004275 -0.021871
v 0.004200 0.003269 -0.021254
v 0.004700 0.003621 -0.020899
v 0.004200 0.002456 -0.020715
v 0.004700 0.002646 -0.020252
v 0.004200 0.001499 -0.020528
v 0.004700 0.001497 -0.020028
v -0.003800 0.001516 -0.025528
v -0.003800 0.002472 -0.025334
v -0.003800 0.003281 -0.024790
v -0.003800 0.003820 -0.023977
v -0.003800 0.004007 -0.023019
v -0.003800 0.003814 -0.022063
v -0.003800 0.003269 -0.021254
v -0.003800 0.002456 -0.020715
v -0.003800 0.001499 -0.020528
v -0.004300 0.001497 -0.020028
v -0.004300 0.002646 -0.020252
v -0.004300 0.003621 -0.020899
v -0.004300 0.004275 -0.021871
v -0.004300 0.004507 -0.023018
v -0.004300 0.004283 -0.024167
v -0.004300 0.003636 -0.025142
v -0.004300 0.002665 -0.025796
v -0.004300 0.001517 -0.026028
v 0.004200 -0.003752 -0.035026
v 0.004700 -0.003750 -0.035526
v 0.004200 -0.002555 -0.034811
v 0.004700 -0.002383 -0.035280
v 0.004200 -0.001505 -0.034200
v 0.004700 -0.001182 -0.034582
v 0.004200 -0.000727 -0.033266
v 0.004700 -0.000293 -0.033514
v 0.004200 -0.000315 -0.032122
v 0.004700 0.000178 -0.032207
v 0.004200 -0.000319 -0.030907
v 0.004700 0.000173 -0.030818
v 0.004200 -0.000738 -0.029766
v 0.004700 -0.000306 -0.029514
v 0.004200 -0.001523 -0.028837
v 0.004700 -0.001203 -0.028453
v 0.004200 -0.002577 -0.028233
v 0.004700 -0.002408 -0.027763
v 0.004200 -0.003775 -0.028026
v 0.004700 -0.003777 -0.027526
v -0.003800 -0.003752 -0.035026
v -0.003800 -0.002555 -0.034811
v -0.003800 -0.001505 -0.034200
v -0.003800 -0.000727 -0.033266
v -0.003800 -0.000315 -0.032122
v -0.003800 -0.000319 -0.030907
v -0.003800 -0.000738 -0.029766
v -0.003800 -0.001523 -0.028837
v -0.003800 -0.002577 -0.028233
v -0.003800 -0.003775 -0.028026
v -0.004300 -0.003777 -0.027526
v -0.004300 -0.002408 -0.027763
v -0.004300 -0.001203 -0.028453
v -0.004300 -0.000306 -0.029514
v -0.004300 0.000173 -0.030818
v -0.004300 0.000178 -0.032207
v -0.004300 -0.000293 -0.033514
v -0.004300 -0.001182 -0.034582
v -0.004300 -0.002383 -0.035280
v -0.004300 -0.003750 -0.035526
v 0.004700 0.005343 -0.005404
v -0.004300 0.005343 -0.005404
v -0.004300 0.006461 -0.004002
v 0.004700 0.006461 -0.004002
v -0.004300 0.007219 -0.002377
v 0.004700 0.007219 -0.002377
v -0.004300 0.007575 -0.000619
v 0.004700 0.007575 -0.000619
v -0.004300 0.007509 0.001173
v 0.004700 0.007509 0.001173
v -0.004300 0.007025 0.002900
v 0.004700 0.007025 0.002900
v -0.004300 0.006150 0.004466
v 0.004700 0.006150 0.004466
v -0.004300 0.004932 0.005782
v 0.004700 0.004932 0.005782
v -0.004300 0.003440 0.006777
v 0.004700 0.003440 0.006777
v -0.004300 0.001756 0.007394
v 0.004700 0.001756 0.007394
v -0.004300 -0.000026 0.007600
v 0.004700 -0.000026 0.007600
v 0.004700 0.004416 -0.007301
v -0.004300 0.004416 -0.007301
v 0.004700 0.004719 -0.006274
v -0.004300 0.004719 -0.006274
v 0.004700 0.003624 -0.013936
v -0.004300 0.003624 -0.013936
v 0.004700 0.004123 -0.016067
v -0.004300 0.004123 -0.016067
v 0.004700 0.003686 -0.015045
v -0.004300 0.003686 -0.015045
v 0.004700 0.010065 -0.025149
v -0.004300 0.010065 -0.025149
v 0.004700 0.008918 -0.026997
v -0.004300 0.008918 -0.026997
v -0.004300 0.009455 -0.026939
v 0.004700 0.009455 -0.026939
v -0.004300 0.009912 -0.026652
v 0.004700 0.009912 -0.026652
v -0.004300 0.010196 -0.026193
v 0.004700 0.010196 -0.026193
v -0.004300 0.010251 -0.025656
v 0.004700 0.010251 -0.025656
v 0.004700 0.006083 -0.026659
v -0.004300 0.006083 -0.026659
v 0.004700 0.002526 -0.029457
v -0.004300 0.002526 -0.029457
v 0.004700 0.002867 -0.028356
v -0.004300 0.002867 -0.028356
v 0.004700 0.003575 -0.027447
v -0.004300 0.003575 -0.027447
v 0.004700 0.004560 -0.026848
v -0.004300 0.004560 -0.026848
v 0.004700 0.005693 -0.026636
v -0.004300 0.005693 -0.026636
v 0.004700 0.002194 -0.032237
v -0.004300 0.002194 -0.032237
v 0.004700 -0.008361 -0.027670
v -0.004300 -0.008361 -0.027670
v -0.004300 -0.009262 -0.029125
v 0.004700 -0.009262 -0.029125
v -0.004300 -0.009716 -0.030775
v 0.004700 -0.009716 -0.030775
v -0.004300 -0.009686 -0.032486
v 0.004700 -0.009686 -0.032486
v -0.004300 -0.009174 -0.034119
v 0.004700 -0.009174 -0.034119
v -0.004300 -0.008222 -0.035541
v 0.004700 -0.008222 -0.035541
v -0.004300 -0.006907 -0.036637
v 0.004700 -0.006907 -0.036637
v -0.004300 -0.005336 -0.037316
v 0.004700 -0.005336 -0.037316
v -0.004300 -0.003638 -0.037525
v 0.004700 -0.003638 -0.037525
v -0.004300 -0.001949 -0.037245
v 0.004700 -0.001949 -0.037245
v -0.004300 -0.000409 -0.036501
v 0.004700 -0.000409 -0.036501
v -0.004300 0.000859 -0.035351
v 0.004700 0.000859 -0.035351
v -0.004300 0.001751 -0.033890
v 0.004700 0.001751 -0.033890
v 0.004700 -0.007635 -0.025993
v -0.004300 -0.007635 -0.025993
v 0.004700 -0.007876 -0.026885
v -0.004300 -0.007876 -0.026885
v 0.004700 -0.005366 -0.006986
v -0.004300 -0.005366 -0.006986
v 0.004700 -0.006012 -0.004649
v -0.004300 -0.006012 -0.004649
v 0.004700 -0.005459 -0.005754
v -0.004300 -0.005459 -0.005754
v -0.004300 -0.000607 -0.025156
v -0.004300 0.000368 -0.025803
v -0.004300 -0.001261 -0.024185
v -0.004300 -0.001493 -0.023038
v -0.004300 -0.001268 -0.021889
v -0.004300 -0.000621 -0.020914
v -0.004300 0.000350 -0.020260
v -0.004300 -0.005119 -0.035289
v -0.004300 -0.006324 -0.034599
v -0.004300 -0.007221 -0.033538
v -0.004300 -0.007700 -0.032234
v -0.004300 -0.007705 -0.030845
v -0.004300 -0.007234 -0.029538
v -0.004300 -0.006345 -0.028471
v -0.004300 -0.005144 -0.027772
v -0.004300 -0.004036 -0.001484
v -0.004300 -0.003717 -0.002162
v -0.004300 -0.003285 -0.002775
v -0.004300 -0.002753 -0.003303
v -0.004300 -0.002137 -0.003731
v -0.004300 -0.001457 -0.004046
v -0.004300 -0.000732 -0.004237
v -0.004300 -0.001885 0.007362
v -0.004300 -0.006364 0.004154
v -0.004300 -0.003731 0.002137
v -0.004300 -0.007188 0.002469
v -0.004300 -0.004046 0.001457
v -0.004300 -0.007573 0.000635
v -0.004300 -0.000761 0.004232
v -0.004300 -0.001484 0.004036
v -0.004300 -0.003630 0.006677
v -0.004300 -0.002162 0.003717
v -0.004300 -0.005154 0.005585
v -0.004300 -0.002775 0.003285
v -0.004300 -0.003303 0.002753
v -0.004300 -0.006967 -0.003036
v -0.004300 -0.004232 -0.000761
v -0.004300 -0.007498 -0.001238
v -0.004300 -0.004300 -0.000014
v -0.004300 -0.004237 0.000732
v 0.004700 -0.005144 -0.027772
v 0.004700 0.000368 -0.025803
v 0.004700 -0.000607 -0.025156
v 0.004700 -0.001261 -0.024185
v 0.004700 -0.001493 -0.023038
v 0.004700 -0.000621 -0.020914
v 0.004700 0.000350 -0.020260
v 0.004700 -0.000732 -0.004237
v 0.004700 -0.001457 -0.004046
v 0.004700 -0.001268 -0.021889
v 0.004700 -0.002137 -0.003731
v 0.004700 -0.002753 -0.003303
v 0.004700 -0.003285 -0.002775
v 0.004700 -0.006967 -0.003036
v 0.004700 -0.006324 -0.034599
v 0.004700 -0.005119 -0.035289
v 0.004700 -0.006345 -0.028471
v 0.004700 -0.007234 -0.029538
v 0.004700 -0.007705 -0.030845
v 0.004700 -0.007700 -0.032234
v 0.004700 -0.007221 -0.033538
v 0.004700 -0.003717 -0.002162
v 0.004700 -0.004036 -0.001484
v 0.004700 -0.007498 -0.001238
v 0.004700 -0.004232 -0.000761
v 0.004700 -0.007573 0.000635
v 0.004700 -0.004300 -0.000014
v 0.004700 -0.004237 0.000732
v 0.004700 -0.007188 0.002469
v 0.004700 -0.004046 0.001457
v 0.004700 -0.006364 0.004154
v 0.004700 -0.001885 0.007362
v 0.004700 -0.000761 0.004232
v 0.004700 -0.003731 0.002137
v 0.004700 -0.003303 0.002753
v 0.004700 -0.005154 0.005585
v 0.004700 -0.002775 0.003285
v 0.004700 -0.003630 0.006677
v 0.004700 -0.002162 0.003717
v 0.004700 -0.001484 0.004036
v -0.003800 -0.004949 -0.034819
v -0.003800 -0.006004 -0.034215
v -0.003800 -0.006789 -0.033286
v -0.003800 -0.007208 -0.032146
v -0.003800 -0.007212 -0.030930
v -0.003800 -0.006800 -0.029786
v -0.003800 -0.006022 -0.028853
v -0.003800 -0.004972 -0.028241
v 0.004200 -0.004972 -0.028241
v 0.004200 -0.006022 -0.028853
v 0.004200 -0.006800 -0.029786
v 0.004200 -0.007212 -0.030930
v 0.004200 -0.007208 -0.032146
v 0.004200 -0.006789 -0.033286
v 0.004200 -0.006004 -0.034215
v 0.004200 -0.004949 -0.034819
v -0.003800 0.000558 -0.025341
v -0.003800 -0.000255 -0.024802
v -0.003800 -0.000799 -0.023992
v -0.003800 -0.000993 -0.023036
v -0.003800 -0.000806 -0.022079
v -0.003800 -0.000266 -0.021266
v -0.003800 0.000543 -0.020721
v 0.004200 0.000543 -0.020721
v 0.004200 -0.000266 -0.021266
v 0.004200 -0.000806 -0.022079
v 0.004200 -0.000993 -0.023036
v 0.004200 -0.000799 -0.023992
v 0.004200 -0.000255 -0.024802
v 0.004200 0.000558 -0.025341
v -0.007800 0.001381 -0.003754
v -0.007800 0.002581 -0.003056
v -0.007800 0.003471 -0.001988
v -0.007800 0.003942 -0.000681
v -0.007800 0.003937 0.000708
v -0.007800 0.003457 0.002012
v -0.007800 0.002561 0.003073
v -0.007800 0.001355 0.003763
v 0.008200 0.001381 -0.003754
v 0.008200 0.002581 -0.003056
v 0.008200 0.003471 -0.001988
v 0.008200 0.003942 -0.000681
v 0.008200 0.003937 0.000708
v 0.008200 0.003457 0.002012
v 0.008200 0.002561 0.003073
v 0.008200 0.001355 0.003763
v -0.004340 -0.000707 -0.004089
v -0.004340 -0.001406 -0.003904
v -0.004340 -0.002063 -0.003601
v -0.004340 -0.002657 -0.003188
v -0.004340 -0.003170 -0.002678
v -0.004340 -0.003587 -0.002087
v -0.004340 -0.003895 -0.001432
v -0.004340 -0.004084 -0.000734
v -0.004340 -0.004150 -0.000014
v -0.004340 -0.004089 0.000707
v -0.004340 -0.003904 0.001406
v -0.004340 -0.003601 0.002063
v -0.004340 -0.003188 0.002657
v -0.004340 -0.002678 0.003170
v -0.004340 -0.002087 0.003587
v -0.004340 -0.001432 0.003895
v -0.004340 -0.000734 0.004084
v -0.004450 -0.000688 -0.003981
v -0.004450 -0.001369 -0.003801
v -0.004450 -0.002008 -0.003506
v -0.004450 -0.002587 -0.003104
v -0.004450 -0.003086 -0.002607
v -0.004450 -0.003492 -0.002032
v -0.004450 -0.003792 -0.001395
v -0.004450 -0.003976 -0.000715
v -0.004450 -0.004040 -0.000014
v -0.004450 -0.003981 0.000688
v -0.004450 -0.003801 0.001369
v -0.004450 -0.003506 0.002008
v -0.004450 -0.003104 0.002587
v -0.004450 -0.002607 0.003086
v -0.004450 -0.002032 0.003492
v -0.004450 -0.001395 0.003792
v -0.004450 -0.000715 0.003976
v 0.004850 -0.000688 -0.003981
v 0.004850 -0.001369 -0.003801
v 0.004850 -0.002008 -0.003506
v 0.004850 -0.002587 -0.003104
v 0.004850 -0.003086 -0.002607
v 0.004850 -0.003492 -0.002032
v 0.004850 -0.003792 -0.001395
v 0.004850 -0.003976 -0.000715
v 0.004850 -0.004040 -0.000014
v 0.004850 -0.003981 0.000688
v 0.004850 -0.003801 0.001369
v 0.004850 -0.003506 0.002008
v 0.004850 -0.003104 0.002587
v 0.004850 -0.002607 0.003086
v 0.004850 -0.002032 0.003492
v 0.004850 -0.001395 0.003792
v 0.004850 -0.000715 0.003976
v 0.004740 -0.000707 -0.004089
v 0.004740 -0.001406 -0.003904
v 0.004740 -0.002063 -0.003601
v 0.004740 -0.002657 -0.003188
v 0.004740 -0.003170 -0.002678
v 0.004740 -0.003587 -0.002087
v 0.004740 -0.003895 -0.001432
v 0.004740 -0.004084 -0.000734
v 0.004740 -0.004150 -0.000014
v 0.004740 -0.004089 0.000707
v 0.004740 -0.003904 0.001406
v 0.004740 -0.003601 0.002063
v 0.004740 -0.003188 0.002657
v 0.004740 -0.002678 0.003170
v 0.004740 -0.002087 0.003587
v 0.004740 -0.001432 0.003895
v 0.004740 -0.000734 0.004084
vn 0.5064 -0.0029 0.8623
vn 0.1314 -0.0034 0.9913
vn 0.5062 0.1469 0.8498
vn 0.1326 0.1688 0.9767
vn 0.5064 0.2922 0.8113
vn 0.1314 0.3359 0.9327
vn 0.5063 0.4287 0.7483
vn 0.1327 0.4927 0.8600
vn 0.5064 0.5521 0.6624
vn 0.1316 0.6347 0.7615
vn 0.5063 0.6587 0.5565
vn 0.1327 0.7571 0.6397
vn 0.5064 0.7453 0.4336
vn 0.1315 0.8568 0.4985
vn 0.5063 0.8093 0.2977
vn 0.1328 0.9302 0.3421
vn 0.5064 0.8487 0.1526
vn 0.1315 0.9757 0.1754
vn 0.5064 0.8623 0.0029
vn 0.1327 0.9912 0.0034
vn 0.5062 0.8498 -0.1469
vn 0.1317 0.9768 -0.1689
vn 0.5064 0.8113 -0.2922
vn 0.1327 0.9325 -0.3359
vn 0.5064 0.7482 -0.4287
vn 0.1315 0.8602 -0.4928
vn 0.5063 0.6625 -0.5521
vn 0.1328 0.7614 -0.6345
vn 0.5063 0.5565 -0.6587
vn 0.1314 0.6397 -0.7573
vn 0.5064 0.4336 -0.7453
vn 0.1327 0.4985 -0.8567
vn 0.5063 0.2977 -0.8093
vn 0.1315 0.3422 -0.9304
vn 0.5064 0.1526 -0.8487
vn 0.1328 0.1754 -0.9755
vn 0.5064 0.0029 -0.8623
vn 0.1314 0.0034 -0.9913
vn 0.7070 -0.0024 0.7072
vn 0.7071 0.1204 0.6968
vn 0.7073 0.2396 0.6651
vn 0.7072 0.3515 0.6135
vn 0.7071 0.4527 0.5432
vn 0.7071 0.5401 0.4563
vn 0.7073 0.6110 0.3555
vn 0.7071 0.6636 0.2441
vn 0.7071 0.6959 0.1251
vn 0.7069 0.7073 0.0024
vn 0.7071 0.6968 -0.1204
vn 0.7073 0.6651 -0.2396
vn 0.7072 0.6135 -0.3515
vn 0.7071 0.5432 -0.4527
vn 0.7071 0.4563 -0.5401
vn 0.7073 0.3555 -0.6110
vn 0.7071 0.2441 -0.6636
vn 0.7071 0.1251 -0.6959
vn 0.7073 0.0023 -0.7069
vn 0.9923 -0.0004 0.1235
vn 0.9658 -0.0009 0.2591
vn 0.9923 0.0210 0.1217
vn 0.9659 0.0441 0.2553
vn 0.9923 0.0419 0.1162
vn 0.9658 0.0878 0.2438
vn 0.9924 0.0612 0.1069
vn 0.9658 0.1288 0.2248
vn 0.9923 0.0791 0.0949
vn 0.9659 0.1658 0.1990
vn 0.9923 0.0944 0.0797
vn 0.9659 0.1977 0.1670
vn 0.9923 0.1068 0.0621
vn 0.9658 0.2239 0.1303
vn 0.9923 0.1159 0.0426
vn 0.9659 0.2431 0.0894
vn 0.9923 0.1215 0.0219
vn 0.9659 0.2550 0.0458
vn 0.9924 0.1232 0.0004
vn 0.9659 0.2588 0.0009
vn 0.9923 0.1217 -0.0210
vn 0.9659 0.2553 -0.0441
vn 0.9923 0.1162 -0.0419
vn 0.9659 0.2435 -0.0877
vn 0.9923 0.1072 -0.0614
vn 0.9658 0.2248 -0.1288
vn 0.9923 0.0949 -0.0791
vn 0.9660 0.1987 -0.1656
vn 0.9923 0.0797 -0.0944
vn 0.9659 0.1672 -0.1979
vn 0.9923 0.0621 -0.1068
vn 0.9659 0.1301 -0.2237
vn 0.9923 0.0426 -0.1159
vn 0.9659 0.0894 -0.2431
vn 0.9923 0.0219 -0.1215
vn 0.9659 0.0458 -0.2550
vn 0.9923 0.0004 -0.1235
vn 0.9658 0.0009 -0.2591
vn -0.9659 -0.0009 0.2588
vn -0.9924 -0.0004 0.1234
vn -0.9660 0.0441 0.2549
vn -0.9924 0.0210 0.1215
vn -0.9659 0.0877 0.2434
vn -0.9924 0.0418 0.1161
vn -0.9659 0.1286 0.2245
vn -0.9924 0.0613 0.1070
vn -0.9660 0.1656 0.1987
vn -0.9924 0.0789 0.0947
vn -0.9659 0.1976 0.1670
vn -0.9924 0.0942 0.0796
vn -0.9659 0.2236 0.1301
vn -0.9924 0.1066 0.0620
vn -0.9660 0.2428 0.0893
vn -0.9924 0.1157 0.0426
vn -0.9660 0.2546 0.0458
vn -0.9924 0.1214 0.0218
vn -0.9659 0.2588 0.0009
vn -0.9924 0.1234 0.0004
vn -0.9660 0.2549 -0.0441
vn -0.9924 0.1215 -0.0210
vn -0.9659 0.2434 -0.0877
vn -0.9924 0.1161 -0.0418
vn -0.9659 0.2245 -0.1286
vn -0.9924 0.1070 -0.0613
vn -0.9660 0.1987 -0.1656
vn -0.9924 0.0947 -0.0789
vn -0.9659 0.1670 -0.1976
vn -0.9924 0.0796 -0.0942
vn -0.9659 0.1301 -0.2236
vn -0.9924 0.0620 -0.1066
vn -0.9660 0.0893 -0.2428
vn -0.9924 0.0426 -0.1157
vn -0.9660 0.0458 -0.2546
vn -0.9924 0.0218 -0.1214
vn -0.9659 0.0009 -0.2588
vn -0.9924 0.0004 -0.1234
vn -0.5064 -0.0029 0.8623
vn -0.7073 -0.0024 0.7069
vn -0.5062 0.1469 0.8498
vn -0.7071 0.1205 0.6968
vn -0.5064 0.2922 0.8113
vn -0.7070 0.2397 0.6653
vn -0.5063 0.4287 0.7482
vn -0.7072 0.3515 0.6135
vn -0.5064 0.5520 0.6624
vn -0.7071 0.4527 0.5432
vn -0.5063 0.6588 0.5565
vn -0.7071 0.5401 0.4563
vn -0.5064 0.7453 0.4337
vn -0.7073 0.6110 0.3555
vn -0.5063 0.8093 0.2977
vn -0.7071 0.6637 0.2441
vn -0.5064 0.8487 0.1526
vn -0.7071 0.6959 0.1251
vn -0.5064 0.8623 0.0029
vn -0.7073 0.7069 0.0024
vn -0.5062 0.8498 -0.1469
vn -0.7071 0.6968 -0.1205
vn -0.5064 0.8113 -0.2922
vn -0.7073 0.6651 -0.2395
vn -0.5064 0.7482 -0.4286
vn -0.7072 0.6135 -0.3515
vn -0.5063 0.6625 -0.5521
vn -0.7071 0.5432 -0.4527
vn -0.5063 0.5565 -0.6588
vn -0.7071 0.4563 -0.5401
vn -0.5062 0.4337 -0.7455
vn -0.7073 0.3555 -0.6110
vn -0.5063 0.2977 -0.8093
vn -0.7071 0.2441 -0.6637
vn -0.5064 0.1526 -0.8487
vn -0.7071 0.1251 -0.6959
vn -0.5064 0.0029 -0.8623
vn -0.7073 0.0024 -0.7069
vn -0.1314 -0.0033 0.9913
vn -0.1326 0.1688 0.9767
vn -0.1314 0.3359 0.9327
vn -0.1327 0.4927 0.8600
vn -0.1316 0.6346 0.7615
vn -0.1327 0.7571 0.6396
vn -0.1315 0.8568 0.4985
vn -0.1328 0.9302 0.3421
vn -0.1315 0.9757 0.1754
vn -0.1327 0.9912 0.0033
vn -0.1314 0.9768 -0.1689
vn -0.1327 0.9325 -0.3359
vn -0.1315 0.8602 -0.4927
vn -0.1328 0.7614 -0.6345
vn -0.1314 0.6397 -0.7573
vn -0.1327 0.4985 -0.8567
vn -0.1315 0.3422 -0.9304
vn -0.1328 0.1754 -0.9755
vn -0.1314 0.0033 -0.9913
vn 0.7071 -0.0024 0.7071
vn 0.7072 -0.2441 0.6636
vn 0.7071 -0.4563 0.5401
vn 0.7071 -0.6136 0.3515
vn 0.7071 -0.6968 0.1204
vn 0.7071 -0.6959 -0.1251
vn 0.7071 -0.6112 -0.3556
vn 0.7072 -0.4526 -0.5432
vn 0.7072 -0.4527 -0.5431
vn 0.7071 -0.2396 -0.6653
vn 0.7071 0.0024 -0.7071
vn -0.7071 0.0024 -0.7071
vn -0.7071 -0.2396 -0.6653
vn -0.7072 -0.4527 -0.5431
vn -0.7071 -0.6112 -0.3556
vn -0.7071 -0.6959 -0.1251
vn -0.7071 -0.6967 0.1204
vn -0.7071 -0.6968 0.1204
vn -0.7071 -0.6136 0.3515
vn -0.7071 -0.4563 0.5401
vn -0.7072 -0.2440 0.6636
vn -0.7071 -0.0024 0.7071
vn 1.0000 -0.0000 -0.0000
vn 0.1328 -0.1754 0.9755
vn 0.0166 -0.0034 0.9999
vn 0.0166 -0.3451 0.9384
vn 0.1315 -0.3422 0.9304
vn 0.1327 -0.4985 0.8567
vn 0.0166 -0.6453 0.7638
vn 0.1314 -0.6397 0.7573
vn 0.1328 -0.7614 0.6345
vn 0.0166 -0.8676 0.4970
vn 0.1314 -0.8602 0.4928
vn 0.1327 -0.9325 0.3359
vn 0.0166 -0.9853 0.1703
vn 0.1314 -0.9768 0.1689
vn 0.1327 -0.9912 -0.0034
vn 0.0166 -0.9841 -0.1769
vn 0.1315 -0.9757 -0.1754
vn 0.1328 -0.9302 -0.3421
vn 0.0166 -0.8642 -0.5028
vn 0.1315 -0.8568 -0.4985
vn 0.1327 -0.7571 -0.6396
vn 0.0166 -0.6401 -0.7681
vn 0.1315 -0.6346 -0.7615
vn 0.1328 -0.4927 -0.8600
vn 0.0166 -0.3388 -0.9407
vn 0.0166 0.0034 -0.9999
vn 0.1326 -0.1688 -0.9767
vn 0.1314 -0.3359 -0.9327
vn -0.0166 -0.0034 0.9999
vn -0.1328 -0.1754 0.9755
vn -0.0166 -0.3451 0.9384
vn -0.1315 -0.3422 0.9304
vn -0.1327 -0.4985 0.8567
vn -0.0166 -0.6453 0.7638
vn -0.1314 -0.6397 0.7573
vn -0.1328 -0.7614 0.6345
vn -0.0166 -0.8676 0.4970
vn -0.1314 -0.8602 0.4928
vn -0.1327 -0.9325 0.3359
vn -0.0166 -0.9853 0.1703
vn -0.1314 -0.9768 0.1689
vn -0.1327 -0.9912 -0.0033
vn -0.0166 -0.9841 -0.1769
vn -0.1315 -0.9757 -0.1754
vn -0.1328 -0.9302 -0.3421
vn -0.0166 -0.8642 -0.5028
vn -0.1315 -0.8568 -0.4985
vn -0.1327 -0.7571 -0.6396
vn -0.0166 -0.6401 -0.7681
vn -0.1315 -0.6346 -0.7615
vn -0.1328 -0.4927 -0.8600
vn -0.0166 -0.3388 -0.9407
vn -0.1314 -0.3359 -0.9327
vn -0.1326 -0.1688 -0.9767
vn -0.0166 0.0034 -0.9999
vn -1.0000 -0.0000 -0.0000
vn 0.7071 -0.2728 0.6523
vn 0.7072 -0.2728 0.6523
vn 0.7071 -0.5017 0.4983
vn 0.7071 -0.6542 0.2684
vn 0.7071 -0.7071 -0.0024
vn 0.7072 -0.7071 -0.0024
vn 0.7072 -0.6523 -0.2728
vn 0.7071 -0.6523 -0.2728
vn 0.7071 -0.4983 -0.5017
vn 0.7071 -0.2684 -0.6542
vn -0.0000 -0.0034 1.0000
vn -0.0000 -0.3858 0.9226
vn -0.0000 -0.7095 0.7047
vn -0.0000 -0.9252 0.3796
vn -0.0000 -1.0000 -0.0034
vn -0.0000 -0.9226 -0.3858
vn -0.0000 -0.7047 -0.7095
vn -0.0000 -0.3796 -0.9252
vn -0.0000 0.0034 -1.0000
vn -0.7071 -0.2684 -0.6542
vn -0.7071 -0.4984 -0.5017
vn -0.7071 -0.6524 -0.2728
vn -0.7071 -0.7071 -0.0024
vn -0.7071 -0.6542 0.2684
vn -0.7071 -0.5017 0.4983
vn -0.7071 -0.2728 0.6524
vn 0.7071 -0.2441 0.6636
vn 0.7071 -0.6135 0.3515
vn 0.7071 -0.6967 0.1204
vn 0.7071 -0.4527 -0.5432
vn 0.7072 -0.2396 -0.6652
vn 0.7072 0.0024 -0.7071
vn -0.0000 -0.3452 0.9385
vn -0.0000 -0.6454 0.7639
vn -0.0000 -0.8677 0.4971
vn -0.0000 -0.9854 0.1703
vn -0.0000 -0.9842 -0.1770
vn -0.0000 -0.8643 -0.5029
vn -0.0000 -0.6402 -0.7682
vn -0.0000 -0.3389 -0.9408
vn -0.7071 -0.4527 -0.5432
vn -0.7071 -0.6960 -0.1251
vn -0.7071 -0.6968 0.1205
vn -0.7071 -0.4564 0.5402
vn -0.7071 -0.2441 0.6637
vn -0.0000 0.7973 -0.6035
vn -0.0000 0.8501 -0.5266
vn -0.0000 0.9498 -0.3127
vn -0.0000 0.9967 -0.0814
vn -0.0000 0.9880 0.1544
vn -0.0000 0.9243 0.3816
vn -0.0000 0.8092 0.5876
vn -0.0000 0.6490 0.7608
vn -0.0000 0.4526 0.8917
vn -0.0000 0.2311 0.9729
vn -0.0000 -0.0060 1.0000
vn -0.0000 0.9795 -0.2015
vn -0.0000 0.8983 -0.4394
vn -0.0000 0.9995 -0.0316
vn -0.0000 0.9995 -0.0315
vn -0.0000 0.8814 0.4724
vn -0.0000 0.9736 0.2282
vn -0.0000 0.8934 0.4492
vn -0.0000 -0.0054 -1.0000
vn -0.0000 0.3288 -0.9444
vn -0.0000 0.7095 -0.7047
vn -0.0000 0.9466 -0.3224
vn -0.0000 0.9921 0.1252
vn -0.0000 -0.0881 -0.9961
vn -0.0000 0.9782 -0.2078
vn -0.0000 0.8865 -0.4626
vn -0.0000 0.6651 -0.7467
vn -0.0000 0.3574 -0.9339
vn -0.0000 0.0633 -0.9980
vn -0.0000 0.9819 -0.1892
vn -0.0000 -0.8504 0.5261
vn -0.0000 -0.9164 0.4002
vn -0.0000 -0.9921 0.1252
vn -0.0000 -0.9871 -0.1600
vn -0.0000 -0.9018 -0.4322
vn -0.0000 -0.7431 -0.6692
vn -0.0000 -0.5239 -0.8518
vn -0.0000 -0.2622 -0.9650
vn -0.0000 0.0209 -0.9998
vn -0.0000 0.3024 -0.9532
vn -0.0000 0.3023 -0.9532
vn -0.0000 0.5592 -0.8291
vn -0.0000 0.7705 -0.6375
vn -0.0000 0.9191 -0.3940
vn -0.0000 -0.9818 0.1901
vn -0.0000 -0.9178 0.3971
vn -0.0000 -0.9998 0.0217
vn -0.0000 -0.8779 -0.4788
vn -0.0000 -0.9638 -0.2665
vn -0.0000 -0.9639 -0.2664
vn -0.9924 -0.1157 -0.0426
vn -0.9924 -0.1066 -0.0620
vn -0.9924 -0.0942 -0.0796
vn -0.9924 -0.0789 -0.0947
vn -0.9924 -0.0613 -0.1070
vn -0.9924 -0.0418 -0.1161
vn -0.9924 -0.0210 -0.1215
vn -0.9924 -0.1070 0.0613
vn -0.9924 -0.1161 0.0418
vn -0.9924 -0.0218 0.1214
vn -0.9924 -0.0426 0.1157
vn -0.9924 -0.0620 0.1066
vn -0.9924 -0.0796 0.0942
vn -0.9924 -0.0947 0.0789
vn -0.9924 -0.1214 -0.0218
vn -0.9924 -0.1234 -0.0004
vn -0.9924 -0.1215 0.0210
vn 0.9923 -0.0210 -0.1217
vn 0.9923 -0.0419 -0.1162
vn 0.9923 -0.0614 -0.1072
vn 0.9923 -0.0791 -0.0949
vn 0.9923 -0.0944 -0.0797
vn 0.9923 -0.1068 -0.0621
vn 0.9923 -0.1159 -0.0426
vn 0.9923 -0.1215 -0.0219
vn 0.9923 -0.1235 -0.0004
vn 0.9923 -0.1217 0.0210
vn 0.9923 -0.1162 0.0419
vn 0.9923 -0.0219 0.1215
vn 0.9923 -0.1072 0.0614
vn 0.9923 -0.0949 0.0791
vn 0.9924 -0.0795 0.0941
vn 0.9923 -0.0621 0.1068
vn 0.9924 -0.0425 0.1156
vn -0.0000 -0.2480 0.9687
vn -0.0000 -0.4776 0.8786
vn -0.0000 -0.6782 0.7349
vn -0.0000 -0.8374 0.5465
vn -0.0000 -0.8374 0.5466
vn -0.0000 -0.9457 0.3249
vn -0.0000 -0.9965 0.0835
vn -0.0000 -0.9866 -0.1630
vn -0.0000 -0.9866 -0.1629
vn -0.0000 -0.9167 -0.3995
vn -0.7071 0.2396 0.6653
vn -0.7071 0.6112 0.3556
vn -0.7071 0.6960 0.1251
vn -0.7071 0.6968 -0.1204
vn -0.7071 0.6136 -0.3515
vn -0.7071 0.4564 -0.5402
vn -0.0000 0.3452 -0.9385
vn -0.0000 0.6454 -0.7639
vn -0.0000 0.8677 -0.4971
vn -0.0000 0.9854 -0.1703
vn -0.0000 0.9842 0.1770
vn -0.0000 0.8643 0.5029
vn -0.0000 0.6402 0.7682
vn -0.0000 0.3389 0.9408
vn 0.7071 0.6136 -0.3515
vn 0.7071 0.6968 -0.1205
vn 0.7071 0.6112 0.3556
vn 0.7071 0.2396 0.6653
vn -0.7071 0.2684 0.6542
vn -0.7071 0.4983 0.5017
vn -0.7071 0.4984 0.5017
vn -0.7071 0.6524 0.2728
vn -0.7071 0.7071 0.0024
vn -0.7071 0.6542 -0.2684
vn -0.7071 0.5017 -0.4983
vn -0.7071 0.2728 -0.6524
vn -0.0000 0.3858 -0.9226
vn -0.0000 0.9252 -0.3796
vn -0.0000 1.0000 0.0034
vn -0.0000 0.9226 0.3858
vn -0.0000 0.7047 0.7095
vn -0.0000 0.3796 0.9252
vn 0.7071 0.2728 -0.6524
vn 0.7071 0.2728 -0.6523
vn 0.7071 0.5017 -0.4983
vn 0.7071 0.5016 -0.4983
vn 0.7071 0.6542 -0.2684
vn 0.7071 0.7071 0.0024
vn 0.7071 0.6524 0.2728
vn 0.7071 0.4983 0.5017
vn 0.7071 0.2684 0.6542
vn -0.0166 0.3451 -0.9384
vn -0.0166 0.6453 -0.7638
vn -0.0166 0.8676 -0.4970
vn -0.0166 0.9852 -0.1703
vn -0.0166 0.9841 0.1769
vn -0.0166 0.8642 0.5028
vn -0.0166 0.6401 0.7681
vn -0.0166 0.3388 0.9407
vn 0.0166 0.3451 -0.9384
vn 0.0166 0.6453 -0.7638
vn 0.0166 0.8676 -0.4970
vn 0.0166 0.9852 -0.1703
vn 0.0166 0.9841 0.1769
vn 0.0166 0.8642 0.5028
vn 0.0166 0.6401 0.7681
vn 0.0166 0.3388 0.9407
vn -0.7071 0.6967 -0.1204
vn -0.7071 0.6135 -0.3515
vn -0.7072 0.2440 -0.6636
vn 0.7072 0.2441 -0.6636
vn 0.7071 0.6135 -0.3515
vn 0.7071 0.6967 -0.1204
vn -0.9660 -0.0441 -0.2549
vn -0.9659 -0.0877 -0.2434
vn -0.9659 -0.1286 -0.2245
vn -0.9660 -0.1656 -0.1987
vn -0.9659 -0.1976 -0.1670
vn -0.9659 -0.2236 -0.1301
vn -0.9660 -0.2428 -0.0893
vn -0.9660 -0.2546 -0.0458
vn -0.9659 -0.2588 -0.0009
vn -0.9660 -0.2549 0.0441
vn -0.9659 -0.2434 0.0877
vn -0.9659 -0.2245 0.1286
vn -0.9660 -0.1987 0.1656
vn -0.9659 -0.1670 0.1976
vn -0.9659 -0.1301 0.2236
vn -0.9660 -0.0893 0.2428
vn -0.9660 -0.0458 0.2546
vn -0.5062 -0.1469 -0.8498
vn -0.7071 -0.1205 -0.6968
vn -0.5064 -0.2922 -0.8113
vn -0.7073 -0.2395 -0.6651
vn -0.5064 -0.4286 -0.7482
vn -0.7072 -0.3515 -0.6135
vn -0.5063 -0.5521 -0.6625
vn -0.5063 -0.6588 -0.5565
vn -0.7071 -0.5401 -0.4563
vn -0.5064 -0.7453 -0.4337
vn -0.7073 -0.6110 -0.3555
vn -0.5063 -0.8093 -0.2977
vn -0.7071 -0.6637 -0.2441
vn -0.5064 -0.8487 -0.1526
vn -0.5064 -0.8623 -0.0029
vn -0.7073 -0.7069 -0.0024
vn -0.5062 -0.8498 0.1469
vn -0.5064 -0.8113 0.2922
vn -0.7073 -0.6651 0.2395
vn -0.5063 -0.7483 0.4287
vn -0.7072 -0.6135 0.3515
vn -0.5063 -0.6625 0.5521
vn -0.7071 -0.5432 0.4527
vn -0.5063 -0.5565 0.6588
vn -0.5064 -0.4337 0.7453
vn -0.7073 -0.3555 0.6110
vn -0.5063 -0.2977 0.8093
vn -0.5064 -0.1526 0.8487
vn -0.7071 -0.1251 0.6959
vn 0.5062 -0.1469 -0.8498
vn 0.5064 -0.2922 -0.8113
vn 0.5064 -0.4287 -0.7482
vn 0.5063 -0.5521 -0.6625
vn 0.5063 -0.6587 -0.5565
vn 0.5064 -0.7453 -0.4336
vn 0.5063 -0.8093 -0.2977
vn 0.5064 -0.8487 -0.1526
vn 0.5064 -0.8623 -0.0029
vn 0.5062 -0.8498 0.1469
vn 0.5064 -0.8113 0.2922
vn 0.5063 -0.7483 0.4287
vn 0.5063 -0.6625 0.5521
vn 0.5063 -0.5565 0.6587
vn 0.5064 -0.4336 0.7453
vn 0.5063 -0.2977 0.8093
vn 0.5064 -0.1526 0.8487
vn 0.7071 -0.1204 -0.6968
vn 0.7073 -0.2396 -0.6651
vn 0.7072 -0.3515 -0.6135
vn 0.7071 -0.5401 -0.4563
vn 0.7073 -0.6110 -0.3555
vn 0.7071 -0.6636 -0.2441
vn 0.7073 -0.7069 -0.0023
vn 0.7073 -0.6651 0.2396
vn 0.7072 -0.6135 0.3515
vn 0.7071 -0.5432 0.4527
vn 0.7073 -0.3555 0.6110
vn 0.7071 -0.1251 0.6959
vn 0.9659 -0.0441 -0.2553
vn 0.9659 -0.0877 -0.2435
vn 0.9658 -0.1288 -0.2248
vn 0.9660 -0.1656 -0.1987
vn 0.9659 -0.1977 -0.1670
vn 0.9658 -0.2239 -0.1303
vn 0.9659 -0.2431 -0.0894
vn 0.9659 -0.2550 -0.0458
vn 0.9659 -0.2588 -0.0009
vn 0.9659 -0.2553 0.0441
vn 0.9659 -0.2435 0.0877
vn 0.9659 -0.2245 0.1286
vn 0.9659 -0.1990 0.1658
vn 0.9659 -0.1670 0.1977
vn 0.9659 -0.1301 0.2237
vn 0.9659 -0.0894 0.2431
vn 0.9660 -0.0458 0.2546
s 1
usemtl grey.010
f 1//1 2//2 3//3
f 3//3 2//2 4//4
f 3//3 4//4 5//5
f 5//5 4//4 6//6
f 5//5 6//6 7//7
f 7//7 6//6 8//8
f 7//7 8//8 9//9
f 9//9 8//8 10//10
f 9//9 10//10 11//11
f 11//11 10//10 12//12
f 11//11 12//12 13//13
f 13//13 12//12 14//14
f 13//13 14//14 15//15
f 15//15 14//14 16//16
f 15//15 16//16 17//17
f 17//17 16//16 18//18
f 17//17 18//18 19//19
f 19//19 18//18 20//20
f 19//19 20//20 21//21
f 21//21 20//20 22//22
f 21//21 22//22 23//23
f 23//23 22//22 24//24
f 23//23 24//24 25//25
f 25//25 24//24 26//26
f 25//25 26//26 27//27
f 27//27 26//26 28//28
f 27//27 28//28 29//29
f 29//29 28//28 30//30
f 29//29 30//30 31//31
f 31//31 30//30 32//32
f 31//31 32//32 33//33
f 33//33 32//32 34//34
f 33//33 34//34 35//35
f 35//35 34//34 36//36
f 35//35 36//36 37//37
f 37//37 36//36 38//38
f 39//39 1//1 40//40
f 40//40 1//1 3//3
f 40//40 3//3 41//41
f 41//41 3//3 5//5
f 41//41 5//5 42//42
f 42//42 5//5 7//7
f 42//42 7//7 43//43
f 43//43 7//7 9//9
f 43//43 9//9 44//44
f 44//44 9//9 11//11
f 44//44 11//11 45//45
f 45//45 11//11 13//13
f 45//45 13//13 46//46
f 46//46 13//13 15//15
f 46//46 15//15 47//47
f 47//47 15//15 17//17
f 47//47 17//17 48//48
f 48//48 17//17 19//19
f 48//48 19//19 49//49
f 49//49 19//19 21//21
f 49//49 21//21 50//50
f 50//50 21//21 23//23
f 50//50 23//23 51//51
f 51//51 23//23 25//25
f 51//51 25//25 52//52
f 52//52 25//25 27//27
f 52//52 27//27 53//53
f 53//53 27//27 29//29
f 53//53 29//29 54//54
f 54//54 29//29 31//31
f 54//54 31//31 55//55
f 55//55 31//31 33//33
f 55//55 33//33 56//56
f 56//56 33//33 35//35
f 56//56 35//35 57//57
f 57//57 35//35 37//37
f 58//58 39//59 59//60
f 59//60 39//59 40//61
f 59//60 40//61 60//62
f 60//62 40//61 41//63
f 60//62 41//63 61//64
f 61//64 41//63 42//65
f 61//64 42//65 62//66
f 62//66 42//65 43//67
f 62//66 43//67 63//68
f 63//68 43//67 44//69
f 63//68 44//69 64//70
f 64//70 44//69 45//71
f 64//70 45//71 65//72
f 65//72 45//71 46//73
f 65//72 46//73 66//74
f 66//74 46//73 47//75
f 66//74 47//75 67//76
f 67//76 47//75 48//77
f 67//76 48//77 68//78
f 68//78 48//77 49//79
f 68//78 49//79 69//80
f 69//80 49//79 50//81
f 69//80 50//81 70//82
f 70//82 50//81 51//83
f 70//82 51//83 71//84
f 71//84 51//83 52//85
f 71//84 52//85 72//86
f 72//86 52//85 53//87
f 72//86 53//87 73//88
f 73//88 53//87 54//89
f 73//88 54//89 74//90
f 74//90 54//89 55//91
f 74//90 55//91 75//92
f 75//92 55//91 56//93
f 75//92 56//93 76//94
f 76//94 56//93 57//95
f 77//96 78//97 79//98
f 79//98 78//97 80//99
f 79//98 80//99 81//100
f 81//100 80//99 82//101
f 81//100 82//101 83//102
f 83//102 82//101 84//103
f 83//102 84//103 85//104
f 85//104 84//103 86//105
f 85//104 86//105 87//106
f 87//106 86//105 88//107
f 87//106 88//107 89//108
f 89//108 88//107 90//109
f 89//108 90//109 91//110
f 91//110 90//109 92//111
f 91//110 92//111 93//112
f 93//112 92//111 94//113
f 93//112 94//113 95//114
f 95//114 94//113 96//115
f 95//114 96//115 97//116
f 97//116 96//115 98//117
f 97//116 98//117 99//118
f 99//118 98//117 100//119
f 99//118 100//119 101//120
f 101//120 100//119 102//121
f 101//120 102//121 103//122
f 103//122 102//121 104//123
f 103//122 104//123 105//124
f 105//124 104//123 106//125
f 105//124 106//125 107//126
f 107//126 106//125 108//127
f 107//126 108//127 109//128
f 109//128 108//127 110//129
f 109//128 110//129 111//130
f 111//130 110//129 112//131
f 111//130 112//131 113//132
f 113//132 112//131 114//133
f 115//134 77//135 116//136
f 116//136 77//135 79//137
f 116//136 79//137 117//138
f 117//138 79//137 81//139
f 117//138 81//139 118//140
f 118//140 81//139 83//141
f 118//140 83//141 119//142
f 119//142 83//141 85//143
f 119//142 85//143 120//144
f 120//144 85//143 87//145
f 120//144 87//145 121//146
f 121//146 87//145 89//147
f 121//146 89//147 122//148
f 122//148 89//147 91//149
f 122//148 91//149 123//150
f 123//150 91//149 93//151
f 123//150 93//151 124//152
f 124//152 93//151 95//153
f 124//152 95//153 125//154
f 125//154 95//153 97//155
f 125//154 97//155 126//156
f 126//156 97//155 99//157
f 126//156 99//157 127//158
f 127//158 99//157 101//159
f 127//158 101//159 128//160
f 128//160 101//159 103//161
f 128//160 103//161 129//162
f 129//162 103//161 105//163
f 129//162 105//163 130//164
f 130//164 105//163 107//165
f 130//164 107//165 131//166
f 131//166 107//165 109//167
f 131//166 109//167 132//168
f 132//168 109//167 111//169
f 132//168 111//169 133//170
f 133//170 111//169 113//171
f 134//172 115//134 135//173
f 135//173 115//134 116//136
f 135//173 116//136 136//174
f 136//174 116//136 117//138
f 136//174 117//138 137//175
f 137//175 117//138 118//140
f 137//175 118//140 138//176
f 138//176 118//140 119//142
f 138//176 119//142 139//177
f 139//177 119//142 120//144
f 139//177 120//144 140//178
f 140//178 120//144 121//146
f 140//178 121//146 141//179
f 141//179 121//146 122//148
f 141//179 122//148 142//180
f 142//180 122//148 123//150
f 142//180 123//150 143//181
f 143//181 123//150 124//152
f 143//181 124//152 144//182
f 144//182 124//152 125//154
f 144//182 125//154 145//183
f 145//183 125//154 126//156
f 145//183 126//156 146//184
f 146//184 126//156 127//158
f 146//184 127//158 147//185
f 147//185 127//158 128//160
f 147//185 128//160 148//186
f 148//186 128//160 129//162
f 148//186 129//162 149//187
f 149//187 129//162 130//164
f 149//187 130//164 150//188
f 150//188 130//164 131//166
f 150//188 131//166 151//189
f 151//189 131//166 132//168
f 151//189 132//168 152//190
f 152//190 132//168 133//170
f 153//191 154//191 155//192
f 153//191 155//192 156//192
f 156//192 155//192 157//193
f 156//192 157//193 158//193
f 158//193 157//193 159//194
f 158//193 159//194 160//194
f 160//194 159//194 161//195
f 160//194 161//195 162//195
f 162//195 161//195 163//196
f 162//195 163//196 164//196
f 164//196 163//196 165//197
f 164//196 165//197 166//197
f 166//197 165//197 167//198
f 166//197 167//198 168//199
f 168//199 167//198 169//200
f 168//199 169//200 170//200
f 170//200 169//200 171//201
f 170//200 171//201 172//201
f 173//202 174//202 175//203
f 173//202 175//203 176//203
f 176//203 175//203 177//204
f 176//203 177//204 178//204
f 178//204 177//204 179//205
f 178//204 179//205 180//205
f 180//205 179//205 181//206
f 180//205 181//206 182//206
f 182//206 181//206 183//207
f 182//206 183//207 184//208
f 184//208 183//207 185//209
f 184//208 185//209 186//209
f 186//209 185//209 187//210
f 186//209 187//210 188//210
f 188//210 187//210 189//211
f 188//210 189//211 190//211
f 190//211 189//211 191//212
f 190//211 191//212 192//212
s 0
f 164//213 166//213 168//213
f 193//213 194//213 195//213
f 196//213 197//213 198//213
f 195//213 168//213 170//213
f 198//213 193//213 196//213
f 196//213 193//213 195//213
f 196//213 195//213 199//213
f 199//213 195//213 170//213
f 199//213 170//213 172//213
f 195//213 200//213 168//213
f 168//213 200//213 153//213
f 168//213 153//213 156//213
f 162//213 164//213 160//213
f 160//213 164//213 168//213
f 160//213 168//213 158//213
f 158//213 168//213 156//213
s 1
f 2//2 201//214 154//215
f 154//215 201//214 155//216
f 201//214 202//217 155//216
f 155//216 202//217 203//218
f 155//216 203//218 157//219
f 203//218 204//220 157//219
f 157//219 204//220 205//221
f 157//219 205//221 159//222
f 205//221 206//223 159//222
f 159//222 206//223 207//224
f 159//222 207//224 161//225
f 207//224 208//226 161//225
f 161//225 208//226 209//227
f 161//225 209//227 163//228
f 209//227 210//229 163//228
f 163//228 210//229 211//230
f 163//228 211//230 165//231
f 211//230 212//232 165//231
f 165//231 212//232 213//233
f 165//231 213//233 167//234
f 213//233 214//235 167//234
f 167//234 214//235 215//236
f 167//234 215//236 169//237
f 38//38 171//238 216//239
f 216//239 171//238 169//237
f 216//239 169//237 217//240
f 217//240 169//237 215//236
f 134//172 191//241 218//242
f 218//242 191//241 189//243
f 218//242 189//243 219//244
f 219//244 189//243 220//245
f 220//245 189//243 187//246
f 220//245 187//246 221//247
f 221//247 187//246 222//248
f 222//248 187//246 185//249
f 222//248 185//249 223//250
f 223//250 185//249 224//251
f 224//251 185//249 183//252
f 224//251 183//252 225//253
f 225//253 183//252 226//254
f 226//254 183//252 181//255
f 226//254 181//255 227//256
f 227//256 181//255 228//257
f 228//257 181//255 179//258
f 228//257 179//258 229//259
f 229//259 179//258 230//260
f 230//260 179//258 177//261
f 230//260 177//261 231//262
f 231//262 177//261 232//263
f 232//263 177//261 175//264
f 232//263 175//264 233//265
f 233//265 175//264 234//266
f 234//266 175//264 174//267
f 234//266 174//267 152//190
s 0
f 192//268 180//268 182//268
f 235//268 236//268 237//268
f 173//268 176//268 192//268
f 192//268 176//268 178//268
f 192//268 178//268 180//268
f 235//268 238//268 192//268
f 192//268 238//268 239//268
f 192//268 239//268 173//268
f 237//268 240//268 241//268
f 188//268 190//268 186//268
f 186//268 190//268 192//268
f 186//268 192//268 184//268
f 184//268 192//268 182//268
f 235//268 237//268 238//268
f 238//268 237//268 241//268
f 238//268 241//268 242//268
s 1
f 243//191 244//191 245//269
f 245//269 244//191 246//270
f 245//269 246//270 247//271
f 247//271 246//270 248//271
f 247//271 248//271 249//272
f 249//272 248//271 250//272
f 249//272 250//272 251//273
f 251//273 250//272 252//274
f 251//273 252//274 253//275
f 253//275 252//274 254//276
f 253//275 254//276 255//277
f 255//277 254//276 256//277
f 255//277 256//277 257//278
f 257//278 256//277 258//278
f 257//278 258//278 259//201
f 259//201 258//278 260//201
f 261//279 243//279 262//280
f 262//280 243//279 245//280
f 262//280 245//280 263//281
f 263//281 245//280 247//281
f 263//281 247//281 264//282
f 264//282 247//281 249//282
f 264//282 249//282 265//283
f 265//283 249//282 251//283
f 265//283 251//283 266//284
f 266//284 251//283 253//284
f 266//284 253//284 267//285
f 267//285 253//284 255//285
f 267//285 255//285 268//286
f 268//286 255//285 257//286
f 268//286 257//286 269//287
f 269//287 257//286 259//287
f 269//202 270//202 268//288
f 268//288 270//202 271//288
f 268//288 271//288 267//289
f 267//289 271//288 272//289
f 267//289 272//289 266//290
f 266//290 272//289 273//290
f 266//290 273//290 265//291
f 265//291 273//290 274//291
f 265//291 274//291 264//292
f 264//292 274//291 275//292
f 264//292 275//292 263//293
f 263//293 275//292 276//293
f 263//293 276//293 262//294
f 262//294 276//293 277//294
f 262//294 277//294 261//212
f 261//212 277//294 278//212
f 279//191 280//191 281//295
f 281//295 280//191 282//295
f 281//295 282//295 283//193
f 283//193 282//295 284//193
f 283//193 284//193 285//296
f 285//296 284//193 286//296
f 285//296 286//296 287//297
f 287//297 286//296 288//297
f 287//297 288//297 289//196
f 289//196 288//297 290//196
f 289//196 290//196 291//197
f 291//197 290//196 292//197
f 291//197 292//197 293//298
f 293//298 292//197 294//298
f 293//298 294//298 295//299
f 295//299 294//298 296//299
f 295//299 296//299 297//300
f 297//300 296//299 298//201
f 299//279 279//279 300//301
f 300//301 279//279 281//301
f 300//301 281//301 301//302
f 301//302 281//301 283//302
f 301//302 283//302 302//303
f 302//303 283//302 285//303
f 302//303 285//303 303//304
f 303//304 285//303 287//304
f 303//304 287//304 304//305
f 304//305 287//304 289//305
f 304//305 289//305 305//306
f 305//306 289//305 291//306
f 305//306 291//306 306//307
f 306//307 291//306 293//307
f 306//307 293//307 307//308
f 307//308 293//307 295//308
f 307//308 295//308 308//287
f 308//287 295//308 297//287
f 308//202 309//202 307//203
f 307//203 309//202 310//203
f 307//203 310//203 306//309
f 306//309 310//203 311//309
f 306//309 311//309 305//205
f 305//205 311//309 312//205
f 305//205 312//205 304//310
f 304//310 312//205 313//310
f 304//310 313//310 303//311
f 303//311 313//310 314//208
f 303//311 314//208 302//209
f 302//209 314//208 315//209
f 302//209 315//209 301//312
f 301//312 315//209 316//312
f 301//312 316//312 300//313
f 300//313 316//312 317//313
f 300//313 317//313 299//212
f 299//212 317//313 318//212
f 319//314 320//314 321//315
f 319//314 321//315 322//315
f 322//315 321//315 323//316
f 322//315 323//316 324//316
f 324//316 323//316 325//317
f 324//316 325//317 326//317
f 326//317 325//317 327//318
f 326//317 327//318 328//318
f 328//318 327//318 329//319
f 328//318 329//319 330//319
f 330//319 329//319 331//320
f 330//319 331//320 332//320
f 332//320 331//320 333//321
f 332//320 333//321 334//321
f 334//321 333//321 335//322
f 334//321 335//322 336//322
f 336//322 335//322 337//323
f 336//322 337//323 338//323
f 338//323 337//323 339//324
f 338//323 339//324 340//324
f 341//325 342//325 343//326
f 343//326 342//325 344//326
f 343//326 344//326 319//314
f 319//314 344//326 320//314
f 341//325 345//327 342//325
f 342//325 345//328 346//328
f 347//329 348//329 349//330
f 349//330 348//329 350//330
f 349//330 350//330 345//328
f 345//328 350//330 346//328
f 347//329 351//331 348//329
f 348//329 351//331 352//331
f 353//332 354//332 355//333
f 353//332 355//333 356//333
f 356//333 355//333 357//334
f 356//333 357//334 358//334
f 358//334 357//334 359//335
f 358//334 359//335 360//335
f 360//335 359//335 361//336
f 360//335 361//336 362//336
f 362//336 361//336 352//331
f 362//336 352//331 351//331
f 353//332 363//337 354//332
f 354//332 363//337 364//337
f 365//338 366//338 367//339
f 367//339 366//338 368//339
f 367//339 368//339 369//340
f 369//340 368//339 370//340
f 369//340 370//340 371//341
f 371//341 370//340 372//341
f 371//341 372//341 373//342
f 373//342 372//341 374//342
f 365//338 375//343 366//338
f 366//338 375//343 376//343
f 377//344 378//344 379//345
f 377//344 379//345 380//345
f 380//345 379//345 381//346
f 380//345 381//346 382//346
f 382//346 381//346 383//347
f 382//346 383//347 384//347
f 384//347 383//347 385//348
f 384//347 385//348 386//348
f 386//348 385//348 387//349
f 386//348 387//349 388//349
f 388//349 387//349 389//350
f 388//349 389//350 390//350
f 390//350 389//350 391//351
f 390//350 391//351 392//351
f 392//351 391//351 393//352
f 392//351 393//352 394//352
f 394//352 393//352 395//353
f 394//352 395//353 396//354
f 396//354 395//353 397//355
f 396//354 397//355 398//355
f 398//355 397//355 399//356
f 398//355 399//356 400//356
f 400//356 399//356 401//357
f 400//356 401//357 402//357
f 402//357 401//357 376//343
f 402//357 376//343 375//343
f 403//358 404//358 405//359
f 405//359 404//358 406//359
f 405//359 406//359 377//344
f 377//344 406//359 378//344
f 403//358 407//360 404//358
f 404//358 407//360 408//360
f 409//361 410//361 411//362
f 411//362 410//361 412//362
f 411//363 412//363 407//360
f 407//360 412//363 408//360
s 0
f 413//268 414//268 313//268
f 313//268 414//268 314//268
f 415//268 406//268 416//268
f 416//268 406//268 404//268
f 416//268 404//268 417//268
f 417//268 404//268 408//268
f 417//268 408//268 418//268
f 418//268 408//268 419//268
f 368//268 278//268 370//268
f 370//268 278//268 277//268
f 370//268 277//268 372//268
f 372//268 277//268 276//268
f 313//268 312//268 413//268
f 413//268 312//268 311//268
f 413//268 311//268 415//268
f 368//268 366//268 278//268
f 278//268 366//268 376//268
f 278//268 376//268 401//268
f 275//268 357//268 355//268
f 270//268 342//268 271//268
f 271//268 342//268 346//268
f 271//268 346//268 272//268
f 420//268 389//268 421//268
f 421//268 389//268 387//268
f 421//268 387//268 422//268
f 422//268 387//268 385//268
f 422//268 385//268 423//268
f 423//268 385//268 383//268
f 423//268 383//268 424//268
f 424//268 383//268 381//268
f 424//268 381//268 425//268
f 425//268 381//268 379//268
f 425//268 379//268 426//268
f 426//268 379//268 378//268
f 426//268 378//268 406//268
f 355//268 354//268 275//268
f 275//268 354//268 364//268
f 275//268 364//268 276//268
f 276//268 364//268 374//268
f 276//268 374//268 372//268
f 352//268 361//268 275//268
f 275//268 361//268 359//268
f 275//268 359//268 357//268
f 311//268 310//268 415//268
f 415//268 310//268 309//268
f 415//268 309//268 406//268
f 406//268 309//268 427//268
f 406//268 427//268 426//268
f 414//268 278//268 314//268
f 314//268 278//268 401//268
f 314//268 401//268 315//268
f 315//268 401//268 399//268
f 315//268 399//268 316//268
f 316//268 399//268 397//268
f 316//268 397//268 317//268
f 317//268 397//268 395//268
f 317//268 395//268 318//268
f 318//268 395//268 393//268
f 318//268 393//268 420//268
f 420//268 393//268 391//268
f 420//268 391//268 389//268
f 275//268 274//268 352//268
f 352//268 274//268 273//268
f 352//268 273//268 348//268
f 348//268 273//268 272//268
f 348//268 272//268 350//268
f 350//268 272//268 346//268
f 408//268 412//268 419//268
s 1
f 419//268 412//268 428//364
f 419//268 428//364 270//268
f 270//268 428//364 429//365
f 270//268 429//365 430//366
f 112//131 110//129 344//268
f 112//131 344//268 114//133
f 430//366 431//367 270//268
f 270//268 431//367 432//368
f 270//268 432//368 342//268
f 342//268 432//368 433//369
f 342//268 433//369 344//268
f 344//268 433//369 434//370
f 344//268 434//370 114//133
f 337//268 80//99 339//268
f 339//268 80//99 78//97
f 339//268 78//97 435//268
f 436//268 437//371 438//268
f 438//268 437//371 439//372
f 438//268 439//372 440//268
f 110//129 108//127 344//268
f 344//268 108//127 106//125
f 344//268 106//125 320//268
f 320//268 106//125 104//123
f 320//268 104//123 321//268
f 321//268 104//123 102//121
f 321//268 102//121 323//268
f 323//268 102//121 100//119
f 323//268 100//119 325//268
f 100//119 98//117 325//268
f 325//268 98//117 96//115
f 325//268 96//115 327//268
f 327//268 96//115 94//113
f 327//268 94//113 329//268
f 329//268 94//113 92//111
f 329//268 92//111 331//268
f 78//97 441//373 435//268
f 435//268 441//373 442//374
f 435//268 442//374 443//268
f 443//268 442//374 444//375
f 443//268 444//375 445//268
f 445//268 444//375 446//376
f 445//268 446//376 436//268
f 436//268 446//376 447//377
f 436//268 447//377 437//371
f 412//268 410//268 428//364
f 428//364 410//268 448//268
f 428//364 448//268 449//378
f 449//378 448//268 450//268
f 449//378 450//268 451//379
f 451//379 450//268 440//268
f 451//379 440//268 452//380
f 452//380 440//268 439//372
f 92//111 90//109 331//268
f 331//268 90//109 88//107
f 331//268 88//107 333//268
f 333//268 88//107 86//105
f 333//268 86//105 335//268
f 335//268 86//105 84//103
f 335//268 84//103 337//268
f 337//268 84//103 82//101
f 337//268 82//101 80//99
s 0
f 347//213 258//213 256//213
f 250//213 248//213 373//213
f 347//213 256//213 351//213
f 292//213 290//213 244//213
f 358//213 360//213 250//213
f 250//213 360//213 362//213
f 250//213 362//213 252//213
f 252//213 362//213 351//213
f 252//213 351//213 254//213
f 254//213 351//213 256//213
f 356//213 358//213 353//213
f 353//213 358//213 250//213
f 353//213 250//213 363//213
f 363//213 250//213 373//213
f 453//213 454//213 455//213
f 405//213 456//213 403//213
f 403//213 456//213 457//213
f 403//213 457//213 407//213
f 345//213 458//213 349//213
f 349//213 458//213 459//213
f 349//213 459//213 347//213
f 347//213 459//213 260//213
f 347//213 260//213 258//213
f 453//213 298//213 454//213
f 454//213 298//213 296//213
f 454//213 296//213 244//213
f 244//213 296//213 294//213
f 244//213 294//213 292//213
s 1
f 458//213 460//381 461//382
f 343//213 319//213 67//76
f 67//76 319//213 322//213
s 0
f 457//213 462//213 407//213
f 407//213 462//213 458//213
f 407//213 458//213 411//213
s 1
f 411//213 458//213 461//382
s 0
f 284//213 400//213 286//213
f 286//213 400//213 402//213
f 286//213 402//213 288//213
f 288//213 402//213 375//213
f 288//213 375//213 290//213
f 290//213 375//213 365//213
f 290//213 365//213 244//213
f 244//213 365//213 367//213
f 244//213 367//213 246//213
f 246//213 367//213 369//213
f 246//213 369//213 248//213
f 248//213 369//213 371//213
f 248//213 371//213 373//213
s 1
f 67//76 68//78 343//213
f 343//213 68//78 69//80
f 343//213 69//80 70//82
f 70//82 71//84 343//213
f 343//213 71//84 72//86
f 343//213 72//86 341//213
f 341//213 72//86 73//88
f 341//213 73//88 345//213
f 461//382 463//383 411//213
f 411//213 463//383 464//384
f 411//213 464//384 409//213
f 409//213 464//384 465//385
f 409//213 465//385 466//213
s 0
f 467//213 390//213 468//213
f 468//213 390//213 392//213
f 468//213 392//213 280//213
f 280//213 392//213 394//213
f 280//213 394//213 282//213
f 282//213 394//213 396//213
f 282//213 396//213 284//213
f 284//213 396//213 398//213
f 284//213 398//213 400//213
f 455//213 456//213 453//213
f 453//213 456//213 405//213
f 453//213 405//213 469//213
f 469//213 405//213 377//213
f 469//213 377//213 470//213
f 470//213 377//213 380//213
f 470//213 380//213 471//213
f 471//213 380//213 382//213
f 471//213 382//213 472//213
f 472//213 382//213 384//213
f 472//213 384//213 473//213
f 473//213 384//213 386//213
f 473//213 386//213 467//213
f 467//213 386//213 388//213
f 467//213 388//213 390//213
s 1
f 73//88 74//90 345//213
f 345//213 74//90 75//92
f 345//213 75//92 458//213
f 458//213 75//92 76//94
f 458//213 76//94 460//381
f 465//385 474//386 466//213
f 466//213 474//386 475//387
f 466//213 475//387 476//213
f 476//213 475//387 477//388
f 476//213 477//388 478//213
f 477//388 479//389 478//213
f 478//213 479//389 480//390
f 478//213 480//390 481//213
f 481//213 480//390 482//391
f 481//213 482//391 483//213
f 484//213 485//392 340//213
f 340//213 485//392 58//58
f 340//213 58//58 338//213
f 322//213 324//213 67//76
f 67//76 324//213 326//213
f 67//76 326//213 66//74
f 66//74 326//213 328//213
f 66//74 328//213 65//72
f 65//72 328//213 330//213
f 65//72 330//213 64//70
f 64//70 330//213 332//213
f 482//391 486//393 483//213
f 483//213 486//393 487//394
f 483//213 487//394 488//213
f 488//213 487//394 489//395
f 488//213 489//395 490//213
f 490//213 489//395 491//396
f 490//213 491//396 484//213
f 484//213 491//396 492//397
f 484//213 492//397 485//392
f 58//58 59//60 338//213
f 338//213 59//60 60//62
f 338//213 60//62 336//213
f 336//213 60//62 61//64
f 336//213 61//64 334//213
f 334//213 61//64 62//66
f 334//213 62//66 332//213
f 332//213 62//66 63//68
f 332//213 63//68 64//70
f 373//342 374//342 363//337
f 363//337 374//342 364//337
f 340//324 339//324 435//398
f 340//324 435//398 484//398
f 484//398 435//398 443//399
f 484//398 443//399 490//399
f 490//399 443//399 445//400
f 490//399 445//400 488//400
f 488//400 445//400 436//401
f 488//400 436//401 483//402
f 483//402 436//401 438//403
f 483//402 438//403 481//403
f 481//403 438//403 440//404
f 481//403 440//404 478//404
f 478//404 440//404 450//405
f 478//404 450//405 476//406
f 476//406 450//405 448//407
f 476//406 448//407 466//407
f 466//407 448//407 410//361
f 466//407 410//361 409//361
f 299//212 318//212 493//408
f 493//408 318//212 420//408
f 493//408 420//408 494//143
f 494//143 420//408 421//143
f 494//143 421//143 495//409
f 495//409 421//143 422//409
f 495//409 422//409 496//410
f 496//410 422//409 423//410
f 496//410 423//410 497//155
f 497//155 423//410 424//411
f 497//155 424//411 498//412
f 498//412 424//411 425//412
f 498//412 425//412 499//413
f 499//413 425//412 426//413
f 499//413 426//413 500//167
f 500//167 426//413 427//167
f 500//167 427//167 308//202
f 308//202 427//167 309//202
f 308//287 297//287 500//414
f 500//414 297//287 501//414
f 500//414 501//414 499//415
f 499//415 501//414 502//415
f 499//415 502//415 498//416
f 498//416 502//415 503//416
f 498//416 503//416 497//417
f 497//417 503//416 504//417
f 497//417 504//417 496//418
f 496//418 504//417 505//418
f 496//418 505//418 495//419
f 495//419 505//418 506//419
f 495//419 506//419 494//420
f 494//420 506//419 507//420
f 494//420 507//420 493//421
f 493//421 507//420 508//421
f 493//421 508//421 299//279
f 299//279 508//421 279//279
f 297//300 298//201 501//55
f 501//55 298//201 453//55
f 501//55 453//55 502//53
f 502//53 453//55 469//53
f 502//53 469//53 503//422
f 503//422 469//53 470//422
f 503//422 470//422 504//423
f 504//423 470//422 471//423
f 504//423 471//423 505//47
f 505//47 471//423 472//47
f 505//47 472//47 506//424
f 506//424 472//47 473//424
f 506//424 473//424 507//43
f 507//43 473//424 467//43
f 507//43 467//43 508//425
f 508//425 467//43 468//425
f 508//425 468//425 279//191
f 279//191 468//425 280//191
f 261//212 278//212 509//426
f 509//426 278//212 414//426
f 509//426 414//426 510//427
f 510//427 414//426 413//428
f 510//427 413//428 511//429
f 511//429 413//428 415//429
f 511//429 415//429 512//430
f 512//430 415//429 416//430
f 512//430 416//430 513//431
f 513//431 416//430 417//431
f 513//431 417//431 514//432
f 514//432 417//431 418//432
f 514//432 418//432 515//433
f 515//433 418//432 419//433
f 515//433 419//433 269//202
f 269//202 419//433 270//202
f 269//287 259//287 515//434
f 515//434 259//287 516//434
f 515//434 516//434 514//334
f 514//334 516//434 517//334
f 514//334 517//334 513//435
f 513//435 517//334 518//435
f 513//435 518//435 512//436
f 512//436 518//435 519//436
f 512//436 519//436 511//437
f 511//437 519//436 520//437
f 511//437 520//437 510//438
f 510//438 520//437 521//438
f 510//438 521//438 509//439
f 509//439 521//438 522//439
f 509//439 522//439 261//279
f 261//279 522//439 243//279
f 259//201 260//201 516//440
f 516//440 260//201 459//441
f 516//440 459//441 517//442
f 517//442 459//441 458//443
f 517//442 458//443 518//444
f 518//444 458//443 462//444
f 518//444 462//444 519//445
f 519//445 462//444 457//445
f 519//445 457//445 520//446
f 520//446 457//445 456//446
f 520//446 456//446 521//447
f 521//447 456//446 455//447
f 521//447 455//447 522//448
f 522//448 455//447 454//448
f 522//448 454//448 243//191
f 243//191 454//448 244//191
f 152//190 174//267 151//189
f 151//189 174//267 523//449
f 151//189 523//449 150//188
f 150//188 523//449 149//187
f 149//187 523//449 524//450
f 149//187 524//450 148//186
f 148//186 524//450 147//185
f 147//185 524//450 525//451
f 147//185 525//451 146//184
f 146//184 525//451 145//183
f 145//183 525//451 526//452
f 145//183 526//452 144//182
f 144//182 526//452 143//181
f 143//181 526//452 527//453
f 143//181 527//453 142//180
f 142//180 527//453 141//179
f 141//179 527//453 528//454
f 141//179 528//454 140//178
f 140//178 528//454 139//177
f 139//177 528//454 529//455
f 139//177 529//455 138//176
f 138//176 529//455 137//175
f 137//175 529//455 530//456
f 137//175 530//456 136//174
f 136//174 530//456 135//173
f 135//173 530//456 191//241
f 135//173 191//241 134//172
f 38//38 36//36 171//238
f 171//238 36//36 531//457
f 36//36 34//34 531//457
f 531//457 34//34 32//32
f 531//457 32//32 532//458
f 32//32 30//30 532//458
f 532//458 30//30 28//28
f 532//458 28//28 533//459
f 28//28 26//26 533//459
f 533//459 26//26 24//24
f 533//459 24//24 534//460
f 24//24 22//22 534//460
f 534//460 22//22 20//20
f 534//460 20//20 535//461
f 20//20 18//18 535//461
f 535//461 18//18 16//16
f 535//461 16//16 536//462
f 16//16 14//14 536//462
f 536//462 14//14 12//12
f 536//462 12//12 537//463
f 12//12 10//10 537//463
f 537//463 10//10 8//8
f 537//463 8//8 538//464
f 2//2 154//215 4//4
f 4//4 154//215 538//464
f 4//4 538//464 6//6
f 6//6 538//464 8//8
f 192//212 191//212 530//408
f 192//212 530//408 235//408
f 235//408 530//408 529//143
f 235//408 529//143 236//143
f 236//143 529//143 528//409
f 236//143 528//409 237//409
f 237//409 528//409 527//151
f 237//409 527//151 240//151
f 240//151 527//151 526//465
f 240//151 526//465 241//465
f 241//465 526//465 525//466
f 241//465 525//466 242//466
f 242//466 525//466 524//163
f 242//466 524//163 238//163
f 238//163 524//163 523//467
f 238//163 523//467 239//467
f 239//467 523//467 174//202
f 239//467 174//202 173//202
f 172//201 171//201 531//468
f 172//201 531//468 199//468
f 199//468 531//468 532//53
f 199//468 532//53 196//53
f 196//53 532//53 533//469
f 196//53 533//469 197//469
f 197//469 533//469 534//470
f 197//469 534//470 198//470
f 198//470 534//470 535//47
f 198//470 535//47 193//47
f 193//47 535//47 536//424
f 193//47 536//424 194//424
f 194//424 536//424 537//43
f 194//424 537//43 195//43
f 195//43 537//43 538//425
f 195//43 538//425 200//425
f 200//425 538//425 154//191
f 200//425 154//191 153//191
f 113//132 114//133 539//471
f 539//471 114//133 434//370
f 539//471 434//370 540//472
f 540//472 434//370 433//369
f 540//472 433//369 541//473
f 541//473 433//369 432//368
f 541//473 432//368 542//474
f 542//474 432//368 431//367
f 542//474 431//367 543//475
f 543//475 431//367 430//366
f 543//475 430//366 544//476
f 544//476 430//366 429//365
f 544//476 429//365 545//477
f 545//477 429//365 428//364
f 545//477 428//364 546//478
f 546//478 428//364 449//378
f 546//478 449//378 547//479
f 547//479 449//378 451//379
f 547//479 451//379 548//480
f 548//480 451//379 452//380
f 548//480 452//380 549//481
f 549//481 452//380 439//372
f 549//481 439//372 550//482
f 550//482 439//372 437//371
f 550//482 437//371 551//483
f 551//483 437//371 447//377
f 551//483 447//377 552//484
f 552//484 447//377 446//376
f 552//484 446//376 553//485
f 553//485 446//376 444//375
f 553//485 444//375 554//486
f 554//486 444//375 442//374
f 554//486 442//374 555//487
f 555//487 442//374 441//373
f 555//487 441//373 77//96
f 77//96 441//373 78//97
f 133//170 113//171 556//488
f 556//488 113//171 539//489
f 556//488 539//489 557//490
f 557//490 539//489 540//491
f 557//490 540//491 558//492
f 558//492 540//491 541//493
f 558//492 541//493 559//494
f 559//494 541//493 542//309
f 559//494 542//309 560//495
f 560//495 542//309 543//496
f 560//495 543//496 561//497
f 561//497 543//496 544//498
f 561//497 544//498 562//499
f 562//499 544//498 545//500
f 562//499 545//500 563//501
f 563//501 545//500 546//206
f 563//501 546//206 564//502
f 564//502 546//206 547//503
f 564//502 547//503 565//504
f 565//504 547//503 548//311
f 565//504 548//311 566//505
f 566//505 548//311 549//506
f 566//505 549//506 567//507
f 567//507 549//506 550//508
f 567//507 550//508 568//509
f 568//509 550//508 551//510
f 568//509 551//510 569//511
f 569//511 551//510 552//210
f 569//511 552//210 570//512
f 570//512 552//210 553//513
f 570//512 553//513 571//514
f 571//514 553//513 554//313
f 571//514 554//313 572//515
f 572//515 554//313 555//516
f 572//515 555//516 115//134
f 115//134 555//516 77//135
f 152//190 133//170 234//266
f 234//266 133//170 556//488
f 234//266 556//488 233//265
f 233//265 556//488 557//490
f 233//265 557//490 232//263
f 232//263 557//490 558//492
f 232//263 558//492 231//262
f 231//262 558//492 559//494
f 231//262 559//494 230//260
f 230//260 559//494 560//495
f 230//260 560//495 229//259
f 229//259 560//495 561//497
f 229//259 561//497 228//257
f 228//257 561//497 562//499
f 228//257 562//499 227//256
f 227//256 562//499 563//501
f 227//256 563//501 226//254
f 226//254 563//501 564//502
f 226//254 564//502 225//253
f 225//253 564//502 565//504
f 225//253 565//504 224//251
f 224//251 565//504 566//505
f 224//251 566//505 223//250
f 223//250 566//505 567//507
f 223//250 567//507 222//248
f 222//248 567//507 568//509
f 222//248 568//509 221//247
f 221//247 568//509 569//511
f 221//247 569//511 220//245
f 220//245 569//511 570//512
f 220//245 570//512 219//244
f 219//244 570//512 571//514
f 219//244 571//514 218//242
f 218//242 571//514 572//515
f 218//242 572//515 134//172
f 134//172 572//515 115//134
f 37//37 38//38 573//517
f 573//517 38//38 216//239
f 573//517 216//239 574//518
f 574//518 216//239 217//240
f 574//518 217//240 575//519
f 575//519 217//240 215//236
f 575//519 215//236 576//520
f 576//520 215//236 214//235
f 576//520 214//235 577//521
f 577//521 214//235 213//233
f 577//521 213//233 578//522
f 578//522 213//233 212//232
f 578//522 212//232 579//523
f 579//523 212//232 211//230
f 579//523 211//230 580//524
f 580//524 211//230 210//229
f 580//524 210//229 581//525
f 581//525 210//229 209//227
f 581//525 209//227 582//526
f 582//526 209//227 208//226
f 582//526 208//226 583//527
f 583//527 208//226 207//224
f 583//527 207//224 584//528
f 584//528 207//224 206//223
f 584//528 206//223 585//529
f 585//529 206//223 205//221
f 585//529 205//221 586//530
f 586//530 205//221 204//220
f 586//530 204//220 587//531
f 587//531 204//220 203//218
f 587//531 203//218 588//532
f 588//532 203//218 202//217
f 588//532 202//217 589//533
f 589//533 202//217 201//214
f 589//533 201//214 1//1
f 1//1 201//214 2//2
f 57//57 37//37 590//534
f 590//534 37//37 573//517
f 590//534 573//517 591//535
f 591//535 573//517 574//518
f 591//535 574//518 592//536
f 592//536 574//518 575//519
f 592//536 575//519 593//298
f 593//298 575//519 576//520
f 593//298 576//520 594//537
f 594//537 576//520 577//521
f 594//537 577//521 595//538
f 595//538 577//521 578//522
f 595//538 578//522 596//539
f 596//539 578//522 579//523
f 596//539 579//523 597//196
f 597//196 579//523 580//524
f 597//196 580//524 598//540
f 598//540 580//524 581//525
f 598//540 581//525 599//195
f 599//195 581//525 582//526
f 599//195 582//526 600//541
f 600//541 582//526 583//527
f 600//541 583//527 601//542
f 601//542 583//527 584//528
f 601//542 584//528 602//543
f 602//543 584//528 585//529
f 602//543 585//529 603//193
f 603//193 585//529 586//530
f 603//193 586//530 604//544
f 604//544 586//530 587//531
f 604//544 587//531 605//295
f 605//295 587//531 588//532
f 605//295 588//532 606//545
f 606//545 588//532 589//533
f 606//545 589//533 39//39
f 39//39 589//533 1//1
f 76//94 57//95 460//381
f 460//381 57//95 590//546
f 460//381 590//546 461//382
f 461//382 590//546 591//547
f 461//382 591//547 463//383
f 463//383 591//547 592//548
f 463//383 592//548 464//384
f 464//384 592//548 593//549
f 464//384 593//549 465//385
f 465//385 593//549 594//550
f 465//385 594//550 474//386
f 474//386 594//550 595//551
f 474//386 595//551 475//387
f 475//387 595//551 596//552
f 475//387 596//552 477//388
f 477//388 596//552 597//553
f 477//388 597//553 479//389
f 479//389 597//553 598//554
f 479//389 598//554 480//390
f 480//390 598//554 599//555
f 480//390 599//555 482//391
f 482//391 599//555 600//556
f 482//391 600//556 486//393
f 486//393 600//556 601//557
f 486//393 601//557 487//394
f 487//394 601//557 602//558
f 487//394 602//558 489//395
f 489//395 602//558 603//559
f 489//395 603//559 491//396
f 491//396 603//559 604//560
f 491//396 604//560 492//397
f 492//397 604//560 605//561
f 492//397 605//561 485//392
f 485//392 605//561 606//562
f 485//392 606//562 58//58
f 58//58 606//562 39//59
