# Blender 4.3.2
# www.blender.org
mtllib right_inner_knuckle.mtl
o right_inner_knuckle
v -0.015250 0.001788 -0.002409
v -0.015250 0.000566 -0.002946
v -0.015250 -0.000768 -0.002900
v -0.015250 -0.001788 0.002409
v -0.015250 -0.000566 0.002946
v -0.015250 0.000768 0.002900
v -0.015250 -0.002656 0.001394
v -0.015250 -0.002998 0.000104
v -0.015250 -0.002746 -0.001207
v -0.015250 -0.001951 -0.002279
v -0.015250 0.002656 -0.001394
v -0.015250 0.002998 -0.000104
v -0.015250 0.002746 0.001207
v -0.015250 0.001951 0.002279
v -0.017450 0.001951 0.002279
v -0.017450 0.002746 0.001207
v -0.017450 0.002998 -0.000104
v -0.017450 0.002656 -0.001394
v -0.017450 0.001788 -0.002409
v -0.017450 0.000566 -0.002946
v -0.017450 -0.000768 -0.002900
v -0.017450 -0.001951 -0.002279
v 0.015350 0.001951 0.002279
v 0.015350 0.000768 0.002900
v 0.015350 -0.002746 -0.001207
v 0.015350 0.002746 0.001207
v 0.015350 -0.001951 -0.002279
v 0.015350 -0.000768 -0.002900
v 0.015350 -0.002998 0.000104
v 0.015350 -0.002656 0.001394
v 0.015350 -0.001788 0.002409
v 0.015350 -0.000566 0.002946
v 0.015350 0.002656 -0.001394
v 0.015350 0.002998 -0.000104
v 0.015350 0.001788 -0.002409
v 0.015350 0.000566 -0.002946
v 0.017550 -0.001951 -0.002279
v 0.017550 -0.000768 -0.002900
v 0.017550 0.000566 -0.002946
v 0.017550 0.001788 -0.002409
v 0.017550 0.002656 -0.001394
v 0.017550 0.002998 -0.000104
v 0.017550 0.002746 0.001207
v 0.017550 0.001951 0.002279
v -0.013250 0.045047 -0.035258
v -0.013550 0.045242 -0.035030
v -0.013250 0.045779 -0.036325
v -0.013550 0.046062 -0.036225
v -0.013250 0.045879 -0.037615
v -0.013550 0.046174 -0.037670
v -0.013250 0.045321 -0.038783
v -0.013550 0.045549 -0.038978
v -0.013250 0.044254 -0.039515
v -0.013550 0.044354 -0.039798
v -0.013250 0.042964 -0.039615
v -0.013550 0.042909 -0.039910
v -0.013250 0.041796 -0.039057
v -0.013550 0.041601 -0.039285
v -0.013250 0.041133 -0.038164
v -0.013250 0.044062 -0.034741
v -0.013250 0.040923 -0.037071
v -0.013250 0.041208 -0.035995
v -0.013250 0.042950 -0.034702
v -0.013250 0.041931 -0.035150
v 0.013350 0.041796 -0.039057
v 0.013650 0.041601 -0.039285
v 0.013350 0.042964 -0.039615
v 0.013650 0.042909 -0.039910
v 0.013350 0.044254 -0.039515
v 0.013650 0.044354 -0.039798
v 0.013350 0.045321 -0.038783
v 0.013650 0.045549 -0.038978
v 0.013350 0.045879 -0.037615
v 0.013650 0.046174 -0.037670
v 0.013350 0.045779 -0.036325
v 0.013650 0.046062 -0.036225
v 0.013350 0.045047 -0.035258
v 0.013650 0.045242 -0.035030
v 0.013350 0.044062 -0.034741
v 0.013350 0.041931 -0.035150
v 0.013350 0.041208 -0.035995
v 0.013350 0.040923 -0.037071
v 0.013350 0.041133 -0.038164
v 0.013350 0.042950 -0.034702
v 0.017550 0.014603 -0.010851
v 0.012200 0.014603 -0.010851
v 0.017550 0.014934 -0.011298
v 0.012200 0.014934 -0.011298
v 0.017550 0.015039 -0.011844
v 0.012200 0.015039 -0.011844
v 0.017550 0.014897 -0.012382
v 0.012200 0.014897 -0.012382
v 0.017550 0.014535 -0.012804
v 0.012200 0.014535 -0.012804
v 0.017550 0.014026 -0.013028
v 0.012200 0.014026 -0.013028
v 0.017550 0.013470 -0.013009
v 0.012200 0.013470 -0.013009
v 0.017550 0.012977 -0.012750
v 0.012200 0.012977 -0.012750
v -0.012100 0.014603 -0.010851
v -0.017450 0.014603 -0.010851
v -0.012100 0.014934 -0.011298
v -0.017450 0.014934 -0.011298
v -0.012100 0.015039 -0.011844
v -0.017450 0.015039 -0.011844
v -0.012100 0.014897 -0.012382
v -0.017450 0.014897 -0.012382
v -0.012100 0.014535 -0.012804
v -0.017450 0.014535 -0.012804
v -0.012100 0.014026 -0.013028
v -0.017450 0.014026 -0.013028
v -0.012100 0.013470 -0.013009
v -0.017450 0.013470 -0.013009
v -0.012100 0.012977 -0.012750
v -0.017450 0.012977 -0.012750
v -0.012081 0.021441 -0.016702
v -0.017450 0.021441 -0.016702
v -0.012028 0.021660 -0.016947
v -0.017450 0.021807 -0.017236
v -0.011947 0.021807 -0.017238
v -0.011856 0.021873 -0.017542
v -0.017450 0.021857 -0.017881
v -0.011761 0.021857 -0.017881
v -0.011696 0.021757 -0.018188
v -0.017450 0.021578 -0.018465
v -0.011671 0.021578 -0.018465
v -0.011696 0.021333 -0.018685
v -0.017450 0.021044 -0.018831
v -0.011761 0.021044 -0.018831
v -0.017450 0.020399 -0.018881
v -0.011948 0.020399 -0.018881
v -0.017450 0.019815 -0.018602
v -0.012081 0.019815 -0.018602
v -0.012027 0.020093 -0.018782
v 0.012181 0.019815 -0.018602
v 0.017550 0.019815 -0.018602
v 0.012128 0.020091 -0.018781
v 0.017550 0.020399 -0.018881
v 0.012047 0.020401 -0.018881
v 0.011956 0.020712 -0.018899
v 0.017550 0.021044 -0.018831
v 0.011861 0.021044 -0.018831
v 0.011796 0.021332 -0.018685
v 0.017550 0.021578 -0.018465
v 0.011771 0.021578 -0.018465
v 0.011796 0.021757 -0.018189
v 0.017550 0.021857 -0.017881
v 0.011861 0.021857 -0.017881
v 0.017550 0.021807 -0.017236
v 0.012048 0.021807 -0.017236
v 0.017550 0.021441 -0.016702
v 0.012181 0.021441 -0.016702
v 0.012127 0.021661 -0.016949
v -0.016340 0.025138 -0.026776
v -0.016060 0.025380 -0.026983
v -0.015950 0.024802 -0.027496
v -0.017164 0.024017 -0.025817
v -0.016815 0.024604 -0.026319
v -0.016682 0.024050 -0.026853
v -0.017450 0.022752 -0.024734
v -0.017289 0.023709 -0.025553
v -0.017298 0.022254 -0.025316
v -0.017141 0.023182 -0.026110
v -0.017182 0.022102 -0.025494
v -0.016722 0.022677 -0.026532
v -0.016094 0.022271 -0.026755
v -0.016450 0.021626 -0.026050
v -0.016864 0.021832 -0.025809
v -0.015353 0.022026 -0.026745
v -0.015450 0.021451 -0.026254
v -0.016215 0.021550 -0.026138
v -0.016304 0.023468 -0.027208
v -0.015737 0.022945 -0.027332
v -0.015069 0.022563 -0.027205
v -0.015637 0.024153 -0.027794
v -0.015169 0.023530 -0.027832
v -0.014616 0.023028 -0.027603
v -0.015072 0.025986 -0.027502
v -0.014992 0.025390 -0.027999
v -0.014765 0.024688 -0.028252
v -0.014425 0.023986 -0.028222
v -0.014023 0.023392 -0.027914
v -0.014260 0.026529 -0.027967
v -0.013956 0.026871 -0.028259
v -0.013823 0.026317 -0.028792
v -0.011550 0.026756 -0.030793
v -0.011718 0.025761 -0.029941
v -0.012315 0.026855 -0.030678
v -0.012458 0.026006 -0.029951
v -0.013506 0.026917 -0.029306
v -0.013282 0.027406 -0.030033
v -0.013086 0.026412 -0.029728
v -0.012964 0.027137 -0.030348
v -0.012550 0.026930 -0.030590
v -0.012210 0.024830 -0.029145
v -0.012878 0.025212 -0.029272
v -0.013445 0.025734 -0.029148
v -0.013653 0.027444 -0.028749
v -0.013550 0.028057 -0.029274
v -0.013398 0.027559 -0.029855
v -0.013733 0.027247 -0.028581
v -0.014440 0.026374 -0.027834
v -0.014330 0.025797 -0.028347
v -0.014017 0.025147 -0.028645
v -0.013548 0.024524 -0.028683
v -0.012996 0.024023 -0.028454
v -0.017450 -0.002601 -0.003039
v -0.017298 -0.003098 -0.003621
v -0.017182 -0.003251 -0.003799
v -0.016864 -0.003520 -0.004114
v -0.016450 -0.003727 -0.004355
v -0.016215 -0.003802 -0.004443
v -0.015450 -0.003901 -0.004559
v -0.011550 0.039521 -0.041716
v -0.012315 0.039620 -0.041601
v -0.012550 0.039695 -0.041513
v -0.012964 0.039901 -0.041271
v -0.013282 0.040171 -0.040956
v -0.013398 0.040323 -0.040778
v -0.013550 0.040821 -0.040197
v -0.015450 -0.005225 -0.002950
v -0.015450 -0.005573 -0.002224
v -0.016215 -0.005431 -0.002167
v -0.015450 -0.005919 -0.000985
v -0.015450 -0.005943 -0.000825
v -0.016215 -0.005792 -0.000804
v -0.015450 -0.005898 0.001099
v -0.015450 -0.005646 0.002031
v -0.016215 -0.005503 0.001979
v -0.015450 -0.005167 0.003050
v -0.015450 -0.004996 0.003323
v -0.016215 -0.004869 0.003239
v -0.015450 -0.003812 0.004633
v -0.015450 -0.002879 0.005264
v -0.016215 -0.002806 0.005130
v -0.017298 -0.003875 -0.002774
v -0.017450 -0.003252 -0.002328
v -0.016864 -0.004402 -0.003152
v -0.017450 0.001798 0.003573
v -0.017450 0.000890 0.003900
v -0.017298 0.002142 0.004257
v -0.017298 0.001061 0.004646
v -0.016864 0.002433 0.004836
v -0.016864 0.001205 0.005278
v -0.016215 0.002628 0.005224
v -0.016215 0.001302 0.005701
v -0.017450 -0.000069 0.003999
v -0.017298 -0.000082 0.004765
v -0.016864 -0.000093 0.005413
v -0.016215 -0.000100 0.005847
v -0.017450 -0.001024 0.003867
v -0.017298 -0.001220 0.004607
v -0.016864 -0.001386 0.005234
v -0.016215 -0.001497 0.005653
v -0.017450 0.002601 0.003039
v -0.017298 0.003098 0.003621
v -0.016864 0.003520 0.004114
v -0.016215 0.003802 0.004443
v -0.015450 0.003901 0.004559
v -0.015450 0.002697 0.005360
v -0.015450 -0.001997 0.005658
v -0.015450 -0.001536 0.005800
v -0.015450 -0.000103 0.005999
v -0.015450 0.000058 0.006000
v -0.015450 0.001336 0.005849
v -0.015450 0.002107 0.005618
v -0.016864 -0.002598 0.004750
v -0.017298 -0.002287 0.004181
v -0.017450 -0.001919 0.003509
v -0.015450 -0.004055 0.004422
v -0.016215 -0.003952 0.004310
v -0.016864 -0.003659 0.003990
v -0.017298 -0.003221 0.003512
v -0.017450 -0.002703 0.002948
v -0.017450 -0.003330 0.002215
v -0.017298 -0.003968 0.002639
v -0.016864 -0.004508 0.002999
v -0.016864 -0.005095 0.001833
v -0.017298 -0.004484 0.001613
v -0.017450 -0.003764 0.001354
v -0.015450 -0.005968 0.000621
v -0.016215 -0.005816 0.000605
v -0.016864 -0.005385 0.000560
v -0.017298 -0.004740 0.000493
v -0.017450 -0.003978 0.000414
v -0.017450 -0.003962 -0.000550
v -0.017298 -0.004720 -0.000656
v -0.016864 -0.005363 -0.000745
v -0.016864 -0.005029 -0.002006
v -0.017298 -0.004426 -0.001766
v -0.017450 -0.003715 -0.001482
v -0.015450 -0.004879 -0.003493
v -0.016215 -0.004755 -0.003404
v -0.012315 0.047224 -0.032714
v -0.011550 0.047323 -0.032599
v -0.011550 0.048239 -0.033581
v -0.012550 0.047149 -0.032802
v -0.012315 0.048117 -0.033672
v -0.012315 0.048775 -0.034804
v -0.011550 0.048647 -0.034208
v -0.011550 0.048914 -0.034743
v -0.011550 0.049314 -0.036026
v -0.012315 0.049164 -0.036054
v -0.011550 0.049340 -0.036173
v -0.012315 0.049266 -0.037360
v -0.011550 0.049418 -0.037365
v -0.011550 0.049320 -0.038257
v -0.012315 0.049074 -0.038655
v -0.011550 0.047980 -0.041059
v -0.012315 0.047865 -0.040960
v -0.011550 0.048589 -0.040208
v -0.012315 0.048599 -0.039876
v -0.011550 0.048734 -0.039946
v -0.011550 0.049222 -0.038694
v -0.013282 0.046673 -0.033359
v -0.012964 0.046942 -0.033044
v -0.012964 0.047769 -0.033930
v -0.012964 0.048378 -0.034979
v -0.012964 0.048739 -0.036136
v -0.012964 0.048833 -0.037345
v -0.012964 0.048655 -0.038544
v -0.012964 0.048215 -0.039674
v -0.012964 0.047535 -0.040678
v -0.013550 0.046022 -0.034118
v -0.013398 0.046520 -0.033537
v -0.013398 0.047248 -0.034317
v -0.013398 0.047784 -0.035240
v -0.013398 0.048101 -0.036259
v -0.013398 0.048184 -0.037322
v -0.013398 0.048028 -0.038378
v -0.013398 0.047641 -0.039372
v -0.013398 0.047042 -0.040256
v -0.013550 0.046633 -0.034773
v -0.013550 0.047083 -0.035548
v -0.013550 0.047350 -0.036403
v -0.013550 0.047419 -0.037296
v -0.013550 0.047288 -0.038182
v -0.013550 0.046963 -0.039017
v -0.013550 0.046461 -0.039758
v -0.017450 0.027953 -0.018656
v -0.017298 0.028451 -0.018074
v -0.016864 0.028873 -0.017581
v -0.016215 0.029154 -0.017252
v -0.015450 0.029253 -0.017136
v -0.013550 0.033258 -0.023195
v -0.013398 0.033756 -0.022614
v -0.013282 0.033908 -0.022436
v -0.012964 0.034177 -0.022121
v -0.012550 0.034384 -0.021879
v -0.012315 0.034459 -0.021792
v -0.011550 0.034558 -0.021676
v -0.017164 0.029219 -0.019739
v -0.017289 0.028910 -0.019475
v -0.017141 0.029379 -0.018868
v -0.016340 0.030339 -0.020698
v -0.016815 0.029806 -0.020241
v -0.016682 0.030247 -0.019611
v -0.015072 0.031188 -0.021424
v -0.016060 0.030581 -0.020905
v -0.014992 0.031587 -0.020758
v -0.015950 0.030999 -0.020255
v -0.014765 0.031728 -0.020025
v -0.015637 0.031193 -0.019567
v -0.014425 0.031590 -0.019336
v -0.015169 0.031134 -0.018946
v -0.014023 0.031194 -0.018797
v -0.014616 0.030831 -0.018486
v -0.016304 0.030508 -0.018981
v -0.015737 0.030550 -0.018446
v -0.015069 0.030365 -0.018087
v -0.016722 0.029718 -0.018304
v -0.016094 0.029875 -0.017869
v -0.015353 0.029828 -0.017628
v -0.014260 0.031731 -0.021888
v -0.014440 0.031576 -0.021756
v -0.014330 0.031993 -0.021106
v -0.012458 0.033610 -0.021065
v -0.011718 0.033563 -0.020824
v -0.012996 0.031825 -0.019337
v -0.012210 0.032632 -0.020027
v -0.013548 0.032128 -0.019797
v -0.012878 0.032816 -0.020385
v -0.014017 0.032187 -0.020418
v -0.013445 0.032775 -0.020921
v -0.013823 0.032514 -0.021551
v -0.013086 0.033453 -0.021501
v -0.013506 0.033114 -0.022065
v -0.013956 0.032072 -0.022181
v -0.013733 0.032448 -0.022502
v -0.013653 0.032645 -0.022671
v 0.014123 0.023392 -0.027914
v 0.014525 0.023986 -0.028222
v 0.015269 0.023530 -0.027832
v 0.014865 0.024688 -0.028252
v 0.015737 0.024153 -0.027794
v 0.015092 0.025390 -0.027999
v 0.016050 0.024802 -0.027496
v 0.015172 0.025986 -0.027502
v 0.016160 0.025380 -0.026983
v 0.016440 0.025138 -0.026776
v 0.016782 0.024050 -0.026853
v 0.016915 0.024604 -0.026319
v 0.017264 0.024017 -0.025817
v 0.017241 0.023182 -0.026110
v 0.017389 0.023709 -0.025553
v 0.017550 0.022752 -0.024734
v 0.016404 0.023468 -0.027208
v 0.016822 0.022677 -0.026532
v 0.017398 0.022254 -0.025316
v 0.017282 0.022102 -0.025494
v 0.016964 0.021832 -0.025809
v 0.016550 0.021626 -0.026050
v 0.015837 0.022945 -0.027332
v 0.016194 0.022271 -0.026755
v 0.016315 0.021550 -0.026138
v 0.014716 0.023028 -0.027603
v 0.015169 0.022563 -0.027205
v 0.015453 0.022026 -0.026745
v 0.015550 0.021451 -0.026254
v 0.017550 -0.002601 -0.003039
v 0.017398 -0.003098 -0.003621
v 0.017282 -0.003251 -0.003799
v 0.016964 -0.003520 -0.004114
v 0.016550 -0.003727 -0.004355
v 0.016315 -0.003802 -0.004443
v 0.015550 -0.003901 -0.004559
v 0.014360 0.026529 -0.027967
v 0.014540 0.026374 -0.027834
v 0.014430 0.025797 -0.028347
v 0.012558 0.026006 -0.029951
v 0.011818 0.025761 -0.029941
v 0.011650 0.026756 -0.030793
v 0.013096 0.024023 -0.028454
v 0.012310 0.024830 -0.029145
v 0.013648 0.024524 -0.028683
v 0.012978 0.025212 -0.029272
v 0.014117 0.025147 -0.028645
v 0.013545 0.025734 -0.029148
v 0.013923 0.026317 -0.028792
v 0.013186 0.026412 -0.029728
v 0.013606 0.026917 -0.029306
v 0.012415 0.026855 -0.030678
v 0.012650 0.026930 -0.030590
v 0.013064 0.027137 -0.030348
v 0.013382 0.027406 -0.030033
v 0.013498 0.027559 -0.029855
v 0.014056 0.026871 -0.028259
v 0.013833 0.027247 -0.028581
v 0.013753 0.027444 -0.028749
v 0.013650 0.028057 -0.029274
v 0.016550 0.003727 0.004355
v 0.016315 0.003802 0.004443
v 0.016315 0.002628 0.005224
v 0.016315 -0.004755 -0.003404
v 0.015550 -0.004879 -0.003493
v 0.015550 0.003901 0.004559
v 0.015550 0.002697 0.005360
v 0.015550 0.002107 0.005618
v 0.016315 0.001302 0.005701
v 0.015550 0.001336 0.005849
v 0.015550 0.000058 0.006000
v 0.016315 -0.000100 0.005847
v 0.015550 -0.000103 0.005999
v 0.015550 -0.001536 0.005800
v 0.016315 -0.001497 0.005653
v 0.015550 -0.001997 0.005658
v 0.016315 -0.002806 0.005130
v 0.015550 -0.002879 0.005264
v 0.015550 -0.003812 0.004633
v 0.016315 -0.003952 0.004310
v 0.015550 -0.004055 0.004422
v 0.015550 -0.004996 0.003323
v 0.016315 -0.004869 0.003239
v 0.015550 -0.005167 0.003050
v 0.016315 -0.005503 0.001979
v 0.015550 -0.005646 0.002031
v 0.015550 -0.005898 0.001099
v 0.016315 -0.005816 0.000605
v 0.015550 -0.005968 0.000621
v 0.015550 -0.005943 -0.000825
v 0.016315 -0.005792 -0.000804
v 0.015550 -0.005919 -0.000985
v 0.016315 -0.005431 -0.002167
v 0.015550 -0.005573 -0.002224
v 0.015550 -0.005225 -0.002950
v 0.017282 0.003251 0.003799
v 0.016964 0.003520 0.004114
v 0.016964 0.002433 0.004836
v 0.016964 0.001205 0.005278
v 0.016964 -0.000093 0.005413
v 0.016964 -0.001386 0.005234
v 0.016964 -0.002598 0.004750
v 0.016964 -0.003659 0.003990
v 0.016964 -0.004508 0.002999
v 0.016964 -0.005095 0.001833
v 0.016964 -0.005385 0.000560
v 0.016964 -0.005363 -0.000745
v 0.016964 -0.005029 -0.002006
v 0.016964 -0.004402 -0.003152
v 0.017550 0.002601 0.003039
v 0.017398 0.003098 0.003621
v 0.017398 0.002142 0.004257
v 0.017398 0.001061 0.004646
v 0.017398 -0.000082 0.004765
v 0.017398 -0.001220 0.004607
v 0.017398 -0.002287 0.004181
v 0.017398 -0.003221 0.003512
v 0.017398 -0.003968 0.002639
v 0.017398 -0.004484 0.001613
v 0.017398 -0.004740 0.000493
v 0.017398 -0.004720 -0.000656
v 0.017398 -0.004426 -0.001766
v 0.017398 -0.003875 -0.002774
v 0.017550 0.001798 0.003573
v 0.017550 0.000890 0.003900
v 0.017550 -0.000069 0.003999
v 0.017550 -0.001024 0.003867
v 0.017550 -0.001919 0.003509
v 0.017550 -0.002703 0.002948
v 0.017550 -0.003330 0.002215
v 0.017550 -0.003764 0.001354
v 0.017550 -0.003978 0.000414
v 0.017550 -0.003962 -0.000550
v 0.017550 -0.003715 -0.001482
v 0.017550 -0.003252 -0.002328
v 0.013650 0.040821 -0.040197
v 0.013498 0.040323 -0.040778
v 0.013382 0.040171 -0.040956
v 0.013064 0.039901 -0.041271
v 0.012650 0.039695 -0.041513
v 0.012415 0.039620 -0.041601
v 0.011650 0.039521 -0.041716
v 0.015550 0.029253 -0.017136
v 0.016315 0.029154 -0.017252
v 0.016550 0.029079 -0.017340
v 0.016964 0.028873 -0.017581
v 0.017282 0.028603 -0.017896
v 0.017398 0.028451 -0.018074
v 0.017550 0.027953 -0.018656
v 0.012415 0.040793 -0.042381
v 0.012415 0.048177 -0.033753
v 0.011650 0.048300 -0.033665
v 0.011650 0.047323 -0.032599
v 0.011650 0.040725 -0.042517
v 0.011650 0.041315 -0.042776
v 0.012415 0.042120 -0.042858
v 0.011650 0.042086 -0.043007
v 0.011650 0.043364 -0.043157
v 0.012415 0.043522 -0.043004
v 0.011650 0.043525 -0.043157
v 0.011650 0.044957 -0.042958
v 0.012415 0.044918 -0.042810
v 0.011650 0.045419 -0.042815
v 0.012415 0.046228 -0.042288
v 0.011650 0.046301 -0.042422
v 0.011650 0.047234 -0.041791
v 0.012415 0.047374 -0.041467
v 0.011650 0.047477 -0.041580
v 0.011650 0.048417 -0.040481
v 0.012415 0.048291 -0.040396
v 0.011650 0.048589 -0.040208
v 0.012415 0.048924 -0.039137
v 0.011650 0.049067 -0.039189
v 0.011650 0.049320 -0.038257
v 0.012415 0.049238 -0.037763
v 0.011650 0.049389 -0.037778
v 0.011650 0.049365 -0.036332
v 0.012415 0.049214 -0.036353
v 0.011650 0.049340 -0.036173
v 0.012415 0.048853 -0.034990
v 0.011650 0.048994 -0.034934
v 0.011650 0.048647 -0.034208
v 0.013064 0.040988 -0.041994
v 0.013064 0.042216 -0.042436
v 0.013064 0.043515 -0.042571
v 0.013064 0.044807 -0.042391
v 0.013064 0.046020 -0.041908
v 0.013064 0.047081 -0.041148
v 0.013064 0.047930 -0.040156
v 0.013064 0.048516 -0.038990
v 0.013064 0.048807 -0.037718
v 0.013064 0.048784 -0.036413
v 0.013064 0.048450 -0.035151
v 0.013064 0.047824 -0.034006
v 0.013498 0.041280 -0.041414
v 0.012415 0.047224 -0.032714
v 0.012650 0.047149 -0.032802
v 0.013064 0.046942 -0.033044
v 0.013382 0.046673 -0.033359
v 0.013498 0.042361 -0.041803
v 0.013498 0.043503 -0.041922
v 0.013498 0.044641 -0.041764
v 0.013498 0.045708 -0.041338
v 0.013498 0.046642 -0.040670
v 0.013498 0.047389 -0.039797
v 0.013498 0.047906 -0.038771
v 0.013498 0.048161 -0.037651
v 0.013498 0.048142 -0.036502
v 0.013498 0.047848 -0.035391
v 0.013498 0.047296 -0.034384
v 0.013498 0.046520 -0.033537
v 0.013650 0.041624 -0.040731
v 0.013650 0.042531 -0.041057
v 0.013650 0.043490 -0.041157
v 0.013650 0.044445 -0.041024
v 0.013650 0.045341 -0.040667
v 0.013650 0.046125 -0.040106
v 0.013650 0.046752 -0.039373
v 0.013650 0.047186 -0.038511
v 0.013650 0.047400 -0.037571
v 0.013650 0.047384 -0.036607
v 0.013650 0.047137 -0.035675
v 0.013650 0.046674 -0.034829
v 0.013650 0.046022 -0.034118
v 0.016440 0.030339 -0.020698
v 0.016160 0.030581 -0.020905
v 0.016050 0.030999 -0.020255
v 0.017264 0.029219 -0.019739
v 0.016915 0.029806 -0.020241
v 0.016782 0.030247 -0.019611
v 0.017389 0.028910 -0.019475
v 0.017241 0.029379 -0.018868
v 0.016822 0.029718 -0.018304
v 0.016194 0.029875 -0.017869
v 0.015453 0.029828 -0.017628
v 0.016404 0.030508 -0.018981
v 0.015837 0.030550 -0.018446
v 0.015169 0.030365 -0.018087
v 0.015737 0.031193 -0.019567
v 0.015269 0.031134 -0.018946
v 0.014716 0.030831 -0.018486
v 0.015172 0.031188 -0.021424
v 0.015092 0.031587 -0.020758
v 0.014865 0.031728 -0.020025
v 0.014525 0.031590 -0.019336
v 0.014123 0.031194 -0.018797
v 0.011650 0.034558 -0.021676
v 0.012415 0.034459 -0.021792
v 0.012650 0.034384 -0.021879
v 0.013064 0.034177 -0.022121
v 0.013382 0.033908 -0.022436
v 0.013498 0.033756 -0.022614
v 0.013650 0.033258 -0.023195
v 0.014360 0.031731 -0.021888
v 0.014056 0.032072 -0.022181
v 0.013923 0.032514 -0.021551
v 0.011818 0.033563 -0.020824
v 0.012558 0.033610 -0.021065
v 0.013606 0.033114 -0.022065
v 0.013186 0.033453 -0.021501
v 0.012310 0.032632 -0.020027
v 0.012978 0.032816 -0.020385
v 0.013545 0.032775 -0.020921
v 0.013753 0.032645 -0.022671
v 0.013833 0.032448 -0.022502
v 0.014540 0.031576 -0.021756
v 0.014430 0.031993 -0.021106
v 0.014117 0.032187 -0.020418
v 0.013648 0.032128 -0.019797
v 0.013096 0.031825 -0.019337
v 0.005950 0.032303 -0.035540
v 0.005950 0.033603 -0.034020
v 0.007175 0.032488 -0.035698
v 0.007175 0.033788 -0.034178
v 0.008213 0.033015 -0.036149
v 0.008213 0.034315 -0.034629
v 0.008906 0.033804 -0.036824
v 0.008906 0.035104 -0.035304
v 0.009150 0.034734 -0.037620
v 0.009150 0.036034 -0.036100
v -0.009050 0.034734 -0.037620
v -0.009050 0.036034 -0.036100
v -0.008806 0.033804 -0.036824
v -0.008806 0.035104 -0.035304
v -0.008113 0.033015 -0.036149
v -0.008113 0.034315 -0.034629
v -0.007075 0.032488 -0.035698
v -0.007075 0.033788 -0.034178
v -0.005850 0.032303 -0.035540
v -0.005850 0.033603 -0.034020
v -0.009050 0.036262 -0.036296
v -0.009050 0.042764 -0.028698
v -0.009150 0.035659 -0.035779
v -0.009150 0.042161 -0.028182
v 0.009150 0.042764 -0.028698
v 0.009150 0.036262 -0.036296
v 0.009250 0.042161 -0.028182
v 0.009250 0.035659 -0.035779
v 0.012100 0.000658 -0.008460
v 0.012100 0.008460 0.000658
v 0.012200 0.001261 -0.008976
v 0.012200 0.009063 0.000142
v -0.012000 0.008460 0.000658
v -0.012000 0.000658 -0.008460
v -0.012100 0.009063 0.000142
v -0.012100 0.001261 -0.008976
v -0.005950 0.032127 -0.019595
v -0.005950 0.025625 -0.027193
v -0.007175 0.032312 -0.019754
v -0.007175 0.025810 -0.027351
v -0.008213 0.032839 -0.020205
v -0.008213 0.026337 -0.027802
v -0.008906 0.033628 -0.020880
v -0.008906 0.027126 -0.028477
v -0.009150 0.034558 -0.021676
v -0.009150 0.028057 -0.029274
v 0.009250 0.034558 -0.021676
v 0.009250 0.028057 -0.029274
v 0.009006 0.033628 -0.020880
v 0.009006 0.027126 -0.028477
v 0.008313 0.032839 -0.020205
v 0.008313 0.026337 -0.027802
v 0.007275 0.032312 -0.019754
v 0.007275 0.025810 -0.027351
v 0.006050 0.032127 -0.019595
v 0.006050 0.025625 -0.027193
v 0.011956 0.025194 -0.013662
v 0.012200 0.024263 -0.012866
v 0.012200 0.021142 -0.016513
v 0.011263 0.025982 -0.014337
v 0.011956 0.017392 -0.022780
v 0.012200 0.016461 -0.021983
v 0.012200 0.019582 -0.018336
v 0.011263 0.018180 -0.023455
v 0.009000 0.026695 -0.014947
v 0.009000 0.018892 -0.024064
v 0.010225 0.026509 -0.014788
v 0.010225 0.018707 -0.023906
v -0.011856 0.017392 -0.022780
v -0.012100 0.016461 -0.021983
v -0.012100 0.019582 -0.018336
v -0.011163 0.018180 -0.023455
v -0.011856 0.025194 -0.013662
v -0.012100 0.024263 -0.012866
v -0.012100 0.021142 -0.016513
v -0.011163 0.025982 -0.014337
v -0.010125 0.026509 -0.014788
v -0.010125 0.018707 -0.023906
v -0.008900 0.026695 -0.014947
v -0.008900 0.018892 -0.024064
v -0.012100 0.012840 -0.010988
v -0.012100 0.013374 -0.010622
v -0.012100 0.012561 -0.011572
v -0.012100 0.012611 -0.012217
v -0.012100 0.014019 -0.010572
v -0.012100 0.019484 -0.018155
v -0.012100 0.019883 -0.016649
v -0.012100 0.020392 -0.016425
v -0.012100 0.020948 -0.016444
v -0.012100 0.019379 -0.017609
v -0.012100 0.019521 -0.017071
v 0.012200 0.012561 -0.011572
v 0.012200 0.012840 -0.010988
v 0.012200 0.013374 -0.010622
v 0.012200 0.012611 -0.012217
v 0.012200 0.019521 -0.017071
v 0.012200 0.019379 -0.017609
v 0.012200 0.019484 -0.018155
v 0.012200 0.020948 -0.016444
v 0.012200 0.014019 -0.010572
v 0.012200 0.020392 -0.016425
v 0.012200 0.019883 -0.016649
v 0.013650 0.044139 -0.034451
v 0.013650 0.042893 -0.034408
v 0.013650 0.040858 -0.038284
v 0.013650 0.040623 -0.037061
v 0.013650 0.040942 -0.035856
v 0.013650 0.041753 -0.034909
v -0.013550 0.045806 -0.040369
v -0.013550 0.043283 -0.041155
v -0.013550 0.044176 -0.041086
v -0.013550 0.045031 -0.040819
v -0.013550 0.044139 -0.034451
v -0.013550 0.040942 -0.035856
v -0.013550 0.041753 -0.034909
v -0.013550 0.042893 -0.034408
v -0.013550 0.042397 -0.041024
v -0.013550 0.041562 -0.040699
v -0.013550 0.040858 -0.038284
v -0.013550 0.040623 -0.037061
v 0.012100 0.002107 0.005618
v 0.012100 0.003901 0.004559
v 0.012100 -0.005167 0.003050
v 0.012100 -0.003901 -0.004559
v 0.012100 -0.005225 -0.002950
v 0.012100 -0.005919 -0.000985
v 0.012100 -0.005898 0.001099
v 0.012100 -0.003812 0.004633
v 0.012100 -0.001997 0.005658
v 0.012100 0.000058 0.006000
v -0.012000 -0.003901 -0.004559
v -0.012000 0.003901 0.004559
v -0.012000 0.002107 0.005618
v -0.012000 0.000058 0.006000
v -0.012000 -0.001997 0.005658
v -0.012000 -0.003812 0.004633
v -0.012000 -0.005225 -0.002950
v -0.012000 -0.005919 -0.000985
v -0.012000 -0.005898 0.001099
v -0.012000 -0.005167 0.003050
v 0.009150 0.043364 -0.043157
v 0.009150 0.041315 -0.042776
v 0.009150 0.039521 -0.041716
v 0.009150 0.045419 -0.042815
v 0.009150 0.049340 -0.036173
v 0.009150 0.047323 -0.032599
v 0.009150 0.048647 -0.034208
v 0.009150 0.049320 -0.038257
v 0.009150 0.048589 -0.040208
v 0.009150 0.047234 -0.041791
v -0.009050 0.039521 -0.041716
v -0.009050 0.049340 -0.036173
v -0.009050 0.048647 -0.034208
v -0.009050 0.043364 -0.043157
v -0.009050 0.047323 -0.032599
v -0.009050 0.041315 -0.042776
v -0.009050 0.048589 -0.040208
v -0.009050 0.049320 -0.038257
v -0.009050 0.047234 -0.041791
v -0.009050 0.045419 -0.042815
v 0.017550 0.012611 -0.012217
v 0.017550 0.012561 -0.011572
v 0.017550 -0.002656 0.001394
v 0.017550 -0.001788 0.002409
v 0.017550 0.014019 -0.010572
v 0.017550 -0.000566 0.002946
v 0.017550 0.000768 0.002900
v 0.017550 0.012840 -0.010988
v 0.017550 0.013374 -0.010622
v 0.017550 -0.002746 -0.001207
v 0.017550 -0.002998 0.000104
v 0.017550 0.020392 -0.016425
v 0.017550 0.019883 -0.016649
v 0.017550 0.019521 -0.017071
v 0.017550 0.019379 -0.017609
v 0.017550 0.020948 -0.016444
v 0.017550 0.019484 -0.018155
v -0.011550 0.047234 -0.041791
v -0.011550 0.045836 -0.042650
v -0.011550 0.046998 -0.041975
v -0.011550 0.044554 -0.043050
v -0.011550 0.045419 -0.042815
v -0.011550 0.041315 -0.042776
v -0.011550 0.041885 -0.042957
v -0.011550 0.043214 -0.043154
v -0.011550 0.043364 -0.043157
v -0.011550 0.040633 -0.042470
v -0.017450 -0.001788 0.002409
v -0.017450 -0.002656 0.001394
v -0.017450 -0.002998 0.000104
v -0.017450 0.000768 0.002900
v -0.017450 -0.000566 0.002946
v -0.017450 -0.002746 -0.001207
v -0.017450 0.012561 -0.011572
v -0.017450 0.012840 -0.010988
v -0.017450 0.013374 -0.010622
v -0.017450 0.014019 -0.010572
v -0.017450 0.020948 -0.016444
v -0.017450 0.020392 -0.016425
v -0.017450 0.019883 -0.016649
v -0.017450 0.012611 -0.012217
v -0.017450 0.019521 -0.017071
v -0.017450 0.019379 -0.017609
v -0.017450 0.019484 -0.018155
v -0.013398 0.046262 -0.040984
v -0.012964 0.046649 -0.041505
v -0.012315 0.046907 -0.041853
v -0.012315 0.045775 -0.042511
v -0.012315 0.044525 -0.042900
v -0.012315 0.043219 -0.043002
v -0.012315 0.041924 -0.042810
v -0.012315 0.040704 -0.042335
v -0.012964 0.045601 -0.042114
v -0.012964 0.044443 -0.042474
v -0.012964 0.043234 -0.042568
v -0.012964 0.042035 -0.042391
v -0.012964 0.040905 -0.041951
v -0.013398 0.045339 -0.041520
v -0.013398 0.044321 -0.041837
v -0.013398 0.043257 -0.041920
v -0.013398 0.042201 -0.041764
v -0.013398 0.041207 -0.041377
vn -0.0000 -0.6502 -0.7598
vn -0.0000 -0.9154 -0.4024
vn -0.0000 -0.9994 0.0346
vn -0.0000 -0.8854 0.4648
vn -0.0000 -0.5960 0.8029
vn -0.0000 -0.1886 0.9820
vn -0.0000 0.2561 0.9666
vn -0.0000 0.6501 0.7598
vn -0.0000 0.6502 0.7598
vn -0.7070 -0.4711 -0.5275
vn -0.7071 -0.4688 -0.5294
vn -0.7071 -0.6668 -0.2354
vn -0.7071 -0.6667 -0.2354
vn -0.7071 -0.6951 0.1295
vn -0.7071 -0.5372 0.4597
vn -0.7071 -0.2354 0.6668
vn -0.7071 0.1295 0.6951
vn -0.7070 0.4484 0.5469
vn -0.7070 0.4506 0.5450
vn 0.7069 0.4484 0.5470
vn 0.7070 0.4506 0.5451
vn 0.7070 0.1295 0.6952
vn 0.7070 -0.2354 0.6668
vn 0.7071 -0.5373 0.4598
vn 0.7070 -0.6952 0.1295
vn 0.7071 -0.6668 -0.2354
vn 0.7070 -0.4711 -0.5275
vn 0.7070 -0.4689 -0.5295
vn -0.0000 -0.6359 -0.7718
vn -0.0000 -0.5961 0.8029
vn -0.0000 -0.5960 0.8030
vn -0.0000 -0.1887 0.9820
vn -0.0000 0.6643 0.7475
vn -0.0000 -0.6532 -0.7572
vn 0.0066 -0.6637 -0.7480
vn 0.0003 -0.8346 -0.5509
vn 0.0077 -0.9430 -0.3328
vn -0.0000 -0.9494 -0.3141
vn 0.0003 -0.9983 -0.0590
vn 0.0075 -0.9830 0.1833
vn -0.0000 -0.9798 0.2002
vn 0.0003 -0.8975 0.4410
vn 0.0074 -0.7598 0.6501
vn -0.0000 -0.7599 0.6500
vn 0.0003 -0.5747 0.8184
vn 0.0037 -0.3307 0.9437
vn -0.0000 -0.2999 0.9540
vn 0.0003 0.1832 0.9831
vn -0.0000 0.0853 0.9964
vn 0.0002 0.6359 0.7718
vn 0.0076 0.6421 0.7665
vn 0.0070 0.4183 0.9083
vn -0.0000 0.6471 0.7624
vn -0.0066 0.6364 0.7713
vn -0.0003 0.4153 0.9097
vn -0.0077 0.1831 0.9831
vn -0.0000 0.1637 0.9865
vn -0.0003 -0.0958 0.9954
vn -0.0075 -0.3330 0.9429
vn -0.0000 -0.3492 0.9370
vn -0.0003 -0.5744 0.8186
vn -0.0074 -0.7598 0.6501
vn -0.0000 -0.7597 0.6503
vn -0.0003 -0.8974 0.4412
vn -0.0037 -0.9835 0.1809
vn -0.0000 -0.9889 0.1489
vn -0.0003 -0.9430 -0.3328
vn -0.0000 -0.9712 -0.2382
vn -0.0002 -0.6643 -0.7475
vn -0.0076 -0.6581 -0.7529
vn -0.0070 -0.8328 -0.5536
vn -0.7873 0.3922 -0.4757
vn -0.6888 0.4824 -0.5411
vn -0.6616 0.2392 -0.7107
vn -0.9299 0.1982 -0.3097
vn -0.8689 0.3053 -0.3896
vn -0.8049 0.0899 -0.5865
vn -0.9932 -0.0154 -0.1150
vn -0.9729 0.0961 -0.2105
vn -0.9458 -0.1619 -0.2816
vn -0.8953 -0.0713 -0.4397
vn -0.8487 -0.2986 -0.4365
vn -0.6892 -0.3094 -0.6552
vn -0.3764 -0.5173 -0.7686
vn -0.5303 -0.5219 -0.6681
vn -0.7090 -0.4232 -0.5642
vn -0.1024 -0.6262 -0.7729
vn -0.1019 -0.6416 -0.7602
vn -0.3260 -0.5985 -0.7318
vn -0.6241 -0.1898 -0.7580
vn -0.3457 -0.4503 -0.8232
vn -0.0924 -0.6073 -0.7891
vn -0.5161 -0.0789 -0.8529
vn -0.2859 -0.3888 -0.8758
vn -0.0765 -0.5909 -0.8031
vn -0.6253 0.5251 -0.5773
vn -0.5811 0.2995 -0.7567
vn -0.4459 -0.0385 -0.8942
vn -0.2420 -0.3724 -0.8960
vn -0.0621 -0.5886 -0.8060
vn -0.7881 0.4014 -0.4667
vn -0.8720 0.3046 -0.3832
vn -0.8079 0.0896 -0.5825
vn -0.0941 -0.6429 -0.7602
vn -0.0871 -0.6303 -0.7714
vn -0.3166 -0.6014 -0.7335
vn -0.3568 -0.5363 -0.7650
vn -0.8977 -0.0771 -0.4337
vn -0.8470 -0.3067 -0.4342
vn -0.6741 -0.3385 -0.6565
vn -0.6992 -0.4363 -0.5664
vn -0.5312 -0.5341 -0.6577
vn -0.0787 -0.6141 -0.7853
vn -0.3222 -0.4676 -0.8232
vn -0.6103 -0.2059 -0.7649
vn -0.9729 0.0951 -0.2110
vn -0.9931 -0.0156 -0.1160
vn -0.9446 -0.1637 -0.2844
vn -0.9297 0.2176 -0.2971
vn -0.6884 0.4820 -0.5420
vn -0.6639 0.2388 -0.7087
vn -0.5047 -0.0975 -0.8578
vn -0.2665 -0.4103 -0.8722
vn -0.0651 -0.6001 -0.7972
vn -0.9948 -0.0710 -0.0731
vn -0.9452 -0.2270 -0.2345
vn -0.8471 -0.3714 -0.3802
vn -0.7040 -0.4936 -0.5107
vn -0.5259 -0.5925 -0.6102
vn -0.3195 -0.6583 -0.6816
vn -0.0975 -0.6914 -0.7159
vn -0.0975 -0.6038 -0.7911
vn -0.3196 -0.5749 -0.7532
vn -0.5262 -0.5138 -0.6776
vn -0.7043 -0.4306 -0.5645
vn -0.8472 -0.3196 -0.4244
vn -0.9453 -0.1976 -0.2594
vn -0.9948 -0.0615 -0.0809
vn -0.1097 -0.8691 -0.4824
vn -0.0952 -0.9318 -0.3502
vn -0.3855 -0.8588 -0.3375
vn -0.1016 -0.9724 -0.2102
vn -0.0930 -0.9924 -0.0807
vn -0.3819 -0.9159 -0.1235
vn -0.1082 -0.9732 0.2029
vn -0.0950 -0.9344 0.3433
vn -0.3858 -0.8676 0.3139
vn -0.1053 -0.8735 0.4752
vn -0.0938 -0.8009 0.5914
vn -0.3842 -0.7653 0.5164
vn -0.1053 -0.6045 0.7896
vn -0.0950 -0.4835 0.8702
vn -0.3858 -0.4442 0.8086
vn -0.9203 -0.3223 -0.2218
vn -0.9944 -0.0858 -0.0614
vn -0.6995 -0.5869 -0.4078
vn -0.9944 0.0474 0.0942
vn -0.9944 0.0235 0.1028
vn -0.9185 0.1777 0.3532
vn -0.9185 0.0880 0.3854
vn -0.6997 0.3211 0.6382
vn -0.6997 0.1591 0.6965
vn -0.3832 0.4190 0.8232
vn -0.3792 0.2082 0.9016
vn -0.9944 -0.0018 0.1054
vn -0.9185 -0.0068 0.3953
vn -0.6997 -0.0123 0.7144
vn -0.3819 -0.0195 0.9240
vn -0.9944 -0.0270 0.1020
vn -0.9185 -0.1012 0.3822
vn -0.6997 -0.1829 0.6906
vn -0.3849 -0.2290 0.8941
vn -0.9948 0.0613 0.0815
vn -0.9210 0.2347 0.3110
vn -0.7028 0.4290 0.5675
vn -0.3795 0.5582 0.7378
vn -0.0975 0.6004 0.7937
vn -0.0953 0.4770 0.8737
vn -0.1082 -0.3509 0.9301
vn -0.0914 -0.2126 0.9729
vn -0.0930 -0.0736 0.9929
vn -0.1016 0.0574 0.9932
vn -0.1027 0.2104 0.9722
vn -0.1304 0.3303 0.9348
vn -0.6997 -0.3428 0.6268
vn -0.9185 -0.1897 0.3468
vn -0.9944 -0.0506 0.0925
vn -0.0938 -0.7080 0.6999
vn -0.3842 -0.6285 0.6763
vn -0.6997 -0.4829 0.5266
vn -0.9185 -0.2672 0.2914
vn -0.9944 -0.0713 0.0777
vn -0.9944 -0.0878 0.0584
vn -0.9185 -0.3292 0.2190
vn -0.6997 -0.5948 0.3957
vn -0.6997 -0.6723 0.2418
vn -0.9185 -0.3720 0.1338
vn -0.9944 -0.0992 0.0357
vn -0.0914 -0.9940 0.0597
vn -0.3849 -0.9187 0.0881
vn -0.6997 -0.7106 0.0739
vn -0.9185 -0.3932 0.0409
vn -0.9944 -0.1049 0.0109
vn -0.9944 -0.1045 -0.0145
vn -0.9185 -0.3916 -0.0544
vn -0.6997 -0.7077 -0.0983
vn -0.6997 -0.6636 -0.2648
vn -0.9185 -0.3672 -0.1465
vn -0.9944 -0.0980 -0.0391
vn -0.0954 -0.7895 -0.6063
vn -0.3811 -0.7502 -0.5403
vn -0.3196 0.6553 0.6844
vn -0.0975 0.6883 0.7188
vn -0.1002 0.7886 0.6067
vn -0.5261 0.5901 0.6124
vn -0.3741 0.7479 0.5484
vn -0.3828 0.8471 0.3686
vn -0.1256 0.8554 0.5025
vn -0.0926 0.9241 0.3709
vn -0.0956 0.9667 0.2373
vn -0.3817 0.9071 0.1774
vn -0.1009 0.9877 0.1195
vn -0.3839 0.9229 -0.0287
vn -0.0930 0.9954 -0.0219
vn -0.1063 0.9809 -0.1629
vn -0.3844 0.8907 -0.2427
vn -0.0929 0.7565 -0.6473
vn -0.3841 0.7015 -0.6003
vn -0.1040 0.8397 -0.5331
vn -0.3837 0.8201 -0.4245
vn -0.0931 0.9019 -0.4217
vn -0.0920 0.9516 -0.2933
vn -0.8472 0.3699 0.3813
vn -0.7043 0.4911 0.5126
vn -0.7000 0.5797 0.4172
vn -0.7002 0.6536 0.2873
vn -0.7002 0.7011 0.1347
vn -0.7002 0.7135 -0.0247
vn -0.7002 0.6901 -0.1829
vn -0.7002 0.6321 -0.3318
vn -0.7002 0.5425 -0.4642
vn -0.9948 0.0705 0.0733
vn -0.9453 0.2258 0.2353
vn -0.9208 0.3177 0.2264
vn -0.9189 0.3611 0.1587
vn -0.9189 0.3874 0.0744
vn -0.9189 0.3942 -0.0137
vn -0.9189 0.3813 -0.1010
vn -0.9189 0.3493 -0.1833
vn -0.9189 0.2997 -0.2565
vn -0.9945 0.0843 0.0625
vn -0.9945 0.0961 0.0422
vn -0.9945 0.1030 0.0198
vn -0.9945 0.1049 -0.0036
vn -0.9945 0.1014 -0.0269
vn -0.9945 0.0929 -0.0488
vn -0.9945 0.0797 -0.0682
vn -0.9932 0.1113 0.0330
vn -0.9234 0.2911 0.2501
vn -0.7102 0.4912 0.5043
vn -0.3892 0.6179 0.6832
vn -0.1020 0.6519 0.7514
vn -0.9931 0.1122 0.0333
vn -0.9446 0.2557 0.2057
vn -0.8427 0.3759 0.3855
vn -0.7092 0.4866 0.5102
vn -0.5255 0.5756 0.6266
vn -0.3166 0.6318 0.7076
vn -0.0941 0.6517 0.7527
vn -0.9299 0.3366 -0.1479
vn -0.9729 0.2228 -0.0624
vn -0.8951 0.4215 0.1453
vn -0.7873 0.5306 -0.3140
vn -0.8689 0.4321 -0.2415
vn -0.8049 0.5934 0.0019
vn -0.6253 0.6515 -0.4295
vn -0.6888 0.6091 -0.3930
vn -0.5811 0.7939 -0.1789
vn -0.6616 0.7391 -0.1265
vn -0.4459 0.8775 0.1762
vn -0.5161 0.8305 0.2097
vn -0.2420 0.8277 0.5063
vn -0.2859 0.8052 0.5195
vn -0.0620 0.7054 0.7061
vn -0.0765 0.7022 0.7079
vn -0.6241 0.7195 0.3047
vn -0.3457 0.7437 0.5721
vn -0.0925 0.6858 0.7219
vn -0.6918 0.5915 0.4142
vn -0.3832 0.6728 0.6328
vn -0.1025 0.6668 0.7382
vn -0.7928 0.5135 -0.3285
vn -0.6884 0.6100 -0.3924
vn -0.6653 0.7364 -0.1229
vn -0.3542 0.6709 0.6515
vn -0.0872 0.6648 0.7419
vn -0.0651 0.6949 0.7162
vn -0.0787 0.6809 0.7281
vn -0.2665 0.7983 0.5402
vn -0.3222 0.7410 0.5891
vn -0.5047 0.8324 0.2289
vn -0.6103 0.7239 0.3217
vn -0.8041 0.5945 -0.0029
vn -0.6816 0.5922 0.4298
vn -0.8964 0.4191 0.1442
vn -0.8665 0.4332 -0.2482
vn -0.9313 0.3283 -0.1577
vn -0.9729 0.2231 -0.0614
vn 0.0621 -0.5886 -0.8060
vn 0.2420 -0.3724 -0.8960
vn 0.2859 -0.3888 -0.8758
vn 0.4459 -0.0385 -0.8942
vn 0.5161 -0.0789 -0.8529
vn 0.5811 0.2995 -0.7567
vn 0.6616 0.2392 -0.7107
vn 0.6253 0.5251 -0.5773
vn 0.6889 0.4824 -0.5410
vn 0.7873 0.3922 -0.4757
vn 0.8049 0.0899 -0.5865
vn 0.8689 0.3054 -0.3896
vn 0.9299 0.1982 -0.3097
vn 0.8953 -0.0713 -0.4397
vn 0.9729 0.0961 -0.2105
vn 0.9932 -0.0154 -0.1151
vn 0.6241 -0.1898 -0.7580
vn 0.6892 -0.3094 -0.6552
vn 0.9457 -0.1620 -0.2817
vn 0.8487 -0.2986 -0.4365
vn 0.7090 -0.4231 -0.5641
vn 0.5303 -0.5219 -0.6681
vn 0.3457 -0.4503 -0.8232
vn 0.3763 -0.5173 -0.7686
vn 0.3260 -0.5985 -0.7318
vn 0.0764 -0.5909 -0.8031
vn 0.0924 -0.6073 -0.7891
vn 0.1025 -0.6263 -0.7729
vn 0.1019 -0.6416 -0.7602
vn 0.9948 -0.0710 -0.0731
vn 0.9452 -0.2271 -0.2346
vn 0.8470 -0.3715 -0.3802
vn 0.7040 -0.4935 -0.5107
vn 0.5259 -0.5925 -0.6102
vn 0.3195 -0.6583 -0.6816
vn 0.0975 -0.6914 -0.7159
vn 0.7928 0.4038 -0.4565
vn 0.6885 0.4819 -0.5420
vn 0.6653 0.2352 -0.7085
vn 0.3542 -0.5399 -0.7636
vn 0.0871 -0.6303 -0.7714
vn 0.0941 -0.6429 -0.7602
vn 0.0651 -0.6001 -0.7972
vn 0.0787 -0.6141 -0.7853
vn 0.2665 -0.4103 -0.8722
vn 0.3222 -0.4676 -0.8232
vn 0.5047 -0.0975 -0.8578
vn 0.6103 -0.2059 -0.7649
vn 0.8041 0.0948 -0.5869
vn 0.6816 -0.3331 -0.6515
vn 0.8964 -0.0777 -0.4363
vn 0.3166 -0.6014 -0.7335
vn 0.5255 -0.5301 -0.6655
vn 0.7091 -0.4289 -0.5596
vn 0.8427 -0.3227 -0.4309
vn 0.9446 -0.1637 -0.2844
vn 0.8665 0.3121 -0.3896
vn 0.9313 0.2066 -0.3000
vn 0.9729 0.0951 -0.2110
vn 0.9931 -0.0156 -0.1160
vn 0.5259 0.5113 0.6797
vn 0.3195 0.5717 0.7557
vn 0.3811 0.4179 0.8247
vn 0.3797 -0.7527 -0.5378
vn 0.0954 -0.7895 -0.6063
vn 0.0975 0.6004 0.7937
vn 0.0953 0.4770 0.8737
vn 0.1097 0.3423 0.9332
vn 0.3854 0.2007 0.9007
vn 0.0951 0.2020 0.9747
vn 0.1015 0.0574 0.9932
vn 0.3819 -0.0195 0.9240
vn 0.0959 -0.0712 0.9928
vn 0.0946 -0.2150 0.9720
vn 0.3849 -0.2291 0.8941
vn 0.1082 -0.3509 0.9301
vn 0.3858 -0.4442 0.8086
vn 0.0950 -0.4835 0.8702
vn 0.1053 -0.6045 0.7896
vn 0.3842 -0.6285 0.6763
vn 0.0938 -0.7080 0.6999
vn 0.0938 -0.8009 0.5914
vn 0.3842 -0.7653 0.5164
vn 0.1053 -0.8735 0.4752
vn 0.3858 -0.8676 0.3139
vn 0.0950 -0.9344 0.3433
vn 0.1082 -0.9732 0.2029
vn 0.3849 -0.9187 0.0881
vn 0.0946 -0.9936 0.0621
vn 0.0959 -0.9919 -0.0831
vn 0.3819 -0.9159 -0.1235
vn 0.1015 -0.9724 -0.2102
vn 0.3793 -0.8586 -0.3450
vn 0.1027 -0.9280 -0.3581
vn 0.1305 -0.8726 -0.4708
vn 0.8470 0.3182 0.4258
vn 0.7040 0.4283 0.5665
vn 0.6995 0.3123 0.6428
vn 0.6997 0.1591 0.6965
vn 0.6997 -0.0123 0.7143
vn 0.6997 -0.1829 0.6906
vn 0.6997 -0.3428 0.6268
vn 0.6997 -0.4829 0.5266
vn 0.6997 -0.5949 0.3957
vn 0.6997 -0.6723 0.2418
vn 0.6997 -0.7106 0.0739
vn 0.6997 -0.7077 -0.0983
vn 0.6997 -0.6636 -0.2648
vn 0.6995 -0.5869 -0.4079
vn 0.9948 0.0612 0.0814
vn 0.9452 0.1967 0.2606
vn 0.9203 0.1694 0.3527
vn 0.9185 0.0880 0.3854
vn 0.9185 -0.0068 0.3953
vn 0.9185 -0.1012 0.3822
vn 0.9185 -0.1897 0.3469
vn 0.9185 -0.2672 0.2914
vn 0.9185 -0.3292 0.2190
vn 0.9185 -0.3720 0.1338
vn 0.9185 -0.3932 0.0409
vn 0.9185 -0.3916 -0.0544
vn 0.9185 -0.3672 -0.1465
vn 0.9203 -0.3223 -0.2219
vn 0.9944 0.0474 0.0942
vn 0.9944 0.0235 0.1028
vn 0.9944 -0.0018 0.1054
vn 0.9944 -0.0270 0.1020
vn 0.9944 -0.0506 0.0925
vn 0.9944 -0.0713 0.0777
vn 0.9944 -0.0878 0.0584
vn 0.9944 -0.0992 0.0357
vn 0.9944 -0.1049 0.0109
vn 0.9944 -0.1045 -0.0145
vn 0.9944 -0.0980 -0.0391
vn 0.9944 -0.0858 -0.0614
vn 0.9948 -0.0613 -0.0815
vn 0.9452 -0.1967 -0.2606
vn 0.8471 -0.3182 -0.4257
vn 0.7040 -0.4283 -0.5665
vn 0.5259 -0.5113 -0.6797
vn 0.3195 -0.5717 -0.7557
vn 0.0974 -0.6004 -0.7937
vn 0.1020 0.6519 0.7514
vn 0.3261 0.6305 0.7044
vn 0.5304 0.5794 0.6189
vn 0.7090 0.4920 0.5053
vn 0.8487 0.3851 0.3625
vn 0.9457 0.2533 0.2036
vn 0.9932 0.1113 0.0330
vn 0.3811 -0.4179 -0.8247
vn 0.3797 0.7527 0.5378
vn 0.0936 0.7895 0.6065
vn 0.0975 0.6914 0.7159
vn 0.0936 -0.4773 -0.8738
vn 0.1097 -0.3423 -0.9332
vn 0.3854 -0.2007 -0.9006
vn 0.0931 -0.2019 -0.9750
vn 0.1015 -0.0573 -0.9932
vn 0.3819 0.0195 -0.9240
vn 0.0918 0.0749 -0.9930
vn 0.0888 0.2113 -0.9734
vn 0.3849 0.2290 -0.8941
vn 0.1082 0.3509 -0.9302
vn 0.3858 0.4442 -0.8086
vn 0.0929 0.4837 -0.8703
vn 0.1053 0.6045 -0.7896
vn 0.3842 0.6285 -0.6763
vn 0.0924 0.7087 -0.6994
vn 0.0923 0.8006 -0.5921
vn 0.3842 0.7653 -0.5164
vn 0.1053 0.8736 -0.4752
vn 0.3858 0.8676 -0.3139
vn 0.0929 0.9346 -0.3434
vn 0.1082 0.9732 -0.2029
vn 0.3849 0.9187 -0.0881
vn 0.0888 0.9943 -0.0583
vn 0.0918 0.9926 0.0796
vn 0.3819 0.9159 0.1235
vn 0.1015 0.9724 0.2102
vn 0.3792 0.8586 0.3451
vn 0.1007 0.9282 0.3581
vn 0.1305 0.8726 0.4708
vn 0.6995 -0.3122 -0.6428
vn 0.6997 -0.1590 -0.6965
vn 0.6997 0.0123 -0.7143
vn 0.6997 0.1829 -0.6906
vn 0.6997 0.3428 -0.6268
vn 0.6997 0.4829 -0.5266
vn 0.6997 0.5948 -0.3957
vn 0.6997 0.6723 -0.2418
vn 0.6997 0.7106 -0.0739
vn 0.6997 0.7076 0.0983
vn 0.6997 0.6636 0.2648
vn 0.6995 0.5869 0.4078
vn 0.9203 -0.1694 -0.3527
vn 0.3194 0.6583 0.6816
vn 0.5259 0.5925 0.6102
vn 0.7040 0.4935 0.5107
vn 0.8471 0.3714 0.3801
vn 0.9185 -0.0880 -0.3854
vn 0.9185 0.0068 -0.3953
vn 0.9185 0.1012 -0.3822
vn 0.9185 0.1897 -0.3469
vn 0.9185 0.2672 -0.2914
vn 0.9185 0.3292 -0.2190
vn 0.9185 0.3720 -0.1338
vn 0.9185 0.3932 -0.0409
vn 0.9185 0.3916 0.0544
vn 0.9185 0.3672 0.1465
vn 0.9203 0.3223 0.2219
vn 0.9452 0.2271 0.2346
vn 0.9944 -0.0474 -0.0943
vn 0.9944 -0.0235 -0.1029
vn 0.9944 0.0018 -0.1055
vn 0.9944 0.0270 -0.1020
vn 0.9944 0.0506 -0.0926
vn 0.9944 0.0713 -0.0778
vn 0.9944 0.0878 -0.0584
vn 0.9944 0.0993 -0.0357
vn 0.9944 0.1049 -0.0109
vn 0.9944 0.1045 0.0145
vn 0.9944 0.0980 0.0391
vn 0.9944 0.0858 0.0614
vn 0.9948 0.0710 0.0732
vn 0.7873 0.5306 -0.3140
vn 0.6889 0.6091 -0.3930
vn 0.6616 0.7391 -0.1265
vn 0.9299 0.3366 -0.1479
vn 0.8689 0.4322 -0.2415
vn 0.8049 0.5934 0.0019
vn 0.9729 0.2228 -0.0624
vn 0.8953 0.4234 0.1384
vn 0.6892 0.5995 0.4070
vn 0.3764 0.6794 0.6299
vn 0.1024 0.6668 0.7382
vn 0.6240 0.7195 0.3047
vn 0.3457 0.7438 0.5721
vn 0.0924 0.6858 0.7219
vn 0.5161 0.8305 0.2097
vn 0.2859 0.8052 0.5195
vn 0.0765 0.7022 0.7079
vn 0.6253 0.6515 -0.4295
vn 0.5811 0.7939 -0.1789
vn 0.4460 0.8775 0.1762
vn 0.2420 0.8277 0.5063
vn 0.0621 0.7054 0.7061
vn 0.0941 0.6517 0.7527
vn 0.3166 0.6318 0.7075
vn 0.5312 0.5673 0.6293
vn 0.6992 0.4922 0.5186
vn 0.8471 0.3815 0.3701
vn 0.9446 0.2557 0.2057
vn 0.9931 0.1122 0.0333
vn 0.7881 0.5231 -0.3244
vn 0.8720 0.4256 -0.2417
vn 0.8079 0.5893 0.0015
vn 0.0872 0.6648 0.7419
vn 0.3567 0.6729 0.6480
vn 0.8977 0.4166 0.1432
vn 0.6741 0.5963 0.4359
vn 0.0787 0.6809 0.7281
vn 0.3222 0.7410 0.5891
vn 0.6103 0.7239 0.3217
vn 0.9729 0.2231 -0.0613
vn 0.9297 0.3272 -0.1690
vn 0.6885 0.6100 -0.3924
vn 0.6639 0.7370 -0.1264
vn 0.5047 0.8324 0.2289
vn 0.2665 0.7983 0.5401
vn 0.0651 0.6949 0.7162
vn -0.0980 0.7561 -0.6470
vn -0.3827 0.7019 -0.6007
vn -0.3827 0.7020 -0.6007
vn -0.7071 0.5373 -0.4597
vn -0.7071 0.5372 -0.4597
vn -0.9239 0.2908 -0.2488
vn -0.9952 0.0745 -0.0637
vn 0.9952 0.0745 -0.0637
vn 0.9239 0.2907 -0.2488
vn 0.7071 0.5373 -0.4597
vn 0.3827 0.7019 -0.6007
vn 0.3826 0.7020 -0.6007
vn 0.0980 0.7561 -0.6470
vn 0.9995 -0.0238 0.0204
vn 0.9980 -0.0476 0.0407
vn -0.9980 -0.0476 0.0407
vn -0.9995 -0.0238 0.0204
vn -0.9980 0.0476 -0.0407
vn 0.9980 0.0476 -0.0407
vn 0.3827 0.7020 -0.6007
vn 0.7071 0.5372 -0.4597
vn 0.9239 0.2908 -0.2488
vn -0.7071 0.5373 -0.4598
vn -0.8923 -0.3441 0.2922
vn -0.9421 -0.2551 0.2177
vn -0.9234 -0.2984 0.2416
vn -0.9759 -0.1698 0.1367
vn -0.9956 -0.0753 0.0566
vn -0.9939 -0.0868 0.0688
vn -0.9997 -0.0177 0.0151
vn -0.8404 -0.4177 0.3454
vn -0.7051 -0.5415 0.4579
vn -0.8007 -0.4551 0.3895
vn -0.9764 -0.1572 0.1480
vn -0.9226 -0.2897 0.2547
vn -0.9935 -0.0809 0.0800
vn -0.9955 -0.0687 0.0654
vn -0.9495 -0.2372 0.2053
vn -0.9040 -0.3116 0.2927
vn -0.7070 -0.5368 0.4604
vn -0.8725 -0.3567 0.3339
vn -0.8407 -0.4038 0.3608
vn -0.0980 -0.7561 0.6470
vn -0.3827 -0.7019 0.6007
vn -0.3827 -0.7020 0.6007
vn 0.8924 -0.3418 0.2947
vn 0.9421 -0.2545 0.2185
vn 0.9234 -0.2848 0.2575
vn 0.9759 -0.1613 0.1467
vn 0.9956 -0.0675 0.0657
vn 0.9939 -0.0813 0.0750
vn 0.9997 -0.0177 0.0151
vn 0.8403 -0.4059 0.3594
vn 0.7051 -0.5360 0.4642
vn 0.8007 -0.4552 0.3895
vn 0.9764 -0.1705 0.1325
vn 0.9226 -0.2964 0.2469
vn 0.9935 -0.0916 0.0676
vn 0.9955 -0.0752 0.0578
vn 0.9495 -0.2395 0.2026
vn 0.9040 -0.3373 0.2626
vn 0.7070 -0.5378 0.4592
vn 0.8726 -0.3849 0.3006
vn 0.8405 -0.4191 0.3434
vn 0.3827 -0.7019 0.6007
vn 0.3826 -0.7020 0.6007
vn 0.0980 -0.7561 0.6470
vn 0.0004 0.6502 0.7598
vn 0.0001 0.6502 0.7598
vn 0.0002 0.6502 0.7597
vn -0.0005 0.6501 0.7598
vn 0.0002 0.6501 0.7598
vn 1.0000 -0.0000 -0.0000
vn -1.0000 -0.0000 -0.0000
vn -0.9956 -0.0753 0.0565
vn -0.9945 0.0625 -0.0843
vn -0.9945 -0.0036 -0.1049
vn -0.9945 0.0198 -0.1031
vn -0.9945 0.0422 -0.0961
vn -0.9945 -0.0269 -0.1014
vn -0.9945 -0.0488 -0.0929
vn 0.9995 -0.0238 0.0203
vn 0.0084 -0.7091 -0.7050
vn 0.0115 -0.5894 -0.8078
vn -0.0104 -0.5887 -0.8083
vn -0.0084 -0.7091 -0.7051
vn -0.0104 0.7076 0.7066
vn -0.0104 0.7076 0.7065
vn -0.0272 0.8700 0.4922
vn -0.0172 0.9874 0.1573
vn -0.0218 0.9841 -0.1764
vn -0.0222 0.8585 -0.5124
vn -0.0222 0.6389 -0.7689
vn -0.0218 0.3263 -0.9450
vn -0.0172 -0.0028 -0.9998
vn -0.0272 -0.3519 -0.9357
vn -0.0084 0.5870 0.8096
vn 0.0115 0.7070 0.7071
vn -0.0001 0.6502 0.7598
vn 0.0084 0.5870 0.8095
vn -0.0084 -0.7091 -0.7050
vn -0.0209 -0.8703 -0.4921
vn -0.0174 -0.9866 -0.1622
vn -0.0196 -0.9833 0.1809
vn -0.0172 -0.8591 0.5115
vn -0.0172 -0.6381 0.7697
vn -0.0197 -0.3307 0.9435
vn -0.0174 0.0078 0.9998
vn -0.0209 0.3517 0.9359
vn 0.9948 0.0613 0.0815
vn 1.0000 -0.0001 -0.0000
vn 0.0266 0.8710 0.4905
vn 0.0240 0.9859 0.1659
vn 0.0251 0.9822 -0.1863
vn 0.0241 0.8627 -0.5052
vn 0.0241 0.6324 -0.7742
vn -0.1040 0.6564 -0.7472
vn 0.0251 0.3358 -0.9416
vn -0.0920 0.4369 -0.8948
vn -0.0931 0.5560 -0.8259
vn 0.0177 -0.0172 -0.9997
vn -0.0930 0.1755 -0.9801
vn -0.1063 0.3125 -0.9440
vn -0.1076 -0.3552 -0.9286
vn -0.0864 -0.2192 -0.9718
vn 0.0220 -0.3453 -0.9382
vn -0.0909 -0.0894 -0.9918
vn -0.1009 0.0345 -0.9943
vn -0.0933 -0.4848 -0.8697
vn 0.0209 -0.8703 -0.4921
vn 0.0135 -0.9872 -0.1589
vn 0.0163 -0.9839 0.1778
vn 0.0172 -0.8591 0.5115
vn 0.0172 -0.6381 0.7697
vn 0.0163 -0.3278 0.9446
vn 0.0135 0.0044 0.9999
vn 0.0209 0.3517 0.9359
vn 0.0084 0.5869 0.8096
vn -0.9932 0.1112 0.0330
vn -0.9189 0.2351 -0.3167
vn -0.7002 0.4256 -0.5733
vn -0.3837 0.5462 -0.7446
vn -0.3844 0.3774 -0.8425
vn -0.3839 0.1710 -0.9074
vn -0.3817 -0.0351 -0.9236
vn -0.3842 -0.2299 -0.8941
vn -0.3797 -0.4307 -0.8187
vn -0.7002 0.2873 -0.6536
vn -0.7002 0.1347 -0.7011
vn -0.7002 -0.0247 -0.7135
vn -0.7002 -0.1829 -0.6901
vn -0.7000 -0.3226 -0.6372
vn -0.9189 0.1587 -0.3611
vn -0.9189 0.0744 -0.3874
vn -0.9189 -0.0136 -0.3942
vn -0.9189 -0.1010 -0.3813
vn -0.9208 -0.1745 -0.3488
vn -0.0076 -0.4359 -0.9000
vn -0.0070 -0.1916 -0.9815
vn -0.0000 -0.2562 -0.9666
vn -0.0070 -0.1915 -0.9815
vn -0.0000 -0.2561 -0.9667
vn -0.0000 0.1887 -0.9820
vn -0.0000 0.5961 -0.8029
vn -0.0000 0.8854 -0.4648
vn -0.0000 0.9994 -0.0346
vn -0.0000 0.9417 0.3365
vn -0.0027 0.9162 0.4008
vn -0.0000 0.9417 0.3366
vn -0.0052 0.9161 0.4009
vn -0.0002 0.8192 0.5735
vn 0.0076 0.8218 0.5697
vn 0.0070 0.9401 0.3409
vn -0.0000 0.9154 0.4025
vn -0.0000 0.9155 0.4024
vn -0.0000 -0.1869 -0.9824
vn 0.0027 -0.2544 -0.9671
vn -0.0000 -0.1870 -0.9824
vn 0.0052 -0.2545 -0.9671
vn 0.0002 -0.4400 -0.8980
vn -0.0000 0.9430 0.3329
vn -0.0000 0.9831 -0.1832
vn -0.0000 0.7598 -0.6502
vn -0.0000 0.3329 -0.9429
vn -0.0000 0.3329 -0.9430
vn -0.0000 0.0776 -0.9970
vn -0.0000 -0.4314 -0.9022
vn -0.0000 -0.6358 -0.7718
vn -0.0000 0.9429 0.3329
vn -0.0000 0.9831 -0.1831
vn 0.7070 -0.1811 -0.6836
vn 0.7071 -0.1811 -0.6836
vn 0.7071 0.1334 -0.6945
vn 0.7070 0.4215 -0.5678
vn 0.7071 0.6261 -0.3287
vn 0.7071 0.7067 -0.0245
vn 0.7071 0.6474 0.2846
vn -0.7071 0.6473 0.2846
vn -0.7072 0.7066 -0.0245
vn -0.7072 0.6260 -0.3286
vn -0.7071 0.4215 -0.5678
vn -0.7071 0.1334 -0.6944
vn -0.7071 -0.1811 -0.6835
vn -0.0000 -0.6501 -0.7598
vn -0.0000 -0.2561 -0.9666
vn -0.0000 0.1886 -0.9820
vn -0.0000 0.5960 -0.8029
vn -0.0000 0.9154 0.4024
s 1
usemtl black.008
f 14//1 15//1 13//2
f 13//2 15//1 16//2
f 13//2 16//2 12//3
f 12//3 16//2 17//3
f 12//3 17//3 11//4
f 11//4 17//3 18//4
f 11//4 18//4 1//5
f 1//5 18//4 19//5
f 1//5 19//5 2//6
f 2//6 19//5 20//6
f 2//6 20//6 3//7
f 3//7 20//6 21//7
f 3//7 21//7 10//8
f 10//8 21//7 22//8
f 27//9 37//9 28//7
f 28//7 37//9 38//7
f 28//7 38//7 36//6
f 36//6 38//7 39//6
f 36//6 39//6 35//5
f 35//5 39//6 40//5
f 35//5 40//5 33//4
f 33//4 40//5 41//4
f 33//4 41//4 34//3
f 34//3 41//4 42//3
f 34//3 42//3 26//2
f 26//2 42//3 43//2
f 26//2 43//2 23//1
f 23//1 43//2 44//1
f 45//10 46//11 47//12
f 47//12 46//11 48//13
f 47//12 48//13 49//14
f 49//14 48//13 50//14
f 49//14 50//14 51//15
f 51//15 50//14 52//15
f 51//15 52//15 53//16
f 53//16 52//15 54//16
f 53//16 54//16 55//17
f 55//17 54//16 56//17
f 55//17 56//17 57//18
f 57//18 56//17 58//19
f 65//20 66//21 67//22
f 67//22 66//21 68//22
f 67//22 68//22 69//23
f 69//23 68//22 70//23
f 69//23 70//23 71//24
f 71//24 70//23 72//24
f 71//24 72//24 73//25
f 73//25 72//24 74//25
f 73//25 74//25 75//26
f 75//26 74//25 76//26
f 75//26 76//26 77//27
f 77//27 76//26 78//28
f 85//29 86//29 87//2
f 87//2 86//29 88//2
f 87//2 88//2 89//3
f 89//3 88//2 90//3
f 89//3 90//3 91//4
f 91//4 90//3 92//4
f 91//4 92//4 93//30
f 93//30 92//4 94//30
f 93//31 94//31 95//32
f 95//32 94//31 96//32
f 95//32 96//32 97//7
f 97//7 96//32 98//7
f 97//7 98//7 99//33
f 99//33 98//7 100//33
f 101//29 102//29 103//2
f 103//2 102//29 104//2
f 103//2 104//2 105//3
f 105//3 104//2 106//3
f 105//3 106//3 107//4
f 107//4 106//3 108//4
f 107//4 108//4 109//30
f 109//30 108//4 110//30
f 109//31 110//31 111//32
f 111//32 110//31 112//32
f 111//32 112//32 113//7
f 113//7 112//32 114//7
f 113//7 114//7 115//33
f 115//33 114//7 116//33
f 117//34 118//35 119//36
f 119//36 118//35 120//37
f 119//36 120//37 121//38
f 121//38 120//37 122//39
f 122//39 120//37 123//40
f 122//39 123//40 124//41
f 124//41 123//40 125//42
f 125//42 123//40 126//43
f 125//42 126//43 127//44
f 127//44 126//43 128//45
f 128//45 126//43 129//46
f 128//45 129//46 130//47
f 130//47 129//46 131//48
f 130//47 131//48 132//49
f 133//50 134//51 131//48
f 131//48 134//51 135//52
f 131//48 135//52 132//49
f 136//53 137//54 138//55
f 138//55 137//54 139//56
f 138//55 139//56 140//57
f 140//57 139//56 141//58
f 141//58 139//56 142//59
f 141//58 142//59 143//60
f 143//60 142//59 144//61
f 144//61 142//59 145//62
f 144//61 145//62 146//63
f 146//63 145//62 147//64
f 147//64 145//62 148//65
f 147//64 148//65 149//66
f 149//66 148//65 150//67
f 149//66 150//67 151//68
f 152//69 153//70 150//67
f 150//67 153//70 154//71
f 150//67 154//71 151//68
f 155//72 156//73 157//74
f 158//75 159//76 160//77
f 161//78 162//79 163//80
f 163//80 162//79 164//81
f 163//80 164//81 165//82
f 165//82 164//81 166//83
f 167//84 168//85 166//83
f 166//83 168//85 169//86
f 166//83 169//86 165//82
f 170//87 171//88 167//84
f 167//84 171//88 172//89
f 167//84 172//89 168//85
f 162//79 158//75 164//81
f 164//81 158//75 160//77
f 164//81 160//77 166//83
f 166//83 160//77 173//90
f 166//83 173//90 167//84
f 167//84 173//90 174//91
f 167//84 174//91 170//87
f 170//87 174//91 175//92
f 159//76 155//72 160//77
f 160//77 155//72 157//74
f 160//77 157//74 173//90
f 173//90 157//74 176//93
f 173//90 176//93 174//91
f 174//91 176//93 177//94
f 174//91 177//94 175//92
f 175//92 177//94 178//95
f 156//73 179//96 157//74
f 157//74 179//96 180//97
f 157//74 180//97 176//93
f 176//93 180//97 181//98
f 176//93 181//98 177//94
f 177//94 181//98 182//99
f 177//94 182//99 178//95
f 178//95 182//99 183//100
f 184//101 185//102 186//103
f 187//104 188//105 189//106
f 189//106 188//105 190//107
f 191//108 192//109 193//110
f 193//110 192//109 194//111
f 193//110 194//111 190//107
f 190//107 194//111 195//112
f 190//107 195//112 189//106
f 188//105 196//113 190//107
f 190//107 196//113 197//114
f 190//107 197//114 193//110
f 193//110 197//114 198//115
f 193//110 198//115 191//108
f 191//108 198//115 186//103
f 199//116 200//117 191//108
f 191//108 200//117 201//118
f 191//108 201//118 192//109
f 186//103 185//102 191//108
f 191//108 185//102 202//119
f 191//108 202//119 199//116
f 203//120 184//101 204//121
f 204//121 184//101 186//103
f 204//121 186//103 205//122
f 205//122 186//103 198//115
f 205//122 198//115 206//123
f 206//123 198//115 197//114
f 206//123 197//114 207//124
f 207//124 197//114 196//113
f 207//124 183//100 206//123
f 206//123 183//100 182//99
f 206//123 182//99 205//122
f 205//122 182//99 181//98
f 205//122 181//98 204//121
f 204//121 181//98 180//97
f 204//121 180//97 203//120
f 203//120 180//97 179//96
f 208//125 161//78 209//126
f 209//126 161//78 163//80
f 209//126 163//80 210//127
f 210//127 163//80 165//82
f 210//127 165//82 211//128
f 211//128 165//82 169//86
f 211//128 169//86 212//129
f 212//129 169//86 168//85
f 212//129 168//85 213//130
f 213//130 168//85 172//89
f 213//130 172//89 214//131
f 214//131 172//89 171//88
f 215//132 187//104 216//133
f 216//133 187//104 189//106
f 216//133 189//106 217//134
f 217//134 189//106 195//112
f 217//134 195//112 218//135
f 218//135 195//112 194//111
f 218//135 194//111 219//136
f 219//136 194//111 192//109
f 219//136 192//109 220//137
f 220//137 192//109 201//118
f 220//137 201//118 221//138
f 221//138 201//118 200//117
f 222//139 223//140 224//141
f 225//142 226//143 227//144
f 228//145 229//146 230//147
f 231//148 232//149 233//150
f 234//151 235//152 236//153
f 237//154 238//155 208//125
f 208//125 209//126 237//154
f 237//154 209//126 210//127
f 237//154 210//127 239//156
f 240//157 241//158 242//159
f 242//159 241//158 243//160
f 242//159 243//160 244//161
f 244//161 243//160 245//162
f 244//161 245//162 246//163
f 246//163 245//162 247//164
f 241//158 248//165 243//160
f 243//160 248//165 249//166
f 243//160 249//166 245//162
f 245//162 249//166 250//167
f 245//162 250//167 247//164
f 247//164 250//167 251//168
f 248//165 252//169 249//166
f 249//166 252//169 253//170
f 249//166 253//170 250//167
f 250//167 253//170 254//171
f 250//167 254//171 251//168
f 251//168 254//171 255//172
f 256//173 240//157 257//174
f 257//174 240//157 242//159
f 257//174 242//159 258//175
f 258//175 242//159 244//161
f 258//175 244//161 259//176
f 259//176 244//161 246//163
f 259//176 246//163 260//177
f 260//177 246//163 261//178
f 262//179 263//180 255//172
f 255//172 263//180 264//181
f 255//172 264//181 251//168
f 251//168 264//181 265//182
f 251//168 265//182 247//164
f 247//164 265//182 266//183
f 247//164 266//183 246//163
f 246//163 266//183 267//184
f 246//163 267//184 261//178
f 235//152 262//179 236//153
f 236//153 262//179 255//172
f 236//153 255//172 268//185
f 268//185 255//172 254//171
f 268//185 254//171 269//186
f 269//186 254//171 253//170
f 269//186 253//170 270//187
f 270//187 253//170 252//169
f 271//188 234//151 272//189
f 272//189 234//151 236//153
f 272//189 236//153 273//190
f 273//190 236//153 268//185
f 273//190 268//185 274//191
f 274//191 268//185 269//186
f 274//191 269//186 275//192
f 275//192 269//186 270//187
f 275//192 276//193 274//191
f 274//191 276//193 277//194
f 274//191 277//194 273//190
f 273//190 277//194 278//195
f 273//190 278//195 272//189
f 272//189 278//195 233//150
f 272//189 233//150 271//188
f 271//188 233//150 232//149
f 229//146 231//148 230//147
f 230//147 231//148 233//150
f 230//147 233//150 279//196
f 279//196 233//150 278//195
f 279//196 278//195 280//197
f 280//197 278//195 277//194
f 280//197 277//194 281//198
f 281//198 277//194 276//193
f 282//199 228//145 283//200
f 283//200 228//145 230//147
f 283//200 230//147 284//201
f 284//201 230//147 279//196
f 284//201 279//196 285//202
f 285//202 279//196 280//197
f 285//202 280//197 286//203
f 286//203 280//197 281//198
f 286//203 287//204 285//202
f 285//202 287//204 288//205
f 285//202 288//205 284//201
f 284//201 288//205 289//206
f 284//201 289//206 283//200
f 283//200 289//206 227//144
f 283//200 227//144 282//199
f 282//199 227//144 226//143
f 223//140 225//142 224//141
f 224//141 225//142 227//144
f 224//141 227//144 290//207
f 290//207 227//144 289//206
f 290//207 289//206 291//208
f 291//208 289//206 288//205
f 291//208 288//205 292//209
f 292//209 288//205 287//204
f 293//210 222//139 294//211
f 294//211 222//139 224//141
f 294//211 224//141 239//156
f 239//156 224//141 290//207
f 239//156 290//207 237//154
f 237//154 290//207 291//208
f 237//154 291//208 238//155
f 238//155 291//208 292//209
f 210//127 211//128 239//156
f 239//156 211//128 212//129
f 239//156 212//129 294//211
f 294//211 212//129 213//130
f 294//211 213//130 293//210
f 293//210 213//130 214//131
f 295//212 296//213 297//214
f 298//215 295//212 299//216
f 299//216 295//212 297//214
f 299//216 297//214 300//217
f 300//217 297//214 301//218
f 301//218 302//219 300//217
f 300//217 302//219 303//220
f 300//217 303//220 304//221
f 304//221 303//220 305//222
f 304//221 305//222 306//223
f 305//222 307//224 306//223
f 306//223 307//224 308//225
f 306//223 308//225 309//226
f 310//227 311//228 312//229
f 312//229 311//228 313//230
f 312//229 313//230 314//231
f 314//231 313//230 309//226
f 314//231 309//226 315//232
f 315//232 309//226 308//225
f 316//233 317//234 318//235
f 318//235 317//234 298//215
f 298//215 299//216 318//235
f 318//235 299//216 300//217
f 318//235 300//217 319//236
f 319//236 300//217 304//221
f 319//236 304//221 320//237
f 320//237 304//221 306//223
f 320//237 306//223 321//238
f 321//238 306//223 309//226
f 321//238 309//226 322//239
f 322//239 309//226 313//230
f 322//239 313//230 323//240
f 323//240 313//230 311//228
f 323//240 311//228 324//241
f 325//242 326//243 327//244
f 327//244 326//243 316//233
f 316//233 318//235 327//244
f 327//244 318//235 319//236
f 327//244 319//236 328//245
f 328//245 319//236 320//237
f 328//245 320//237 329//246
f 329//246 320//237 321//238
f 329//246 321//238 330//247
f 330//247 321//238 322//239
f 330//247 322//239 331//248
f 331//248 322//239 323//240
f 331//248 323//240 332//249
f 332//249 323//240 324//241
f 332//249 324//241 333//250
f 325//242 327//244 334//251
f 334//251 327//244 328//245
f 334//251 328//245 335//252
f 335//252 328//245 329//246
f 335//252 329//246 336//253
f 336//253 329//246 330//247
f 336//253 330//247 337//254
f 337//254 330//247 331//248
f 337//254 331//248 338//255
f 338//255 331//248 332//249
f 338//255 332//249 339//256
f 339//256 332//249 333//250
f 339//256 333//250 340//257
f 341//258 256//173 257//174
f 341//258 257//174 342//259
f 342//259 257//174 258//175
f 342//259 258//175 343//260
f 343//260 258//175 259//176
f 343//260 259//176 344//261
f 344//261 259//176 260//177
f 344//261 260//177 345//262
f 325//242 346//263 326//243
f 326//243 346//263 347//264
f 326//243 347//264 316//233
f 316//233 347//264 348//265
f 316//233 348//265 317//234
f 317//234 348//265 349//266
f 317//234 349//266 298//215
f 298//215 349//266 350//267
f 298//215 350//267 295//212
f 295//212 350//267 351//268
f 295//212 351//268 296//213
f 296//213 351//268 352//269
f 353//270 354//271 355//272
f 356//273 357//274 358//275
f 359//276 360//277 361//278
f 361//278 360//277 362//279
f 361//278 362//279 363//280
f 363//280 362//279 364//281
f 363//280 364//281 365//282
f 365//282 364//281 366//283
f 365//282 366//283 367//284
f 367//284 366//283 368//285
f 360//277 356//273 362//279
f 362//279 356//273 358//275
f 362//279 358//275 364//281
f 364//281 358//275 369//286
f 364//281 369//286 366//283
f 366//283 369//286 370//287
f 366//283 370//287 368//285
f 368//285 370//287 371//288
f 357//274 353//270 358//275
f 358//275 353//270 355//272
f 358//275 355//272 369//286
f 369//286 355//272 372//289
f 369//286 372//289 370//287
f 370//287 372//289 373//290
f 370//287 373//290 371//288
f 371//288 373//290 374//291
f 354//271 341//258 355//272
f 355//272 341//258 342//259
f 355//272 342//259 372//289
f 372//289 342//259 343//260
f 372//289 343//260 373//290
f 373//290 343//260 344//261
f 373//290 344//261 374//291
f 374//291 344//261 345//262
f 375//292 376//293 377//294
f 378//295 379//296 352//269
f 380//297 381//298 382//299
f 382//299 381//298 383//300
f 382//299 383//300 384//301
f 384//301 383//300 385//302
f 384//301 385//302 377//294
f 377//294 385//302 386//303
f 381//298 379//296 383//300
f 383//300 379//296 378//295
f 383//300 378//295 385//302
f 385//302 378//295 387//304
f 385//302 387//304 386//303
f 386//303 387//304 388//305
f 352//269 351//268 378//295
f 378//295 351//268 350//267
f 378//295 350//267 387//304
f 387//304 350//267 349//266
f 387//304 349//266 388//305
f 388//305 349//266 348//265
f 388//305 348//265 347//264
f 367//284 380//297 365//282
f 365//282 380//297 382//299
f 365//282 382//299 363//280
f 363//280 382//299 384//301
f 363//280 384//301 361//278
f 361//278 384//301 377//294
f 361//278 377//294 359//276
f 359//276 377//294 376//293
f 375//292 377//294 389//306
f 389//306 377//294 386//303
f 389//306 386//303 390//307
f 390//307 386//303 388//305
f 390//307 388//305 391//308
f 391//308 388//305 347//264
f 391//308 347//264 346//263
f 392//309 393//310 394//311
f 393//310 395//312 396//313
f 395//312 397//314 398//315
f 397//314 399//316 400//317
f 397//314 400//317 398//315
f 398//315 400//317 401//318
f 398//315 401//318 402//319
f 401//318 403//320 402//319
f 402//319 403//320 404//321
f 402//319 404//321 405//322
f 405//322 404//321 406//323
f 405//322 406//323 407//324
f 395//312 398//315 396//313
f 396//313 398//315 402//319
f 396//313 402//319 408//325
f 408//325 402//319 405//322
f 408//325 405//322 409//326
f 407//324 410//327 405//322
f 405//322 410//327 411//328
f 405//322 411//328 409//326
f 409//326 411//328 412//329
f 409//326 412//329 413//330
f 393//310 396//313 394//311
f 394//311 396//313 408//325
f 394//311 408//325 414//331
f 414//331 408//325 409//326
f 414//331 409//326 415//332
f 415//332 409//326 413//330
f 415//332 413//330 416//333
f 392//309 394//311 417//334
f 417//334 394//311 414//331
f 417//334 414//331 418//335
f 418//335 414//331 415//332
f 418//335 415//332 419//336
f 419//336 415//332 416//333
f 419//336 416//333 420//337
f 407//324 421//338 410//327
f 410//327 421//338 422//339
f 410//327 422//339 411//328
f 411//328 422//339 423//340
f 411//328 423//340 412//329
f 412//329 423//340 424//341
f 412//329 424//341 413//330
f 413//330 424//341 425//342
f 413//330 425//342 416//333
f 416//333 425//342 426//343
f 416//333 426//343 420//337
f 420//337 426//343 427//344
f 428//345 429//346 430//347
f 431//348 432//349 433//350
f 434//351 435//352 436//353
f 436//353 435//352 437//354
f 436//353 437//354 438//355
f 438//355 437//354 439//356
f 438//355 439//356 430//347
f 430//347 439//356 440//357
f 435//352 432//349 437//354
f 437//354 432//349 431//348
f 437//354 431//348 439//356
f 439//356 431//348 441//358
f 439//356 441//358 440//357
f 440//357 441//358 442//359
f 433//350 443//360 431//348
f 431//348 443//360 444//361
f 431//348 444//361 441//358
f 441//358 444//361 445//362
f 441//358 445//362 442//359
f 442//359 445//362 446//363
f 442//359 446//363 447//364
f 392//309 434//351 393//310
f 393//310 434//351 436//353
f 393//310 436//353 395//312
f 395//312 436//353 438//355
f 395//312 438//355 397//314
f 397//314 438//355 430//347
f 397//314 430//347 399//316
f 399//316 430//347 429//346
f 428//345 430//347 448//365
f 448//365 430//347 440//357
f 448//365 440//357 449//366
f 449//366 440//357 442//359
f 449//366 442//359 450//367
f 450//367 442//359 447//364
f 450//367 447//364 451//368
f 452//369 453//370 454//371
f 455//372 456//373 427//344
f 453//370 457//374 458//375
f 453//370 458//375 454//371
f 454//371 458//375 459//376
f 454//371 459//376 460//377
f 459//376 461//378 460//377
f 460//377 461//378 462//379
f 460//377 462//379 463//380
f 462//379 464//381 463//380
f 463//380 464//381 465//382
f 463//380 465//382 466//383
f 466//383 465//382 467//384
f 466//383 467//384 468//385
f 467//384 469//386 468//385
f 468//385 469//386 470//387
f 468//385 470//387 471//388
f 470//387 472//389 471//388
f 471//388 472//389 473//390
f 471//388 473//390 474//391
f 474//391 473//390 475//392
f 474//391 475//392 476//393
f 475//392 477//394 476//393
f 476//393 477//394 478//395
f 476//393 478//395 479//396
f 478//395 480//397 479//396
f 479//396 480//397 481//398
f 479//396 481//398 482//399
f 482//399 481//398 483//400
f 482//399 483//400 484//401
f 484//401 483//400 485//402
f 484//401 485//402 455//372
f 455//372 485//402 486//403
f 455//372 486//403 456//373
f 487//404 488//405 489//406
f 489//406 488//405 452//369
f 452//369 454//371 489//406
f 489//406 454//371 460//377
f 489//406 460//377 490//407
f 490//407 460//377 463//380
f 490//407 463//380 491//408
f 491//408 463//380 466//383
f 491//408 466//383 492//409
f 492//409 466//383 468//385
f 492//409 468//385 493//410
f 493//410 468//385 471//388
f 493//410 471//388 494//411
f 494//411 471//388 474//391
f 494//411 474//391 495//412
f 495//412 474//391 476//393
f 495//412 476//393 496//413
f 496//413 476//393 479//396
f 496//413 479//396 497//414
f 497//414 479//396 482//399
f 497//414 482//399 498//415
f 498//415 482//399 484//401
f 498//415 484//401 499//416
f 499//416 484//401 455//372
f 499//416 455//372 500//417
f 501//418 502//419 503//420
f 503//420 502//419 487//404
f 427//344 426//343 455//372
f 455//372 426//343 425//342
f 455//372 425//342 500//417
f 500//417 425//342 424//341
f 500//417 424//341 423//340
f 487//404 489//406 503//420
f 503//420 489//406 490//407
f 503//420 490//407 504//421
f 504//421 490//407 491//408
f 504//421 491//408 505//422
f 505//422 491//408 492//409
f 505//422 492//409 506//423
f 506//423 492//409 493//410
f 506//423 493//410 507//424
f 507//424 493//410 494//411
f 507//424 494//411 508//425
f 508//425 494//411 495//412
f 508//425 495//412 509//426
f 509//426 495//412 496//413
f 509//426 496//413 510//427
f 510//427 496//413 497//414
f 510//427 497//414 511//428
f 511//428 497//414 498//415
f 511//428 498//415 512//429
f 512//429 498//415 499//416
f 512//429 499//416 513//430
f 513//430 499//416 500//417
f 513//430 500//417 514//431
f 514//431 500//417 423//340
f 514//431 423//340 422//339
f 501//418 503//420 515//432
f 515//432 503//420 504//421
f 515//432 504//421 516//433
f 516//433 504//421 505//422
f 516//433 505//422 517//434
f 517//434 505//422 506//423
f 517//434 506//423 518//435
f 518//435 506//423 507//424
f 518//435 507//424 519//436
f 519//436 507//424 508//425
f 519//436 508//425 520//437
f 520//437 508//425 509//426
f 520//437 509//426 521//438
f 521//438 509//426 510//427
f 521//438 510//427 522//439
f 522//439 510//427 511//428
f 522//439 511//428 523//440
f 523//440 511//428 512//429
f 523//440 512//429 524//441
f 524//441 512//429 513//430
f 524//441 513//430 525//442
f 525//442 513//430 514//431
f 525//442 514//431 526//443
f 526//443 514//431 422//339
f 526//443 422//339 421//338
f 527//444 451//368 528//445
f 528//445 451//368 447//364
f 528//445 447//364 529//446
f 529//446 447//364 446//363
f 529//446 446//363 530//447
f 530//447 446//363 445//362
f 530//447 445//362 531//448
f 531//448 445//362 444//361
f 531//448 444//361 532//449
f 532//449 444//361 443//360
f 532//449 443//360 533//450
f 533//450 443//360 433//350
f 534//451 457//374 535//452
f 535//452 457//374 453//370
f 535//452 453//370 536//453
f 536//453 453//370 452//369
f 536//453 452//369 537//454
f 537//454 452//369 488//405
f 537//454 488//405 538//455
f 538//455 488//405 487//404
f 538//455 487//404 539//456
f 539//456 487//404 502//419
f 539//456 502//419 540//457
f 540//457 502//419 501//418
f 531//448 532//449 541//458
f 542//459 543//460 544//461
f 532//449 533//450 545//462
f 532//449 545//462 541//458
f 541//458 545//462 546//463
f 541//458 546//463 547//464
f 546//463 548//465 547//464
f 547//464 548//465 549//466
f 547//464 549//466 550//467
f 549//466 551//468 550//467
f 550//467 551//468 552//469
f 550//467 552//469 553//470
f 553//470 552//469 554//471
f 553//470 554//471 555//472
f 554//471 556//473 555//472
f 555//472 556//473 557//474
f 555//472 557//474 558//475
f 557//474 559//476 558//475
f 558//475 559//476 560//477
f 558//475 560//477 561//478
f 561//478 560//477 562//479
f 561//478 562//479 563//480
f 562//479 564//481 563//480
f 563//480 564//481 565//482
f 563//480 565//482 566//483
f 565//482 567//484 566//483
f 566//483 567//484 568//485
f 566//483 568//485 569//486
f 569//486 568//485 570//487
f 569//486 570//487 571//488
f 571//488 570//487 572//489
f 571//488 572//489 542//459
f 542//459 572//489 573//490
f 542//459 573//490 543//460
f 529//446 530//447 574//491
f 574//491 530//447 531//448
f 531//448 541//458 574//491
f 574//491 541//458 547//464
f 574//491 547//464 575//492
f 575//492 547//464 550//467
f 575//492 550//467 576//493
f 576//493 550//467 553//470
f 576//493 553//470 577//494
f 577//494 553//470 555//472
f 577//494 555//472 578//495
f 578//495 555//472 558//475
f 578//495 558//475 579//496
f 579//496 558//475 561//478
f 579//496 561//478 580//497
f 580//497 561//478 563//480
f 580//497 563//480 581//498
f 581//498 563//480 566//483
f 581//498 566//483 582//499
f 582//499 566//483 569//486
f 582//499 569//486 583//500
f 583//500 569//486 571//488
f 583//500 571//488 584//501
f 584//501 571//488 542//459
f 584//501 542//459 585//502
f 527//444 528//445 586//503
f 586//503 528//445 529//446
f 544//461 587//504 542//459
f 542//459 587//504 588//505
f 542//459 588//505 585//502
f 585//502 588//505 589//506
f 585//502 589//506 590//507
f 529//446 574//491 586//503
f 586//503 574//491 575//492
f 586//503 575//492 591//508
f 591//508 575//492 576//493
f 591//508 576//493 592//509
f 592//509 576//493 577//494
f 592//509 577//494 593//510
f 593//510 577//494 578//495
f 593//510 578//495 594//511
f 594//511 578//495 579//496
f 594//511 579//496 595//512
f 595//512 579//496 580//497
f 595//512 580//497 596//513
f 596//513 580//497 581//498
f 596//513 581//498 597//514
f 597//514 581//498 582//499
f 597//514 582//499 598//515
f 598//515 582//499 583//500
f 598//515 583//500 599//516
f 599//516 583//500 584//501
f 599//516 584//501 600//517
f 600//517 584//501 585//502
f 600//517 585//502 601//518
f 601//518 585//502 590//507
f 601//518 590//507 602//519
f 527//444 586//503 603//520
f 603//520 586//503 591//508
f 603//520 591//508 604//521
f 604//521 591//508 592//509
f 604//521 592//509 605//522
f 605//522 592//509 593//510
f 605//522 593//510 606//523
f 606//523 593//510 594//511
f 606//523 594//511 607//524
f 607//524 594//511 595//512
f 607//524 595//512 608//525
f 608//525 595//512 596//513
f 608//525 596//513 609//526
f 609//526 596//513 597//514
f 609//526 597//514 610//527
f 610//527 597//514 598//515
f 610//527 598//515 611//528
f 611//528 598//515 599//516
f 611//528 599//516 612//529
f 612//529 599//516 600//517
f 612//529 600//517 613//530
f 613//530 600//517 601//518
f 613//530 601//518 614//531
f 614//531 601//518 602//519
f 614//531 602//519 615//532
f 616//533 617//534 618//535
f 619//536 620//537 621//538
f 540//457 622//539 539//456
f 539//456 622//539 623//540
f 539//456 623//540 538//455
f 538//455 623//540 624//541
f 625//542 536//453 624//541
f 624//541 536//453 537//454
f 624//541 537//454 538//455
f 626//543 534//451 625//542
f 625//542 534//451 535//452
f 625//542 535//452 536//453
f 622//539 619//536 623//540
f 623//540 619//536 621//538
f 623//540 621//538 624//541
f 624//541 621//538 627//544
f 624//541 627//544 625//542
f 625//542 627//544 628//545
f 625//542 628//545 626//543
f 626//543 628//545 629//546
f 620//537 616//533 621//538
f 621//538 616//533 618//535
f 621//538 618//535 627//544
f 627//544 618//535 630//547
f 627//544 630//547 628//545
f 628//545 630//547 631//548
f 628//545 631//548 629//546
f 629//546 631//548 632//549
f 617//534 633//550 618//535
f 618//535 633//550 634//551
f 618//535 634//551 630//547
f 630//547 634//551 635//552
f 630//547 635//552 631//548
f 631//548 635//552 636//553
f 631//548 636//553 632//549
f 632//549 636//553 637//554
f 544//461 638//555 587//504
f 587//504 638//555 639//556
f 587//504 639//556 588//505
f 588//505 639//556 640//557
f 588//505 640//557 589//506
f 589//506 640//557 641//558
f 589//506 641//558 590//507
f 590//507 641//558 642//559
f 590//507 642//559 602//519
f 602//519 642//559 643//560
f 602//519 643//560 615//532
f 615//532 643//560 644//561
f 645//562 646//563 647//564
f 638//555 648//565 639//556
f 639//556 648//565 649//566
f 650//567 642//559 651//568
f 651//568 642//559 641//558
f 651//568 641//558 649//566
f 649//566 641//558 640//557
f 649//566 640//557 639//556
f 648//565 652//569 649//566
f 649//566 652//569 653//570
f 649//566 653//570 651//568
f 651//568 653//570 654//571
f 651//568 654//571 650//567
f 650//567 654//571 647//564
f 655//572 644//561 650//567
f 650//567 644//561 643//560
f 650//567 643//560 642//559
f 647//564 646//563 650//567
f 650//567 646//563 656//573
f 650//567 656//573 655//572
f 657//574 645//562 658//575
f 658//575 645//562 647//564
f 658//575 647//564 659//576
f 659//576 647//564 654//571
f 659//576 654//571 660//577
f 660//577 654//571 653//570
f 660//577 653//570 661//578
f 661//578 653//570 652//569
f 661//578 637//554 660//577
f 660//577 637//554 636//553
f 660//577 636//553 659//576
f 659//576 636//553 635//552
f 659//576 635//552 658//575
f 658//575 635//552 634//551
f 658//575 634//551 657//574
f 657//574 634//551 633//550
f 662//579 663//579 664//580
f 664//580 663//579 665//581
f 664//580 665//581 666//582
f 666//582 665//581 667//583
f 666//582 667//583 668//584
f 668//584 667//583 669//584
f 668//584 669//584 670//585
f 670//585 669//584 671//585
f 672//586 673//586 674//587
f 674//587 673//586 675//587
f 674//587 675//587 676//588
f 676//588 675//587 677//588
f 676//588 677//588 678//589
f 678//589 677//588 679//589
f 678//590 679//590 680//591
f 680//591 679//590 681//591
f 682//592 683//593 684//593
s 0
f 684//593 683//593 685//593
s 1
f 686//594 687//595 688//594
f 688//594 687//595 689//594
s 0
f 690//596 691//596 692//596
f 692//596 691//596 693//596
f 694//597 695//597 696//597
f 696//597 695//597 697//597
s 1
f 359//276 179//96 360//277
f 360//277 179//96 156//73
f 360//277 156//73 356//273
f 356//273 156//73 155//72
f 356//273 155//72 357//274
f 357//274 155//72 159//76
f 357//274 159//76 353//270
f 353//270 159//76 158//75
f 353//270 158//75 354//271
f 354//271 158//75 162//79
f 354//271 162//79 341//258
f 341//258 162//79 161//78
f 540//457 407//324 622//539
f 622//539 407//324 406//323
f 622//539 406//323 619//536
f 619//536 406//323 404//321
f 619//536 404//321 620//537
f 620//537 404//321 403//320
f 620//537 403//320 616//533
f 616//533 403//320 401//318
f 616//533 401//318 617//534
f 617//534 401//318 400//317
f 617//534 400//317 633//550
f 633//550 400//317 399//316
f 179//96 359//276 203//120
f 203//120 359//276 376//293
f 203//120 376//293 184//101
f 184//101 376//293 375//292
f 184//101 375//292 185//102
f 185//102 375//292 389//306
f 185//102 389//306 202//119
f 202//119 389//306 390//307
f 202//119 390//307 199//116
f 199//116 390//307 391//308
f 199//116 391//308 200//117
f 200//117 391//308 346//263
f 451//368 644//561 450//367
f 450//367 644//561 655//572
f 450//367 655//572 449//366
f 449//366 655//572 656//573
f 449//366 656//573 448//365
f 448//365 656//573 646//563
f 448//365 646//563 428//345
f 428//345 646//563 645//562
f 428//345 645//562 429//346
f 429//346 645//562 657//574
f 429//346 657//574 399//316
f 399//316 657//574 633//550
f 698//591 699//591 700//589
f 700//589 699//591 701//598
f 700//589 701//598 702//599
f 702//599 701//598 703//588
f 702//599 703//588 704//600
f 704//600 703//588 705//600
f 704//600 705//600 706//586
f 706//586 705//600 707//586
f 708//585 709//585 710//584
f 710//584 709//585 711//584
f 710//584 711//584 712//583
f 712//583 711//584 713//583
f 712//601 713//601 714//580
f 714//580 713//601 715//581
f 714//580 715//581 716//579
f 716//579 715//581 717//579
f 149//602 151//603 718//604
f 718//604 151//603 154//605
f 718//604 154//605 719//606
f 719//606 154//605 153//607
f 719//606 153//607 720//608
f 149//602 718//604 147//609
f 147//609 718//604 721//610
f 147//609 721//610 146//611
f 138//612 722//613 136//614
f 136//614 722//613 723//615
f 136//614 723//615 724//608
f 138//612 140//616 722//613
f 722//613 140//616 141//617
f 722//613 141//617 725//618
f 725//618 141//617 143//619
f 725//618 143//619 144//620
f 726//621 727//621 728//622
f 728//622 727//621 729//623
f 728//622 729//623 721//610
f 721//610 729//623 725//618
f 721//610 725//618 146//611
f 146//611 725//618 144//620
f 130//624 132//625 730//626
f 730//626 132//625 135//627
f 730//626 135//627 731//628
f 731//628 135//627 134//629
f 731//628 134//629 732//630
f 130//624 730//626 128//631
f 128//631 730//626 733//632
f 128//631 733//632 127//633
f 119//634 734//635 117//636
f 117//636 734//635 735//637
f 117//636 735//637 736//630
f 119//634 121//638 734//635
f 734//635 121//638 122//639
f 734//635 122//639 737//640
f 737//640 122//639 124//641
f 737//640 124//641 125//642
f 125//642 127//633 737//640
f 737//640 127//633 733//632
f 737//640 733//632 738//643
f 738//643 733//632 739//643
f 738//644 739//644 740//645
f 740//645 739//644 741//645
s 0
f 687//646 671//647 689//648
f 689//9 671//9 669//9
f 689//9 669//9 709//9
f 679//9 677//9 707//9
f 707//9 677//9 675//9
f 707//9 675//9 684//9
f 684//9 675//9 673//649
f 684//650 673//650 682//650
f 679//9 707//9 681//9
f 681//9 707//9 705//9
f 681//9 705//9 703//9
f 669//9 667//9 709//9
f 709//9 667//9 665//9
f 709//9 665//9 711//9
f 711//9 665//9 663//9
f 711//9 663//9 713//9
f 713//9 663//9 715//9
f 703//9 701//9 681//9
f 681//9 701//9 699//9
f 681//9 699//9 663//9
f 663//9 699//9 717//9
f 663//9 717//9 715//9
s 1
f 681//591 663//579 680//591
f 680//591 663//579 662//579
f 696//597 742//651 743//651
f 742//651 696//597 744//651
f 744//651 696//597 697//597
f 744//651 697//597 745//651
f 743//651 746//651 696//597
f 696//597 746//651 101//651
f 696//597 101//651 735//637
f 745//651 697//597 115//651
f 115//651 697//597 731//628
f 115//651 731//628 113//651
f 109//651 732//630 747//651
s 0
f 103//651 748//651 101//651
f 101//651 748//651 749//651
s 1
f 101//651 749//651 735//637
f 735//637 749//651 750//651
f 735//637 750//651 736//630
f 732//630 109//651 731//628
f 731//628 109//651 111//651
f 731//628 111//651 113//651
s 0
f 747//651 751//651 109//651
f 109//651 751//651 752//651
f 109//651 752//651 107//651
f 107//651 752//651 748//651
f 107//651 748//651 105//651
f 105//651 748//651 103//651
s 1
f 753//652 692//596 754//652
f 754//652 692//596 693//596
f 754//652 693//596 755//652
f 753//652 756//652 692//596
f 692//596 756//652 100//652
f 692//596 100//652 723//615
s 0
f 757//652 758//652 94//652
s 1
f 100//652 98//652 723//615
f 723//615 98//652 96//652
f 723//615 96//652 724//608
f 724//608 96//652 94//652
f 724//608 94//652 759//652
s 0
f 759//652 94//652 758//652
s 1
f 720//608 760//652 719//606
f 719//606 760//652 86//652
f 719//653 86//652 693//596
f 693//596 86//652 761//652
f 693//596 761//652 755//652
s 0
f 760//652 762//652 86//652
f 86//652 762//652 763//652
f 86//652 763//652 88//652
f 88//652 763//652 90//652
f 757//652 94//652 763//652
f 763//652 94//652 92//652
f 763//652 92//652 90//652
s 1
f 611//528 612//529 74//651
f 74//651 612//529 76//651
f 611//528 74//651 610//527
f 610//527 74//651 72//651
f 610//527 72//651 609//526
f 70//651 607//524 72//651
f 72//651 607//524 608//525
f 72//651 608//525 609//526
f 68//651 605//522 70//651
f 70//651 605//522 606//523
f 70//651 606//523 607//524
f 612//529 613//530 76//651
f 76//651 613//530 614//531
f 76//651 614//531 78//651
f 78//651 614//531 615//532
f 78//651 615//532 764//651
f 764//651 615//532 644//561
f 764//651 644//561 765//651
f 66//651 603//520 68//651
f 68//651 603//520 604//521
f 68//651 604//521 605//522
f 766//651 451//368 66//651
f 66//651 451//368 527//444
f 66//651 527//444 603//520
f 766//651 767//651 451//368
f 451//368 767//651 768//651
f 451//368 768//651 644//561
f 644//561 768//651 769//651
f 644//561 769//651 765//651
f 338//255 339//256 50//652
f 50//652 339//256 52//652
f 339//256 340//257 52//652
f 52//652 340//257 770//654
f 52//652 770//654 54//652
f 48//652 336//253 50//652
f 50//652 336//253 337//254
f 50//652 337//254 338//255
f 46//652 334//251 48//652
f 48//652 334//251 335//252
f 48//652 335//252 336//253
f 771//655 56//652 772//656
f 772//656 56//652 54//652
f 772//656 54//652 773//657
f 773//657 54//652 770//654
f 774//652 346//263 46//652
f 46//652 346//263 325//242
f 46//652 325//242 334//251
f 775//652 200//117 776//652
f 776//652 200//117 346//263
f 776//652 346//263 777//652
f 777//652 346//263 774//652
f 771//655 778//658 56//652
f 56//652 778//658 779//659
f 56//652 779//659 58//652
f 58//652 779//659 221//138
f 58//652 221//138 780//652
f 780//652 221//138 200//117
f 780//652 200//117 781//652
f 781//652 200//117 775//652
s 0
f 782//652 783//652 784//652
s 1
f 691//596 690//596 783//652
f 783//652 690//596 785//652
s 0
f 783//652 785//652 786//652
f 786//652 787//652 783//652
f 783//652 787//652 788//652
f 783//652 788//652 784//652
f 789//652 790//652 784//652
f 784//652 790//652 791//652
f 784//652 791//652 782//652
s 1
f 741//645 727//621 740//645
f 740//645 727//621 726//621
f 695//597 694//597 792//651
f 792//651 694//597 793//651
s 0
f 792//651 793//651 794//651
f 794//651 795//651 792//651
f 792//651 795//651 796//651
f 792//651 796//651 797//651
f 798//651 792//651 799//651
f 799//651 792//651 797//651
f 799//651 797//651 800//651
f 800//651 797//651 801//651
f 802//652 803//652 804//652
s 1
f 670//585 671//585 804//652
f 804//652 671//585 687//595
s 0
f 805//652 802//652 806//652
s 1
f 687//595 686//594 804//652
f 804//652 686//594 807//652
s 0
f 804//652 807//652 802//652
f 802//652 807//652 808//652
f 802//652 808//652 806//652
f 809//652 810//652 806//652
f 806//652 810//652 811//652
f 806//652 811//652 805//652
s 1
f 673//586 672//586 682//660
f 682//660 672//586 812//651
s 0
f 813//651 814//651 815//651
s 1
f 683//593 682//592 816//651
f 816//651 682//660 812//651
s 0
f 816//651 812//651 814//651
f 814//651 812//651 817//651
f 814//651 817//651 815//651
f 818//651 819//651 820//651
f 820//651 819//651 813//651
f 820//651 813//651 821//651
f 821//651 813//651 815//651
s 1
f 695//1 792//661 214//131
f 678//1 187//104 676//1
f 676//1 187//104 674//1
f 674//1 187//104 672//1
f 672//1 187//104 215//132
f 672//1 215//132 812//662
f 733//1 730//1 171//88
f 171//88 730//1 731//1
f 171//88 731//1 214//131
f 214//131 731//1 697//1
f 214//131 697//1 695//1
f 804//663 533//450 670//1
f 670//1 533//450 433//350
f 670//1 433//350 668//1
f 723//1 420//337 692//1
f 692//1 420//337 427//344
f 692//1 427//344 690//1
f 690//1 427//344 785//664
f 432//349 435//352 664//1
f 729//1 392//309 417//334
f 723//1 722//1 420//337
f 420//337 722//1 725//1
f 420//337 725//1 419//336
f 419//336 725//1 729//1
f 419//336 729//1 418//335
f 418//335 729//1 417//334
f 432//349 664//1 433//350
f 433//350 664//1 666//1
f 433//350 666//1 668//1
s 0
f 662//1 664//1 727//1
s 1
f 727//1 664//1 435//352
f 727//1 435//352 729//1
f 729//1 435//352 434//351
f 729//1 434//351 392//309
f 733//1 171//88 739//1
f 739//1 171//88 170//87
f 739//1 170//87 175//92
s 0
f 662//1 727//1 680//1
f 680//1 727//1 741//1
f 680//1 741//1 678//1
s 1
f 739//1 207//124 741//1
f 741//1 207//124 196//113
f 741//1 196//113 678//1
f 678//1 196//113 188//105
f 678//1 188//105 187//104
f 175//92 178//95 739//1
f 739//1 178//95 183//100
f 739//1 183//100 207//124
f 544//461 543//460 807//665
f 807//666 543//460 808//667
f 543//460 573//490 808//667
f 808//667 573//490 572//489
f 808//667 572//489 806//668
f 567//484 809//669 568//485
f 568//485 809//669 806//668
f 568//485 806//668 570//487
f 570//487 806//668 572//489
f 562//479 810//670 564//481
f 564//481 810//670 809//669
f 564//481 809//669 565//482
f 565//482 809//669 567//484
f 562//479 560//477 810//670
f 810//670 560//477 559//476
f 810//670 559//476 811//671
f 554//471 805//672 556//473
f 556//473 805//672 811//671
f 556//473 811//671 557//474
f 557//474 811//671 559//476
f 554//471 552//469 805//672
f 805//672 552//469 551//468
f 805//672 551//468 802//673
f 551//468 549//466 802//673
f 802//673 549//466 548//465
f 802//673 548//465 803//674
f 533//450 804//663 545//462
f 545//462 804//663 803//674
f 545//462 803//674 546//463
f 546//463 803//674 548//465
f 691//9 783//675 457//374
f 721//9 718//9 534//451
f 534//451 718//9 719//9
f 534//451 719//9 457//374
f 457//374 719//9 693//9
f 457//374 693//9 691//647
f 629//546 632//549 728//9
f 728//9 632//549 637//554
f 728//9 637//554 661//578
f 683//9 816//676 296//213
f 721//9 534//451 728//9
f 728//9 534//451 626//543
f 728//9 626//543 629//546
f 380//297 702//9 381//298
f 381//298 702//9 704//9
f 381//298 704//9 379//296
f 807//665 686//9 544//461
f 544//461 686//9 688//9
f 544//461 688//9 638//555
f 638//555 688//9 708//9
f 638//555 708//9 648//565
f 648//565 708//9 710//9
f 648//565 710//9 652//569
f 735//9 345//262 696//9
f 696//9 345//262 260//177
f 696//677 260//177 694//9
f 694//9 260//177 793//678
f 735//9 734//9 345//262
f 345//262 734//9 737//9
f 345//262 737//9 738//9
s 0
f 740//9 700//9 738//9
f 738//9 700//9 702//9
s 1
f 738//9 702//9 345//262
f 345//262 702//9 380//297
f 345//262 380//297 367//284
f 368//285 371//288 367//284
f 367//284 371//288 374//291
f 367//284 374//291 345//262
f 379//296 704//9 352//269
f 352//269 704//9 706//9
f 352//269 706//9 296//213
f 296//213 706//9 685//9
f 296//213 685//9 683//9
f 652//569 710//9 661//578
f 661//578 710//9 712//9
f 661//578 712//9 728//9
s 0
f 728//9 712//9 714//9
f 728//9 714//9 726//9
f 726//9 714//9 716//9
f 726//9 716//9 740//9
f 740//9 716//9 698//9
f 740//9 698//9 700//9
s 1
f 427//344 456//373 785//664
f 785//679 456//373 786//680
f 483//400 787//681 485//402
f 485//402 787//681 786//680
f 485//402 786//680 486//403
f 486//403 786//680 456//373
f 483//400 481//398 787//681
f 787//681 481//398 480//397
f 787//681 480//397 788//682
f 475//392 784//683 477//394
f 477//394 784//683 788//682
f 477//394 788//682 478//395
f 478//395 788//682 480//397
f 475//392 473//390 784//683
f 784//683 473//390 472//389
f 784//683 472//389 789//684
f 472//389 470//387 789//684
f 789//684 470//387 469//386
f 789//684 469//386 790//685
f 464//381 791//686 465//382
f 465//382 791//686 790//685
f 465//382 790//685 467//384
f 467//384 790//685 469//386
f 464//381 462//379 791//686
f 791//686 462//379 461//378
f 791//686 461//378 782//687
f 457//374 783//675 458//375
f 458//375 783//675 782//687
f 458//375 782//687 459//376
f 459//376 782//687 461//378
f 421//338 822//651 823//651
f 824//651 825//651 520//437
f 501//688 826//651 85//651
f 540//457 148//651 407//324
f 407//324 148//651 145//651
f 407//324 145//651 142//651
f 520//437 825//651 519//436
f 519//436 825//651 827//651
f 519//436 827//651 518//435
f 518//435 827//651 517//434
f 517//434 827//651 828//651
f 517//434 828//651 516//433
s 0
f 40//651 823//651 41//651
f 41//651 823//651 829//651
f 41//651 829//651 42//651
s 1
f 516//433 828//651 515//432
f 515//432 828//651 44//651
f 515//432 44//651 501//418
f 826//651 501//688 830//651
f 830//651 501//418 44//651
s 0
f 830//651 44//651 829//651
f 829//651 44//651 43//651
f 829//651 43//651 42//651
f 40//651 39//651 823//651
f 823//651 39//651 38//651
s 1
f 823//651 38//651 421//338
f 421//338 38//651 37//651
f 421//338 37//651 526//443
f 526//443 37//651 831//651
f 832//651 524//441 831//651
f 831//651 524//441 525//442
f 831//651 525//442 526//443
f 520//437 521//438 824//651
f 824//651 521//438 522//439
f 824//651 522//439 832//651
f 832//651 522//439 523//440
f 832//651 523//440 524//441
f 833//651 501//418 834//651
f 834//651 501//688 85//651
s 0
f 834//651 85//651 835//651
f 835//689 85//689 87//689
f 835//651 87//651 836//651
s 1
f 833//651 837//651 501//418
f 501//418 837//651 152//651
f 501//418 152//651 540//457
f 540//457 152//651 150//651
f 540//457 150//651 148//651
f 142//651 139//651 407//324
f 407//324 139//651 137//651
f 407//324 137//651 838//651
f 822//651 421//338 99//651
f 99//651 421//338 407//324
f 99//651 407//324 97//651
s 0
f 87//651 89//651 836//651
f 836//651 89//651 91//651
f 836//651 91//651 838//651
f 838//651 91//651 93//651
s 1
f 838//651 93//651 407//324
f 407//324 93//651 95//651
f 407//324 95//651 97//651
f 296//213 816//676 297//214
f 297//214 816//676 814//690
f 297//214 814//690 301//218
f 301//218 814//690 302//219
f 302//219 814//690 813//691
f 302//219 813//691 303//220
f 819//692 307//224 813//691
f 813//691 307//224 305//222
f 813//691 305//222 303//220
f 312//229 314//231 818//693
f 818//693 314//231 315//232
f 818//693 315//232 819//692
f 819//692 315//232 308//225
f 819//692 308//225 307//224
f 312//229 818//693 310//227
f 310//227 818//693 820//694
f 310//227 820//694 839//695
f 821//696 840//697 820//694
f 820//694 840//697 841//698
f 820//694 841//698 839//695
f 815//699 842//700 821//696
f 821//696 842//700 843//701
f 821//696 843//701 840//697
f 844//702 845//703 817//704
f 817//704 845//703 846//705
f 817//704 846//705 815//699
f 815//699 846//705 847//706
f 815//699 847//706 842//700
f 844//702 817//704 848//707
f 848//707 817//704 812//662
f 848//707 812//662 215//132
f 214//131 792//661 293//210
f 293//210 792//661 798//708
f 799//709 223//140 798//708
f 798//708 223//140 222//139
f 798//708 222//139 293//210
f 228//145 282//199 800//710
f 800//710 282//199 226//143
f 800//710 226//143 799//709
f 799//709 226//143 225//142
f 799//709 225//142 223//140
f 228//145 800//710 229//146
f 229//146 800//710 801//711
f 229//146 801//711 231//148
f 231//148 801//711 232//149
f 232//149 801//711 797//712
f 232//149 797//712 271//188
f 263//180 262//179 796//713
f 796//713 262//179 235//152
f 796//713 235//152 797//712
f 797//712 235//152 234//151
f 797//712 234//151 271//188
f 263//180 796//713 264//181
f 264//181 796//713 795//714
f 264//181 795//714 265//182
f 265//182 795//714 266//183
f 266//183 795//714 794//715
f 266//183 794//715 267//184
f 267//184 794//715 261//178
f 261//178 794//715 793//716
f 261//178 793//678 260//177
f 685//593 706//586 684//593
f 684//593 706//586 707//586
f 689//594 709//585 688//594
f 688//594 709//585 708//585
f 717//579 699//591 716//579
f 716//579 699//591 698//591
f 849//652 850//652 276//193
f 106//652 104//652 341//717
f 341//717 104//652 102//652
f 341//717 102//652 18//652
f 276//193 850//652 281//198
f 281//198 850//652 851//652
f 281//198 851//652 286//203
f 131//652 129//652 161//78
f 161//78 129//652 126//652
f 161//78 126//652 341//258
f 341//258 126//652 123//652
f 341//258 123//652 120//652
f 18//652 17//652 341//258
f 341//258 17//652 16//652
f 341//258 16//652 256//173
f 256//173 16//652 15//652
f 256//173 15//652 240//157
f 240//157 15//652 852//652
f 853//652 248//165 852//652
f 852//652 248//165 241//158
f 852//652 241//158 240//157
f 276//193 275//192 849//652
f 849//652 275//192 270//187
f 849//652 270//187 853//652
f 853//652 270//187 252//169
f 853//652 252//169 248//165
f 286//203 851//652 287//204
f 287//204 851//652 854//652
f 287//204 854//652 292//209
f 292//209 854//652 238//155
f 238//155 854//652 22//652
f 238//155 22//652 208//125
f 855//652 208//125 856//652
f 856//652 208//125 22//652
s 0
f 856//652 22//652 857//652
f 857//652 22//652 21//652
f 857//652 21//652 858//652
f 858//652 21//652 20//652
f 858//652 20//652 102//652
f 102//652 20//652 19//652
f 102//652 19//652 18//652
s 1
f 112//652 110//652 161//78
f 120//652 118//652 341//258
f 341//258 118//652 859//652
f 341//258 859//652 106//652
s 0
f 106//652 859//652 860//652
f 106//652 860//652 861//652
s 1
f 855//652 862//652 208//125
f 208//125 862//652 116//652
f 208//125 116//652 161//78
f 161//78 116//652 114//652
f 161//78 114//652 112//652
s 0
f 863//652 864//652 110//652
f 110//652 864//652 865//652
s 1
f 110//652 865//652 161//78
f 161//78 865//652 133//652
f 161//78 133//652 131//652
s 0
f 863//652 110//652 861//652
f 861//652 110//652 108//652
f 861//652 108//652 106//652
s 1
f 340//257 333//250 866//718
f 333//250 324//241 867//719
f 310//227 839//695 311//228
f 311//228 839//695 868//720
f 311//228 868//720 324//241
f 839//695 841//698 868//720
f 868//720 841//698 840//697
f 868//720 840//697 869//721
f 869//721 840//697 843//701
f 869//721 843//701 870//722
f 843//701 842//700 870//722
f 870//722 842//700 847//706
f 870//722 847//706 871//723
f 847//706 846//705 871//723
f 871//723 846//705 845//703
f 871//723 845//703 872//724
f 872//724 845//703 844//702
f 872//724 844//702 873//725
f 873//725 844//702 848//707
f 873//725 848//707 215//132
f 324//241 868//720 867//719
f 867//719 868//720 869//721
f 867//719 869//721 874//726
f 874//726 869//721 870//722
f 874//726 870//722 875//727
f 875//727 870//722 871//723
f 875//727 871//723 876//728
f 876//728 871//723 872//724
f 876//728 872//724 877//729
f 877//729 872//724 873//725
f 877//729 873//725 878//730
f 215//132 216//133 873//725
f 873//725 216//133 217//134
f 873//725 217//134 878//730
f 878//730 217//134 218//135
f 878//730 218//135 219//136
f 333//250 867//719 866//718
f 866//718 867//719 874//726
f 866//718 874//726 879//731
f 879//731 874//726 875//727
f 879//731 875//727 880//732
f 880//732 875//727 876//728
f 880//732 876//728 881//733
f 881//733 876//728 877//729
f 881//733 877//729 882//734
f 882//734 877//729 878//730
f 882//734 878//730 883//735
f 883//735 878//730 219//136
f 883//735 219//136 220//137
f 340//257 866//718 770//654
f 770//654 866//718 879//731
f 770//654 879//731 773//657
f 773//657 879//731 880//732
f 773//657 880//732 772//656
f 772//656 880//732 881//733
f 772//656 881//733 771//655
f 771//655 881//733 882//734
f 771//655 882//734 778//658
f 778//658 882//734 883//735
f 778//658 883//735 779//659
f 779//659 883//735 220//137
f 779//659 220//137 221//138
f 720//736 153//70 152//69
f 720//736 152//69 760//737
f 760//737 152//69 837//738
f 760//739 837//740 762//741
f 762//741 837//740 833//741
f 762//741 833//741 763//742
f 763//742 833//741 834//742
f 763//742 834//742 757//743
f 757//743 834//742 835//743
f 757//743 835//743 758//744
f 758//744 835//743 836//744
f 758//744 836//744 759//745
f 759//745 836//744 838//746
f 759//747 838//748 724//749
f 724//749 838//748 137//54
f 724//749 137//54 136//53
f 732//750 134//51 133//50
f 732//750 133//50 747//751
f 747//751 133//50 865//752
f 747//751 865//753 751//744
f 751//744 865//753 864//744
f 751//744 864//744 752//743
f 752//743 864//744 863//743
f 752//743 863//743 748//742
f 748//742 863//743 861//742
f 748//742 861//742 749//741
f 749//741 861//742 860//741
f 749//741 860//741 750//754
f 750//754 860//741 859//755
f 750//756 859//757 736//758
f 736//758 859//757 118//35
f 736//758 118//35 117//34
f 115//33 116//33 745//759
f 745//759 116//33 862//759
f 745//759 862//759 744//760
f 744//760 862//759 855//760
f 744//760 855//760 742//761
f 742//761 855//760 856//761
f 742//761 856//761 743//762
f 743//762 856//761 857//763
f 743//762 857//763 746//764
f 746//764 857//763 858//764
f 746//765 858//765 101//766
f 101//766 858//765 102//766
f 99//33 100//33 822//767
f 822//767 100//33 756//759
f 822//767 756//759 823//768
f 823//768 756//759 753//768
f 823//760 753//760 829//761
f 829//761 753//760 754//761
f 829//761 754//761 830//762
f 830//762 754//761 755//763
f 830//762 755//763 826//764
f 826//764 755//763 761//764
f 826//765 761//765 85//766
f 85//766 761//765 86//766
f 77//27 78//28 79//769
f 79//769 78//28 764//770
f 79//769 764//770 84//771
f 84//771 764//770 765//771
f 84//771 765//771 80//772
f 80//772 765//771 769//772
f 80//772 769//772 81//773
f 81//773 769//772 768//773
f 81//773 768//773 82//774
f 82//774 768//773 767//774
f 82//774 767//774 83//775
f 83//775 767//774 766//775
f 83//775 766//775 65//20
f 65//20 766//775 66//21
f 57//18 58//19 59//776
f 59//776 58//19 780//776
f 59//776 780//776 61//777
f 61//777 780//776 781//777
f 61//777 781//777 62//778
f 62//778 781//777 775//778
f 62//778 775//778 64//779
f 64//779 775//778 776//779
f 64//779 776//779 63//780
f 63//780 776//779 777//780
f 63//780 777//780 60//781
f 60//781 777//780 774//781
f 60//781 774//781 45//10
f 45//10 774//781 46//11
f 23//782 44//782 24//783
f 24//783 44//782 828//783
f 24//783 828//783 32//784
f 32//784 828//783 827//784
f 32//784 827//784 31//785
f 31//785 827//784 825//785
f 31//785 825//785 30//743
f 30//743 825//785 824//743
f 30//743 824//743 29//744
f 29//744 824//743 832//744
f 29//744 832//744 25//786
f 25//786 832//744 831//786
f 25//786 831//786 27//9
f 27//9 831//786 37//9
f 10//9 22//9 9//786
f 9//786 22//9 854//786
f 9//786 854//786 8//744
f 8//744 854//786 851//744
f 8//744 851//744 7//743
f 7//743 851//744 850//743
f 7//743 850//743 4//785
f 4//785 850//743 849//785
f 4//785 849//785 5//784
f 5//784 849//785 853//784
f 5//784 853//784 6//783
f 6//783 853//784 852//783
f 6//783 852//783 14//1
f 14//1 852//783 15//1
s 0
usemtl grey.009
f 1//652 2//652 3//652
f 4//652 5//652 6//652
f 7//652 4//652 8//652
f 8//652 4//652 1//652
f 8//652 1//652 9//652
f 9//652 1//652 3//652
f 9//652 3//652 10//652
f 11//652 1//652 12//652
f 12//652 1//652 4//652
f 12//652 4//652 13//652
f 13//652 4//652 6//652
f 13//652 6//652 14//652
f 23//651 24//651 25//651
f 23//651 25//651 26//651
f 26//651 25//651 27//651
f 26//651 27//651 28//651
f 29//651 25//651 30//651
f 30//651 25//651 24//651
f 30//651 24//651 31//651
f 31//651 24//651 32//651
f 33//651 34//651 35//651
f 35//651 34//651 26//651
f 35//651 26//651 36//651
f 36//651 26//651 28//651
f 57//652 59//652 60//652
f 59//652 61//652 62//652
f 45//652 47//652 49//652
f 60//652 59//652 63//652
f 63//652 59//652 62//652
f 63//652 62//652 64//652
f 57//652 60//652 55//652
f 55//652 60//652 45//652
f 55//652 45//652 53//652
f 53//652 45//652 49//652
f 53//652 49//652 51//652
f 77//651 79//651 67//651
f 80//651 81//651 82//651
f 65//651 67//651 83//651
f 83//651 67//651 79//651
f 83//651 79//651 82//651
f 82//651 79//651 84//651
f 82//651 84//651 80//651
f 73//651 75//651 71//651
f 71//651 75//651 77//651
f 71//651 77//651 69//651
f 69//651 77//651 67//651
